<svg xmlns="http://www.w3.org/2000/svg">
<defs>
<font id="Ewangi-Regular" horiz-adv-x="1331" >
  <font-face 
    font-family="Ewangi"
    font-weight="400"
    font-stretch="normal"
    units-per-em="2048"
    panose-1="0 0 0 0 0 0 0 0 0 0"
    ascent="1638"
    descent="-410"
    x-height="1126"
    cap-height="1536"
    bbox="-127 -442 2427 2025"
    underline-thickness="102"
    underline-position="-255"
    unicode-range="U+000D-FB02"
  />
<missing-glyph horiz-adv-x="1271" 
d="M741 549q-34 0 -49.5 35.5t-15.5 83.5q0 14 1.5 29t5.5 40t15 40.5t27 15.5q13 0 23 -13t10 -35q0 -11 -5 -49t-5 -65q0 -31 18 -31q8 0 14 8.5t10.5 23.5t8 30.5t5.5 36t3.5 34t2.5 29t1 16.5q3 39 35 39q15 0 22.5 -8.5t8.5 -27.5t-0.5 -36.5t-5.5 -49t-5 -50.5
q-2 -15 0 -13q9 6 25 122q9 63 55 63q32 0 50.5 -23t11.5 -65q0 -2 -2 -13.5t-3.5 -24t-3 -28.5t-2 -30t0 -26t3.5 -18t9 -5q12 2 24 34.5t16 82.5t0 104.5t-25.5 107.5t-59.5 84q-42 37 -101 37q-53 0 -96.5 -32.5t-60.5 -86.5q-17 -51 -48 -51q-20 0 -32 26.5t-6 63.5
q11 61 68.5 111.5t131.5 60.5q79 11 143.5 -32.5t98.5 -130.5q29 -91 25.5 -184t-36.5 -163.5t-77 -70.5q-29 0 -42 33t-9 73q1 18 5.5 43.5t8 41.5t3 30.5t-6.5 19.5q-12 9 -18 -18q-4 -14 -9 -57q-14 -111 -37 -139q-13 -15 -30 -15q-31 0 -31 55q-19 -63 -68 -63z
M219 819q0 -12 -8 -17.5t-14.5 -6t-20.5 -0.5q-25 0 -48.5 12.5t-23.5 34.5q0 49 68.5 73t214.5 27q142 4 180 -7q46 -12 19 -44q-24 -31 -54 -31q-3 0 -57 10t-108 4q-1 -26 -6 -111.5t-4.5 -136t8.5 -89.5q3 -13 8.5 -28.5t8 -24t3.5 -16.5t-4 -11.5t-16 -3.5
q-28 0 -46.5 19.5t-25 51t-8.5 51.5t-2 41q0 97 12 256q-4 0 -19 -0.5t-26.5 -1.5t-28 -2t-29 -3.5t-24.5 -5t-18.5 -7t-6.5 -10.5q0 -4 3 -6t8.5 -2.5t11 -0.5t14 0.5t13.5 0.5q26 0 26 -15zM731 797q-18 0 -28.5 14t-10.5 35q0 18 10 31.5t27 13.5q18 0 27.5 -13t9.5 -32
q0 -17 -9 -33t-26 -16zM586 797q-12 18 -1.5 38t36.5 7q43 -19 43 -123q0 -17 -1.5 -34t-9 -51t-28 -55.5t-52.5 -21.5q-25 0 -41 15t-18 38q-7 -23 -25.5 -36t-35.5 -13q-66 0 -66 139q0 119 76 119q20 0 25 -15t-5 -30q-20 -32 -27.5 -71t-2 -66t21.5 -27q13 0 17 25t3 55

<glyph glyph-name="fi" unicode="fi" horiz-adv-x="1009" 
d="M774 1460l-119 -119q-49 52 -133 52q-83 0 -133.5 -51t-50.5 -134v-82h580v-1126h-164v963h-416v-963h-164v963h-102v163h102v82q0 157 95.5 252.5t252.5 95.5q159 0 252 -96zM754 1358q0 37 22.5 59.5t59.5 22.5t59.5 -22.5t22.5 -59.5t-22.5 -59.5t-59.5 -22.5
t-59.5 22.5t-22.5 59.5z" />
    <glyph glyph-name="fl" unicode="fl" horiz-adv-x="1071" 
d="M774 1460l-119 -119q-49 52 -133 52q-83 0 -133.5 -51t-50.5 -134v-82h477v410h164v-1536h-164v963h-477v-963h-164v963h-102v163h102v82q0 157 95.5 252.5t252.5 95.5q159 0 252 -96z" />
    <glyph glyph-name=".notdef" horiz-adv-x="1271" 
d="M741 549q-34 0 -49.5 35.5t-15.5 83.5q0 14 1.5 29t5.5 40t15 40.5t27 15.5q13 0 23 -13t10 -35q0 -11 -5 -49t-5 -65q0 -31 18 -31q8 0 14 8.5t10.5 23.5t8 30.5t5.5 36t3.5 34t2.5 29t1 16.5q3 39 35 39q15 0 22.5 -8.5t8.5 -27.5t-0.5 -36.5t-5.5 -49t-5 -50.5
q-2 -15 0 -13q9 6 25 122q9 63 55 63q32 0 50.5 -23t11.5 -65q0 -2 -2 -13.5t-3.5 -24t-3 -28.5t-2 -30t0 -26t3.5 -18t9 -5q12 2 24 34.5t16 82.5t0 104.5t-25.5 107.5t-59.5 84q-42 37 -101 37q-53 0 -96.5 -32.5t-60.5 -86.5q-17 -51 -48 -51q-20 0 -32 26.5t-6 63.5
q11 61 68.5 111.5t131.5 60.5q79 11 143.5 -32.5t98.5 -130.5q29 -91 25.5 -184t-36.5 -163.5t-77 -70.5q-29 0 -42 33t-9 73q1 18 5.5 43.5t8 41.5t3 30.5t-6.5 19.5q-12 9 -18 -18q-4 -14 -9 -57q-14 -111 -37 -139q-13 -15 -30 -15q-31 0 -31 55q-19 -63 -68 -63z
M219 819q0 -12 -8 -17.5t-14.5 -6t-20.5 -0.5q-25 0 -48.5 12.5t-23.5 34.5q0 49 68.5 73t214.5 27q142 4 180 -7q46 -12 19 -44q-24 -31 -54 -31q-3 0 -57 10t-108 4q-1 -26 -6 -111.5t-4.5 -136t8.5 -89.5q3 -13 8.5 -28.5t8 -24t3.5 -16.5t-4 -11.5t-16 -3.5
q-28 0 -46.5 19.5t-25 51t-8.5 51.5t-2 41q0 97 12 256q-4 0 -19 -0.5t-26.5 -1.5t-28 -2t-29 -3.5t-24.5 -5t-18.5 -7t-6.5 -10.5q0 -4 3 -6t8.5 -2.5t11 -0.5t14 0.5t13.5 0.5q26 0 26 -15zM731 797q-18 0 -28.5 14t-10.5 35q0 18 10 31.5t27 13.5q18 0 27.5 -13t9.5 -32
q0 -17 -9 -33t-26 -16zM586 797q-12 18 -1.5 38t36.5 7q43 -19 43 -123q0 -17 -1.5 -34t-9 -51t-28 -55.5t-52.5 -21.5q-25 0 -41 15t-18 38q-7 -23 -25.5 -36t-35.5 -13q-66 0 -66 139q0 119 76 119q20 0 25 -15t-5 -30q-20 -32 -27.5 -71t-2 -66t21.5 -27q13 0 17 25t3 55
t8 55.5t32 26.5q31 0 32 -79q0 -73 2 -81q4 -18 17 -12q25 12 25 84.5t-25 112.5zM690 504q27 1 60.5 0t81 1t93 6t94.5 15.5t87 28.5q11 5 12 5q2 -2 2 -11q0 -70 -147 -81q-6 -1 -8 -1q-168 -8 -275 -8q-17 -215 21 -215q16 0 27.5 30.5t19 66.5t25.5 66.5t46 30.5
q40 0 44 -39q4 -43 -32 -80q-16 -16 -36 -24q-4 -26 1.5 -50t27.5 -24q30 0 45.5 36.5t19.5 80.5q2 23 -5 46t-7 32q0 10 7.5 14t16.5 2q22 -4 34 -24t9 -43q6 23 31 44t49 21q34 0 50.5 -35t6 -72t-41.5 -44q-16 -4 -32 4t-16 26q0 9 15 9.5t20 5.5q18 17 11 44t-31 23
q-23 -3 -32.5 -38.5t-9.5 -76t-9.5 -72.5t-32.5 -30q-14 2 -22.5 25.5t-8.5 60.5q-23 -80 -74 -80q-27 0 -49.5 22t-25.5 48q-26 -60 -58 -60q-20 0 -37 22t-20 44q-10 -28 -31 -49t-47 -21t-46.5 20t-20.5 46q-6 -30 -27.5 -51t-50.5 -21q-46 0 -72 41q-13 -17 -36.5 -28
t-45.5 -11q-38 0 -59 35.5t-21 101.5q0 29 6.5 84t4.5 100t-19 95q-13 41 23 41q16 0 36 -10q38 -21 45 -89.5t-4 -137.5t-10 -124t29 -55q26 0 39.5 33t16.5 72.5t19.5 72.5t49.5 33q46 0 39 -47q-7 -46 -47 -84q-5 -4 -9 -8q-5 -22 4.5 -48t32.5 -26q18 0 29.5 20.5
t16.5 53t6.5 63.5t2 63t1.5 40q-5 0 -20.5 -1.5t-26 -1t-24 3t-22.5 10.5t-12 22q-6 23 1 26t26 -5q13 -4 21 -6.5t23.5 -5.5t30.5 -3q0 23 6 34t23 11q31 0 31 -45l80 2q0 43 33 43q12 0 20 -11.5t8 -29.5zM551 461q0 -6 -2.5 -68.5t1 -108t17.5 -46.5q16 -1 27.5 17.5
t17.5 50t9.5 59.5t5.5 60t2 36h-78zM399 319q12 9 25.5 39.5t7.5 36.5q-11 11 -22 -22q-11 -29 -11 -54zM809 319q18 8 29.5 23.5t13.5 25.5t2 17q0 12 -10 12h-4q-11 -3 -20 -30.5t-11 -47.5zM569 111q6 0 6 -6.5t-6 -6.5q-5 0 -5 6.5t5 6.5zM621 70v41h10v-41h-10z
M709 106v-8h6v-6h-6v-12q0 -2 2.5 -2.5t3.5 0.5v-8q-2 -2 -7 -2.5t-8 2.5t-3.5 6.5t0.5 9t1 6.5h-14v-12q0 -5 6 -2v-8q-7 -4 -14 0q-2 2 -2 10v12h-4v6h4v4l10 4v-8h14v4zM504 106v-8h6v-6h-6v-12q0 -4 6 -2v-8q-10 -3 -16 0q-2 6 -2 22h-3v6h3v4zM801 84q0 -6 16 -6v-8
q-21 -7 -26 9q-5 14 10 19q7 2 16 0v-8q-3 3 -9.5 1.5t-6.5 -7.5zM895 98q10 0 10 -12v-16h-8v14q0 6 -2.5 7t-5 -1.5t-2.5 -5.5v-14h-10v14q0 8 -7 8q-4 0 -4 -6v-16h-8v28h8v-2q3 3 10.5 2.5t8.5 -4.5q4 4 10 4zM547 78l4 20h10l-8 -28h-10l-4 18l-7 -18h-10l-6 28h8
l4 -20l7 20h6zM735 98q15 0 15 -18h-19q0 -10 17 -2l2 -8q-10 -5 -20.5 -1t-10.5 13q0 16 16 16zM457 78l6 20h6l-6 -28h-10l-7 18l-6 -18h-8l-8 28h10l4 -20l4 20h9zM362 78l5 20h8l-8 -28h-7l-8 18l-6 -18h-6l-10 28h10l2 -20l6 20h10zM565 70v28h10v-28h-10zM838 98
q15 0 15 -15t-15 -15q-11 0 -15.5 7.5t0 15t15.5 7.5zM602 98q14 0 14 -12v-16h-12v14q0 4 -2 6t-4.5 1.5t-3.5 -3.5v-18h-10v28h8l2 -2q2 2 8 2zM410 78l4 20h8l-6 -28h-10l-5 18l-8 -18h-8l-6 28h8l4 -20l4 20h8zM764 94q2 4 12 4v-8q-10 3 -10 -4v-16h-10v28h8v-4z
M651 98q15 0 15 -18h-19q2 -5 8 -4.5t11 2.5v-8q-9 -5 -19 -1t-10 13q0 16 14 16zM838 76q6 0 6 8t-6 8t-7.5 -4t0.5 -8t7 -4zM647 86h12q0 6 -6 6t-6 -6zM731 86h10q0 6 -5 6t-5 -6zM780 78q6 0 6 -5t-6 -5t-6 5t6 5zM479 78q6 0 6 -5t-6 -5t-6 5t6 5z" />
    <glyph glyph-name="uni0000" horiz-adv-x="0" 
 />
    <glyph glyph-name="uni0000" horiz-adv-x="0" 
 />
    <glyph glyph-name="uni000D" unicode="&#xd;" horiz-adv-x="512" 
 />
    <glyph glyph-name="space" unicode=" " horiz-adv-x="450" 
 />
    <glyph glyph-name="exclam" unicode="!" horiz-adv-x="389" 
d="M133 410l-31 1126h185l-31 -1126h-123zM92 82q0 46 28.5 74t74.5 28t74 -28t28 -74t-28 -74t-74 -28t-74.5 28t-28.5 74z" />
    <glyph glyph-name="quotedbl" unicode="&#x22;" horiz-adv-x="628" 
d="M123 819l-31 717h184l-30 -717h-123zM383 819l-31 717h185l-31 -717h-123z" />
    <glyph glyph-name="numbersign" unicode="#" horiz-adv-x="1572" 
d="M313 0l72 410h-293v143h318l73 430h-313v143h338l72 410h143l-72 -410h369l72 410h143l-72 -410h318v-143h-342l-74 -430h338v-143h-363l-71 -410h-144l72 410h-369l-71 -410h-144zM553 553h369l73 430h-368z" />
    <glyph glyph-name="dollar" unicode="$" 
d="M604 -322v302q-342 14 -532 217l133 139q170 -157 399 -170v514q-53 12 -90.5 21.5t-87.5 24t-85 28.5t-76 34t-69 41.5t-54.5 50.5t-41.5 61.5t-22.5 73.5t-3.5 87q15 197 152 314t378 136v308h164v-306q164 -9 282 -63t210 -152l-134 -139q-82 75 -165 116.5t-193 51.5
v-528q63 -14 110.5 -27t103.5 -33.5t96 -42.5t78.5 -54t61 -69.5t34 -87.5t5.5 -108q-19 -187 -142.5 -298t-346.5 -134v-308h-164zM604 874v494q-146 -15 -232 -75.5t-104 -153.5q-9 -47 4.5 -85t41 -64t76.5 -48.5t97 -37t117 -30.5zM768 641v-471q249 33 293 215
q13 54 -3 96t-61.5 71.5t-98 49t-130.5 39.5z" />
    <glyph glyph-name="percent" unicode="%" horiz-adv-x="1546" 
d="M92 1163q0 170 76.5 281.5t210.5 111.5q132 0 208.5 -111.5t76.5 -281.5t-76.5 -281.5t-208.5 -111.5q-134 0 -210.5 111.5t-76.5 281.5zM432 0l512 1536h170l-512 -1536h-170zM225 1163q0 -124 43 -192t111 -68q67 0 109 68t42 192t-42 192t-109 68q-68 0 -111 -68
t-43 -192zM883 373q0 170 76 281.5t210 111.5q132 0 208.5 -111.5t76.5 -281.5t-76.5 -281.5t-208.5 -111.5q-134 0 -210 111.5t-76 281.5zM1016 373q0 -124 42.5 -192t110.5 -68q67 0 109.5 68t42.5 192t-42.5 192t-109.5 68q-68 0 -110.5 -68t-42.5 -192z" />
    <glyph glyph-name="ampersand" unicode="&#x26;" horiz-adv-x="1290" 
d="M883 1290q-42 42 -104 64t-130 22q-71 0 -129.5 -23.5t-92 -74.5t-21.5 -119q30 -168 561 -860q47 66 47 147q0 147 -103 240l127 115q76 -68 118 -159.5t42 -192.5q0 -173 -117 -299q59 -76 117 -150h-205q-2 2 -5 6t-5 6l-20 27q-2 2 -5.5 6t-5.5 6q-130 -71 -307 -71
q-241 0 -397 133t-156 336q0 131 67 242t185 177q-112 184 -123 287q-11 92 21.5 170t94 128t142 78t166.5 28q230 0 361 -125zM276 446q0 -68 31.5 -123t84 -89t118 -52t135.5 -18q107 0 191 37q-295 375 -400 526q-74 -42 -117 -113t-43 -168z" />
    <glyph glyph-name="quotesingle" unicode="'" horiz-adv-x="368" 
d="M123 819l-31 717h184l-30 -717h-123z" />
    <glyph glyph-name="parenleft" unicode="(" horiz-adv-x="645" 
d="M399 -307q-151 194 -229.5 442.5t-78.5 499.5t78.5 499.5t229.5 442.5h185q-151 -194 -229.5 -442.5t-78.5 -499.5t78.5 -499.5t229.5 -442.5h-185z" />
    <glyph glyph-name="parenright" unicode=")" horiz-adv-x="645" 
d="M246 -307h-185q151 194 229.5 442.5t78.5 499.5t-78.5 499.5t-229.5 442.5h185q151 -194 229.5 -442.5t78.5 -499.5t-78.5 -499.5t-229.5 -442.5z" />
    <glyph glyph-name="asterisk" unicode="*" horiz-adv-x="884" 
d="M371 819l24 279l-237 -150l-66 127l242 103l-242 102l66 127l237 -150l-24 279h143l-25 -279l238 150l66 -127l-242 -102l242 -103l-66 -127l-238 150l25 -279h-143z" />
    <glyph glyph-name="plus" unicode="+" horiz-adv-x="1003" 
d="M911 655h-338v-338h-143v338h-338v144h338v338h143v-338h338v-144z" />
    <glyph glyph-name="comma" unicode="," horiz-adv-x="389" 
d="M92 82q0 46 28.5 74t74.5 28t74 -28t28 -74q0 -27 -29 -98l-55 -134h-41l39 130q-119 0 -119 102z" />
    <glyph glyph-name="hyphen" unicode="-" horiz-adv-x="1003" 
d="M911 655h-819v144h819v-144z" />
    <glyph glyph-name="period" unicode="." horiz-adv-x="389" 
d="M92 82q0 46 28.5 74t74.5 28t74 -28t28 -74t-28 -74t-74 -28t-74.5 28t-28.5 74z" />
    <glyph glyph-name="slash" unicode="/" horiz-adv-x="763" 
d="M61 -41l471 1618h170l-471 -1618h-170z" />
    <glyph glyph-name="zero" unicode="0" horiz-adv-x="1290" 
d="M72 768q0 166 38.5 309t110 250t181 168t243.5 61q178 0 310 -106t198 -283t66 -399t-66 -399t-198 -283t-310 -106q-134 0 -243.5 61t-181 168t-110 250t-38.5 309zM256 768q0 -174 43 -308.5t132.5 -215t213.5 -80.5t213.5 80.5t132.5 215t43 308.5t-43 308.5
t-132.5 215t-213.5 80.5t-213.5 -80.5t-132.5 -215t-43 -308.5z" />
    <glyph glyph-name="one" unicode="1" horiz-adv-x="450" 
d="M174 0v1393h-102v143h286v-1536h-184z" />
    <glyph glyph-name="two" unicode="2" horiz-adv-x="1146" 
d="M1059 1192q27 -105 0 -192.5t-92 -151t-150 -119.5t-178.5 -112t-173.5 -115t-138 -141t-69 -177h817v-184h-1003v184q0 82 28.5 157.5t77 135t111 114.5t131 101t136.5 88.5t129 83.5t107.5 80t71.5 83t21 89q-9 115 -90 184.5t-197 69.5q-83 0 -171 -41t-165 -123
l-129 133q98 104 221.5 158.5t247.5 54.5q163 0 288 -92t169 -268z" />
    <glyph glyph-name="three" unicode="3" horiz-adv-x="1175" 
d="M551 -20q-152 0 -276.5 53t-202.5 147l133 139q55 -77 150 -118t200 -41q96 0 176.5 33t134.5 106t54 174q0 128 -120 208.5t-339 80.5h-205v164h295q40 0 78.5 7t76.5 23.5t66.5 40t46 60.5t17.5 82q0 97 -70 165t-215 68q-209 0 -320 -164l-122 131q60 102 176 159.5
t266 57.5q214 0 341.5 -116t127.5 -301q0 -177 -156 -287q240 -114 240 -379q0 -217 -151.5 -355t-401.5 -138z" />
    <glyph glyph-name="four" unicode="4" horiz-adv-x="1085" 
d="M51 625l819 911h123v-1536h-184v481h-758v144zM332 666h477v534z" />
    <glyph glyph-name="five" unicode="5" horiz-adv-x="1175" 
d="M152 741l79 795h768v-184h-600l-43 -426h105q173 0 297.5 -30t200 -89.5t110.5 -141.5t35 -192q0 -217 -151.5 -355t-401.5 -138q-152 0 -276.5 53t-202.5 147l133 139q55 -77 150 -118t200 -41q96 0 176.5 33t134.5 106t54 174q0 80 -28.5 133t-89.5 82.5t-141.5 41
t-199.5 11.5h-309z" />
    <glyph glyph-name="six" unicode="6" horiz-adv-x="1200" 
d="M920 1534v-186q-121 15 -227 -13.5t-179.5 -86t-127.5 -135.5t-80.5 -160t-29.5 -162q42 77 134 115t188 40q249 4 389.5 -125t140.5 -348q0 -220 -137.5 -356.5t-384.5 -136.5q-91 0 -168 22.5t-133.5 63.5t-101.5 98t-71 125.5t-42.5 146t-16.5 159.5t7 167
q13 125 49.5 237.5t105 216.5t161 177.5t228 112.5t296.5 28zM606 164q168 0 253 84.5t85 224.5q0 71 -26.5 127.5t-71.5 90.5t-100 51.5t-117 17.5q-75 0 -144.5 -24.5t-122 -71.5t-74 -114.5t0.5 -154.5q28 -105 111.5 -168t205.5 -63z" />
    <glyph glyph-name="seven" unicode="7" horiz-adv-x="1003" 
d="M346 0l410 1352h-705v184h901v-184l-409 -1352h-197z" />
    <glyph glyph-name="eight" unicode="8" horiz-adv-x="1249" 
d="M72 449q0 131 67 242t185 177q-79 55 -122.5 135.5t-43.5 174.5q0 170 131 274t336 104q206 0 337.5 -104t131.5 -274q0 -94 -44.5 -174.5t-123.5 -135.5q118 -66 185 -177t67 -242q0 -203 -156 -336t-397 -133t-397 133t-156 336zM342 1180q0 -75 42 -130t105.5 -80.5
t137.5 -25.5q114 0 198 62.5t84 173.5q0 91 -83.5 141.5t-198.5 50.5q-116 0 -200.5 -50.5t-84.5 -141.5zM256 446q0 -68 31.5 -123t84 -89t118 -52t135.5 -18q95 0 177 30.5t136.5 96t54.5 155.5q0 107 -54.5 184.5t-136.5 113.5t-177 36q-70 0 -135.5 -21.5t-118 -61.5
t-84 -105t-31.5 -146z" />
    <glyph glyph-name="nine" unicode="9" horiz-adv-x="1200" 
d="M281 2v186q121 -15 227 13.5t179.5 86t127 135.5t80 160t29.5 162q-42 -77 -134 -115t-188 -40q-249 -4 -389.5 125t-140.5 348q0 220 137.5 356.5t384.5 136.5q91 0 168 -22.5t133.5 -63.5t101.5 -98t71 -125.5t42.5 -146t16.5 -159.5t-7 -167q-13 -125 -49.5 -237.5
t-104.5 -216.5t-161 -177.5t-228 -112.5t-296 -28zM594 1372q-168 0 -253 -84.5t-85 -224.5q0 -71 26.5 -127.5t71.5 -90.5t100 -51.5t117 -17.5q75 0 144.5 24.5t122 71.5t74 114.5t-0.5 154.5q-28 105 -111.5 168t-205.5 63z" />
    <glyph glyph-name="colon" unicode=":" horiz-adv-x="389" 
d="M92 907q0 46 28.5 74.5t74.5 28.5t74 -28.5t28 -74.5t-28 -74t-74 -28t-74.5 28t-28.5 74zM92 164q0 46 28.5 74t74.5 28t74 -28t28 -74t-28 -74.5t-74 -28.5t-74.5 28.5t-28.5 74.5z" />
    <glyph glyph-name="semicolon" unicode=";" horiz-adv-x="389" 
d="M92 907q0 46 28.5 74.5t74.5 28.5t74 -28.5t28 -74.5t-28 -74t-74 -28t-74.5 28t-28.5 74zM92 162q0 46 28.5 74t74.5 28t74 -28t28 -74q0 -28 -29 -99l-55 -133h-41l39 129q-119 0 -119 103z" />
    <glyph glyph-name="less" unicode="&#x3c;" horiz-adv-x="972" 
d="M911 973l-579 -246l579 -246v-143l-819 348v82l819 348v-143z" />
    <glyph glyph-name="equal" unicode="=" horiz-adv-x="1024" 
d="M932 778h-840v144h840v-144zM932 532h-840v144h840v-144z" />
    <glyph glyph-name="greater" unicode="&#x3e;" horiz-adv-x="972" 
d="M61 481l580 246l-580 246v143l820 -348v-82l-820 -348v143z" />
    <glyph glyph-name="question" unicode="?" horiz-adv-x="1124" 
d="M838 1159q-25 93 -100 150t-177 57q-170 0 -342 -158l-127 131q99 103 221.5 156t247.5 53q115 0 213.5 -44t167 -134t84.5 -213q10 -83 -9.5 -149t-59.5 -110.5t-90.5 -82.5t-103 -76t-96.5 -80t-72 -106t-28 -143h-184q0 104 29 188t74 137t99 97t105 77.5t90 68t56 80
t2 101.5zM377 82q0 46 28 74t74 28t74.5 -28t28.5 -74t-28.5 -74t-74.5 -28t-74 28t-28 74z" />
    <glyph glyph-name="at" unicode="@" horiz-adv-x="2111" 
d="M1577 -72l100 -106q-255 -191 -622 -191q-220 0 -400.5 70.5t-304 198t-191 310.5t-67.5 404t67.5 404t191 310.5t304 198t400.5 70.5q294 0 512.5 -121.5t334.5 -344t115 -517.5q-1 -151 -29.5 -267t-76 -184t-104.5 -102t-119 -34q-90 0 -166 64.5t-109 176.5
q-125 -280 -463 -243q-220 23 -345.5 181t-125.5 398q0 239 125.5 398t343.5 182q160 18 270.5 -37.5t174.5 -167.5v178h163v-731q0 -114 43 -185t101 -71q69 0 121 111.5t53 332.5q3 383 -218.5 611.5t-600.5 228.5q-251 0 -437 -104t-284 -293.5t-98 -442.5t98 -442.5
t284 -293t437 -103.5q305 0 522 153zM1393 604q0 190 -97.5 305t-277.5 115t-277.5 -115t-97.5 -305t97.5 -305t277.5 -115t277.5 115t97.5 305z" />
    <glyph glyph-name="A" unicode="A" 
d="M1081 0l-170 471h-491l-170 -471h-199l553 1536h123l553 -1536h-199zM471 614h389l-194 539z" />
    <glyph glyph-name="B" unicode="B" horiz-adv-x="1292" 
d="M92 1536h658q107 0 192.5 -40t137 -103.5t77.5 -146t21.5 -165t-38 -162t-93.5 -135.5q54 -38 93 -93.5t58.5 -117t21 -129t-14 -131t-50.5 -120.5t-85 -100t-122 -68t-157 -25h-699v1536zM750 860q59 0 106.5 21t77 55.5t45 79t15.5 90.5t-16 90.5t-45 79t-76.5 55.5
t-106.5 21h-474v-492h474zM791 184q59 0 106.5 21t77 55.5t45 79t15.5 90.5t-16 90.5t-45 79t-76.5 55.5t-106.5 21h-515v-492h515z" />
    <glyph glyph-name="C" unicode="C" horiz-adv-x="1378" 
d="M1182 336l125 -137q-96 -105 -228.5 -162t-290.5 -57q-161 0 -295.5 59t-226.5 163.5t-143 250t-51 315.5t51 315.5t143 250t226.5 163.5t295.5 59q158 0 290.5 -57t228.5 -162l-125 -137q-145 172 -394 172q-243 0 -387.5 -166t-144.5 -438t144.5 -438t387.5 -166
q249 0 394 172z" />
    <glyph glyph-name="D" unicode="D" 
d="M92 0v1536h420q171 0 311 -55.5t236 -155.5t148.5 -242.5t52.5 -314.5t-52.5 -314.5t-148.5 -242.5t-236 -155.5t-311 -55.5h-420zM276 184h236q272 0 417.5 156.5t145.5 427.5t-145.5 427.5t-417.5 156.5h-236v-1168z" />
    <glyph glyph-name="E" unicode="E" horiz-adv-x="1286" 
d="M92 0v1536h1106v-184h-922v-492h717v-184h-717v-492h922v-184h-1106z" />
    <glyph glyph-name="F" unicode="F" horiz-adv-x="1286" 
d="M92 0v1536h1106v-184h-922v-492h717v-184h-717v-676h-184z" />
    <glyph glyph-name="G" unicode="G" horiz-adv-x="1536" 
d="M670 676v184h794v-92q0 -230 -77 -406.5t-231.5 -279t-367.5 -102.5q-161 0 -295.5 59t-226.5 163.5t-143 250t-51 315.5t51 315.5t143 250t226.5 163.5t295.5 59q158 0 290.5 -57t228.5 -162l-125 -137q-145 172 -394 172q-243 0 -387.5 -166t-144.5 -438t144.5 -438
t387.5 -166q217 0 342 137t146 375h-606z" />
    <glyph glyph-name="H" unicode="H" horiz-adv-x="1351" 
d="M92 0v1536h184v-676h799v676h185v-1536h-185v676h-799v-676h-184z" />
    <glyph glyph-name="I" unicode="I" horiz-adv-x="368" 
d="M92 0v1536h184v-1536h-184z" />
    <glyph glyph-name="J" unicode="J" horiz-adv-x="813" 
d="M61 86l125 139q53 -59 152 -59q90 0 144.5 52t54.5 144v1174h184v-1174q0 -170 -106.5 -276t-276.5 -106q-171 0 -277 106z" />
    <glyph glyph-name="K" unicode="K" horiz-adv-x="1320" 
d="M92 0v1536h184v-662l738 662h246l-670 -606l670 -930h-226l-581 805l-177 -160v-645h-184z" />
    <glyph glyph-name="L" unicode="L" horiz-adv-x="1286" 
d="M92 0v1536h184v-1352h922v-184h-1106z" />
    <glyph glyph-name="M" unicode="M" horiz-adv-x="1589" 
d="M92 0v1536h123l580 -827l579 827h123v-1536h-184v1110l-508 -700h-21l-508 700v-1110h-184z" />
    <glyph glyph-name="N" unicode="N" horiz-adv-x="1351" 
d="M92 0v1536h123l860 -1145v1145h185v-1536h-123l-861 1143v-1143h-184z" />
    <glyph glyph-name="O" unicode="O" horiz-adv-x="1576" 
d="M72 768q0 170 51 315.5t143 250t226.5 163.5t295.5 59q214 0 378 -101.5t251.5 -280t87.5 -406.5t-87.5 -406.5t-251.5 -280t-378 -101.5q-161 0 -295.5 59t-226.5 163.5t-143 250t-51 315.5zM256 768q0 -272 144.5 -438t387.5 -166t388 166t145 438t-145 438t-388 166
t-387.5 -166t-144.5 -438z" />
    <glyph glyph-name="P" unicode="P" horiz-adv-x="1280" 
d="M92 1536h692q194 0 309 -123.5t115 -322.5q0 -198 -115 -321.5t-309 -123.5h-508v-645h-184v1536zM784 829q118 0 179 71t61 190q0 120 -61 191t-179 71h-508v-523h508z" />
    <glyph glyph-name="Q" unicode="Q" horiz-adv-x="1576" 
d="M918 -248l-107 228h-23q-161 0 -295.5 59t-226.5 163.5t-143 250t-51 315.5t51 315.5t143 250t226.5 163.5t295.5 59q214 0 378 -101.5t251.5 -280t87.5 -406.5q0 -290 -140 -495.5t-382 -268.5l119 -252h-184zM256 768q0 -252 126 -414.5t341 -185.5l-111 233h185
l106 -227q193 38 305.5 198t112.5 396q0 272 -145 438t-388 166t-387.5 -166t-144.5 -438z" />
    <glyph glyph-name="R" unicode="R" horiz-adv-x="1290" 
d="M1034 0l-297 645h-461v-645h-184v1536h692q194 0 309 -123.5t115 -322.5q0 -161 -78 -275.5t-215 -152.5l304 -662h-185zM784 829q118 0 179 71t61 190q0 120 -61 191t-179 71h-508v-523h508z" />
    <glyph glyph-name="S" unicode="S" 
d="M74 1102q17 217 178 335.5t444 118.5q194 0 328.5 -54.5t235.5 -162.5l-134 -139q-94 87 -192 129.5t-238 42.5q-187 0 -297 -63t-131 -170q-8 -44 0.5 -79.5t42 -63.5t62.5 -46t94.5 -37.5t101.5 -28.5t119 -27q81 -18 123.5 -28t116 -32t113.5 -42.5t91 -54.5t75.5 -72
t40 -92t9.5 -118q-21 -210 -174 -324t-428 -114q-379 0 -583 217l133 139q91 -84 199 -128t251 -44q179 0 279.5 58.5t126.5 162.5q14 57 -6 101t-65 71.5t-109 51t-139 39t-155 36t-157 40.5t-144 53.5t-116.5 75t-75.5 105.5t-20 144z" />
    <glyph glyph-name="T" unicode="T" horiz-adv-x="1290" 
d="M61 1536h1168v-184h-492v-1352h-184v1352h-492v184z" />
    <glyph glyph-name="U" unicode="U" horiz-adv-x="1249" 
d="M993 563v973h185v-973q0 -112 -31 -207.5t-84 -162.5t-124 -114.5t-150.5 -70t-163.5 -22.5t-163.5 22.5t-150.5 70t-124 114.5t-84 162.5t-31 207.5v973h184v-973q0 -95 31.5 -171.5t84 -124t118 -72.5t135.5 -25t135 25t117.5 72.5t84 124t31.5 171.5z" />
    <glyph glyph-name="V" unicode="V" 
d="M1081 1536h199l-553 -1536h-123l-553 1536h199l416 -1153z" />
    <glyph glyph-name="W" unicode="W" horiz-adv-x="2285" 
d="M1081 1536h123l416 -1153l416 1153h198l-553 -1536h-122l-416 1155l-416 -1155h-123l-553 1536h199l416 -1153z" />
    <glyph glyph-name="X" unicode="X" 
d="M51 0l504 768l-504 768h221l394 -600l393 600h221l-504 -768l504 -768h-221l-393 600l-394 -600h-221z" />
    <glyph glyph-name="Y" unicode="Y" 
d="M573 645l-522 891h205l410 -696l409 696h205l-522 -891v-645h-185v645z" />
    <glyph glyph-name="Z" unicode="Z" horiz-adv-x="1269" 
d="M82 184l879 1168h-879v184h1106v-184l-879 -1168h879v-184h-1106v184z" />
    <glyph glyph-name="bracketleft" unicode="[" horiz-adv-x="542" 
d="M92 -307v1884h389v-143h-205v-1598h205v-143h-389z" />
    <glyph glyph-name="backslash" unicode="\" horiz-adv-x="763" 
d="M231 1577l471 -1618h-170l-471 1618h170z" />
    <glyph glyph-name="bracketright" unicode="]" horiz-adv-x="542" 
d="M451 1577v-1884h-390v143h205v1598h-205v143h390z" />
    <glyph glyph-name="asciicircum" unicode="^" horiz-adv-x="839" 
d="M92 819l287 717h82l287 -717h-144l-184 459l-184 -459h-144z" />
    <glyph glyph-name="underscore" unicode="_" horiz-adv-x="1374" 
d="M1280 -80h-1188v143h1188v-143z" />
    <glyph glyph-name="grave" unicode="`" horiz-adv-x="520" 
d="M428 1171h-84l-252 345v20h184l152 -344v-21z" />
    <glyph glyph-name="a" unicode="a" horiz-adv-x="1241" 
d="M522 760q153 0 252 -60.5t160 -179.5v10l2 23q0 125 -38 219.5t-124 152.5t-213 58q-182 0 -278 -117l-113 121q147 160 391 160q166 0 289 -75.5t186.5 -207.5t63.5 -301q0 -183 -74 -319q36 -94 92 -80v-164q-39 -9 -83 5t-81 50q-26 27 -39 49q-139 -124 -354 -124
q-134 0 -242.5 50.5t-172.5 145t-64 215.5q0 116 65.5 202t163.5 126.5t211 40.5zM854 276q-11 43 -18.5 66t-22.5 61.5t-29.5 60.5t-40 49.5t-55 43t-71.5 26.5t-93 13q-66 2 -127 -17.5t-106 -68.5t-45 -117q0 -114 89 -182t226 -68q193 0 293 133z" />
    <glyph glyph-name="b" unicode="b" horiz-adv-x="1241" 
d="M92 0v1536h164v-598q136 240 444 205q218 -23 343.5 -182t125.5 -398q0 -240 -125.5 -398t-345.5 -181q-314 -35 -446 211l-68 -195h-92zM256 563q0 -190 97.5 -305t277.5 -115t277.5 115t97.5 305t-97.5 305t-277.5 115t-277.5 -115t-97.5 -305z" />
    <glyph glyph-name="c" unicode="c" horiz-adv-x="1062" 
d="M889 260l112 -121q-146 -159 -391 -159q-166 0 -289 75.5t-186 207t-63 300.5t63 301t186 207.5t289 75.5q244 0 391 -160l-112 -121q-96 117 -279 117q-180 0 -277 -115t-97 -305t97 -305t277 -115q183 0 279 117z" />
    <glyph glyph-name="d" unicode="d" horiz-adv-x="1241" 
d="M1149 0h-92l-68 195q-132 -246 -446 -211q-220 23 -345.5 181t-125.5 398q0 239 125.5 398t343.5 182q308 35 444 -205v598h164v-1536zM985 563q0 190 -97.5 305t-277.5 115t-277 -115t-97 -305t97 -305t277 -115t277.5 115t97.5 305z" />
    <glyph glyph-name="uniE004" unicode="e" horiz-adv-x="1202" 
d="M889 260l112 -121q-146 -159 -391 -159q-166 0 -289 75.5t-186 207t-63 300.5t63 301t186 207.5t289 75.5q134 0 243 -50.5t173 -145.5t64 -216q0 -88 -38 -159.5t-101 -116t-140.5 -68.5t-161.5 -24q-280 0 -413 233v-37q0 -190 97 -305t277 -115q183 0 279 117z
M610 983q-123 0 -208.5 -55t-127.5 -154q17 -89 74.5 -145.5t131 -77.5t167.5 -21q49 0 96 12t89 35t68 63.5t26 92.5q0 114 -89.5 182t-226.5 68z" />
    <glyph glyph-name="f" unicode="f" horiz-adv-x="845" 
d="M774 1460l-119 -119q-49 52 -133 52q-83 0 -133.5 -51t-50.5 -134v-82h307v-163h-307v-963h-164v963h-102v163h102v82q0 157 95.5 252.5t252.5 95.5q159 0 252 -96z" />
    <glyph glyph-name="g" unicode="g" horiz-adv-x="1236" 
d="M985 104v82q-131 -237 -442 -202q-220 23 -345.5 181t-125.5 398q0 239 125.5 398t343.5 182q163 18 274.5 -39t173.5 -172l68 194h92v-1022q0 -227 -129 -370.5t-348 -143.5q-214 0 -346 142l112 121q86 -99 234 -99t230.5 96.5t82.5 253.5zM985 563q0 190 -97.5 305
t-277.5 115t-277 -115t-97 -305t97 -305t277 -115t277.5 115t97.5 305z" />
    <glyph glyph-name="h" unicode="h" horiz-adv-x="1122" 
d="M92 0v1536h164v-553q103 164 309 164q210 0 339.5 -133.5t129.5 -345.5v-668h-164v668q0 138 -85 226.5t-220 88.5q-138 0 -223.5 -88.5t-85.5 -226.5v-668h-164z" />
    <glyph glyph-name="i" unicode="i" horiz-adv-x="348" 
d="M92 1358q0 37 22.5 59.5t59.5 22.5t59.5 -22.5t22.5 -59.5t-22.5 -59.5t-59.5 -22.5t-59.5 22.5t-22.5 59.5zM92 0v1126h164v-1126h-164z" />
    <glyph glyph-name="j" unicode="j" horiz-adv-x="344" 
d="M92 1358q0 37 22.5 59.5t59.5 22.5t59.5 -22.5t22.5 -59.5t-22.5 -59.5t-59.5 -22.5t-59.5 22.5t-22.5 59.5zM-31 -410v164q75 0 99 45.5t24 139.5v1187h164v-1187q0 -349 -287 -349z" />
    <glyph glyph-name="k" unicode="k" horiz-adv-x="1054" 
d="M92 0v1536h164v-989l506 579h211l-404 -462l424 -664h-194l-342 535l-201 -232v-303h-164z" />
    <glyph glyph-name="l" unicode="l" horiz-adv-x="348" 
d="M92 0v1536h164v-1536h-164z" />
    <glyph glyph-name="m" unicode="m" horiz-adv-x="1736" 
d="M92 1126h92l52 -147q87 168 288 168q138 0 235 -62t146 -172q76 234 316 234q205 0 316.5 -131t111.5 -348v-668h-164v668q0 143 -66.5 229t-197.5 86q-134 0 -201.5 -86t-67.5 -229v-668h-164v668q0 143 -66.5 229t-197.5 86q-134 0 -201 -85.5t-67 -229.5v-668h-164
v1126z" />
    <glyph glyph-name="n" unicode="n" horiz-adv-x="1122" 
d="M92 1126h92l58 -165q104 186 323 186q210 0 339.5 -133.5t129.5 -345.5v-668h-164v668q0 138 -85 226.5t-220 88.5q-138 0 -223.5 -88.5t-85.5 -226.5v-668h-164v1126z" />
    <glyph glyph-name="o" unicode="o" horiz-adv-x="1220" 
d="M72 563q0 169 63 301t186 207.5t289 75.5t289 -75.5t186.5 -207.5t63.5 -301t-63.5 -300.5t-186.5 -207t-289 -75.5t-289 75.5t-186 207t-63 300.5zM236 563q0 -190 97 -305t277 -115t277.5 115t97.5 305t-97.5 305t-277.5 115t-277 -115t-97 -305z" />
    <glyph glyph-name="p" unicode="p" horiz-adv-x="1241" 
d="M92 1126h92l68 -194q62 115 173.5 172t274.5 39q218 -23 343.5 -182t125.5 -398q0 -240 -125.5 -398t-345.5 -181q-311 -35 -442 202v-596h-164v1536zM256 563q0 -190 97.5 -305t277.5 -115t277.5 115t97.5 305t-97.5 305t-277.5 115t-277.5 -115t-97.5 -305z" />
    <glyph glyph-name="q" unicode="q" horiz-adv-x="1241" 
d="M1149 1126v-1536h-164v596q-131 -237 -442 -202q-220 23 -345.5 181t-125.5 398q0 239 125.5 398t343.5 182q163 18 274.5 -39t173.5 -172l68 194h92zM985 563q0 190 -97.5 305t-277.5 115t-277 -115t-97 -305t97 -305t277 -115t277.5 115t97.5 305z" />
    <glyph glyph-name="r" unicode="r" horiz-adv-x="761" 
d="M92 1126h92l58 -165q104 186 323 186q65 0 135 -17l-32 -163q-50 16 -103 16q-138 0 -223.5 -88.5t-85.5 -226.5v-668h-164v1126z" />
    <glyph glyph-name="s" unicode="s" horiz-adv-x="1071" 
d="M825 289q16 34 -14 65t-92 56.5t-141 51t-163.5 55t-156.5 62.5t-122 78.5t-58 98.5q-15 95 18.5 171t102 123t157.5 72t189 25q133 0 253.5 -43t194.5 -125l-112 -123q-57 63 -145.5 95t-184.5 32q-107 0 -192 -36.5t-111 -98.5q-17 -41 27.5 -78t124.5 -64.5t178.5 -62
t187 -68.5t153 -85.5t74.5 -110.5q16 -95 -17.5 -171t-101.5 -123t-157 -72t-189 -25q-134 0 -255 43t-195 125l110 120q149 -124 344 -124q103 0 184 38t109 99z" />
    <glyph glyph-name="t" unicode="t" horiz-adv-x="743" 
d="M563 195l119 -119q-93 -96 -252 -96q-157 0 -252.5 95.5t-95.5 252.5v1024h164v-226h286v-163h-286v-635q0 -83 50.5 -134t133.5 -51q84 0 133 52z" />
    <glyph glyph-name="u" unicode="u" horiz-adv-x="1122" 
d="M1030 0h-92l-57 166q-104 -186 -324 -186q-210 0 -339.5 133.5t-129.5 345.5v667h164v-667q0 -138 85 -227t220 -89q138 0 223.5 89t85.5 227v667h164v-1126z" />
    <glyph glyph-name="v" unicode="v" horiz-adv-x="1126" 
d="M522 0l-471 1126h185l327 -782l328 782h184l-471 -1126h-82z" />
    <glyph glyph-name="w" unicode="w" horiz-adv-x="1863" 
d="M522 0l-471 1126h185l327 -782l328 782h82l327 -782l328 782h184l-471 -1126h-81l-328 784l-328 -784h-82z" />
    <glyph glyph-name="x" unicode="x" horiz-adv-x="1177" 
d="M911 0l-321 422l-324 -422h-215l430 563l-430 563h215l324 -421l321 421h215l-430 -563l430 -563h-215z" />
    <glyph glyph-name="y" unicode="y" horiz-adv-x="1126" 
d="M248 -410l223 533l-420 1003h185l327 -782l328 782h184l-471 -1124v-2l-172 -410h-184z" />
    <glyph glyph-name="z" unicode="z" horiz-adv-x="1105" 
d="M82 164l717 799h-717v163h942v-163l-717 -799h717v-164h-942v164z" />
    <glyph glyph-name="braceleft" unicode="{" horiz-adv-x="747" 
d="M297 436q0 59 -36 94.5t-97 38.5l-72 4v123l72 4q61 3 97 39t36 95v446q0 134 81.5 215.5t215.5 81.5h92v-143h-72q-60 0 -96.5 -37t-36.5 -97v-450q0 -78 -47.5 -137t-122.5 -74v-8q75 -15 122.5 -74t47.5 -137v-451q0 -60 36.5 -96.5t96.5 -36.5h72v-143h-92
q-134 0 -215.5 81.5t-81.5 215.5v446z" />
    <glyph glyph-name="bar" unicode="|" horiz-adv-x="368" 
d="M92 -410v2007h184v-2007h-184z" />
    <glyph glyph-name="braceright" unicode="}" horiz-adv-x="747" 
d="M451 834q0 -59 36 -95t97 -39l71 -4v-123l-71 -4q-61 -3 -97 -38.5t-36 -94.5v-446q0 -134 -81.5 -215.5t-215.5 -81.5h-93v143h72q60 0 96.5 36.5t36.5 96.5v451q0 78 47.5 137t122.5 74v8q-75 15 -122.5 74t-47.5 137v450q0 60 -36.5 97t-96.5 37h-72v143h93
q134 0 215.5 -81.5t81.5 -215.5v-446z" />
    <glyph glyph-name="asciitilde" unicode="~" horiz-adv-x="1003" 
d="M387 715q-56 16 -88 16q-42 0 -63 -21t-21 -55h-123q0 38 11 75t33.5 71t62.5 55t92 21q27 0 59.5 -5t75.5 -17t65 -18.5t72 -23.5t53 -18q60 -17 89 -17q42 0 62.5 21t20.5 55h123q0 -38 -11 -75t-33 -70.5t-62 -54.5t-92 -21q-33 0 -83 10.5t-83 20t-92 29t-68 22.5z
" />
    <glyph glyph-name="uni00A0" unicode="&#xa0;" horiz-adv-x="655" 
 />
    <glyph glyph-name="exclamdown" unicode="&#xa1;" horiz-adv-x="389" 
d="M297 1028q0 -46 -28 -74t-74 -28t-74.5 28t-28.5 74t28.5 74t74.5 28t74 -28t28 -74zM256 700l31 -1126h-185l31 1126h123z" />
    <glyph glyph-name="cent" unicode="&#xa2;" horiz-adv-x="1062" 
d="M518 -264v248q-209 30 -327.5 187.5t-118.5 389.5q0 233 118.5 390.5t327.5 187.5v247h144v-243q209 -15 339 -158l-112 -121q-85 100 -227 115v-836q142 15 227 115l112 -121q-130 -142 -339 -157v-244h-144zM518 150v823q-137 -29 -209.5 -139t-72.5 -273t72.5 -272.5
t209.5 -138.5z" />
    <glyph glyph-name="sterling" unicode="&#xa3;" horiz-adv-x="1187" 
d="M1096 184v-184h-1004v184h21q58 0 90.5 38t32.5 100v319h-123v143h123v312q0 111 35 201t94 147.5t133 88t155 30.5q111 0 213.5 -57.5t167.5 -166.5l-129 -133q-44 85 -107.5 127.5t-133.5 42.5q-99 0 -171.5 -73t-72.5 -187v-332h471v-143h-471v-303q0 -125 -82 -154
h758z" />
    <glyph glyph-name="yen" unicode="&#xa5;" 
d="M1085 461h-327v-103h327v-143h-327v-215h-185v215h-327v143h327v103h-327v143h327v41l-522 891h205l410 -696l409 696h205l-522 -891v-41h327v-143z" />
    <glyph glyph-name="section" unicode="&#xa7;" horiz-adv-x="1112" 
d="M846 289q19 40 -25 76t-124 63t-179.5 61t-189.5 68t-155 86t-75 113q-28 169 101 278q-90 61 -101 131q-15 95 18.5 171t102 123t157.5 72t189 25q134 0 254.5 -42.5t194.5 -124.5l-113 -123q-57 63 -145.5 95t-184.5 32q-107 0 -192 -37t-111 -99q-17 -41 27.5 -78
t124.5 -64.5t178.5 -62t187.5 -68.5t153.5 -85.5t74.5 -110.5q28 -171 -101 -280q90 -61 101 -129q16 -95 -17.5 -171t-101.5 -123t-157 -72t-189 -25q-135 0 -256 43t-195 125l111 120q149 -124 344 -124q103 0 184 38t109 99zM846 698q13 28 -1.5 53t-70 51t-94.5 40.5
t-131 44.5q-115 38 -170 59q-84 -36 -111 -98q-12 -29 3 -54.5t72 -53t95 -41.5t132 -46q108 -37 161 -57q90 42 115 102z" />
    <glyph glyph-name="dieresis" unicode="&#xa8;" horiz-adv-x="655" 
d="M92 1274q0 46 29 74t76 28q44 0 72 -28t28 -74q0 -47 -28 -76t-72 -29q-47 0 -76 29t-29 76zM358 1274q0 46 29 74t76 28q44 0 72 -28t28 -74q0 -47 -28 -76t-72 -29q-47 0 -76 29t-29 76z" />
    <glyph glyph-name="copyright" unicode="&#xa9;" horiz-adv-x="1372" 
d="M92 768q0 267 163.5 430.5t430.5 163.5t430.5 -163.5t163.5 -430.5t-163.5 -430.5t-430.5 -163.5t-430.5 163.5t-163.5 430.5zM174 768q0 -230 141 -371t371 -141t371 141t141 371t-141 371t-371 141t-371 -141t-141 -371zM930 471q-101 -115 -271 -115
q-169 0 -271.5 115t-102.5 297t102.5 297t271.5 115q172 0 271 -113l-64 -74q-77 90 -207 90q-127 0 -202.5 -86.5t-75.5 -228.5t75.5 -228.5t202.5 -86.5q130 0 207 90z" />
    <glyph glyph-name="ordfeminine" unicode="&#xaa;" horiz-adv-x="1099" 
d="M1008 565h-78l-58 166q-110 -208 -378 -180q-186 20 -293 154.5t-107 336.5q0 203 107 337.5t293 154.5q261 28 374 -174v160h140v-955zM868 1042q0 162 -82 259.5t-235 97.5q-152 0 -235 -98t-83 -259t83 -258.5t235 -97.5q153 0 235 97t82 259z" />
    <glyph glyph-name="guillemotleft" unicode="&#xab;" horiz-adv-x="1193" 
d="M682 932l-393 -205l393 -205v-143l-590 307v82l590 307v-143zM1133 932l-394 -205l394 -205v-143l-590 307v82l590 307v-143z" />
    <glyph glyph-name="uni00AD" unicode="&#xad;" horiz-adv-x="1003" 
d="M911 655h-819v144h819v-144z" />
    <glyph glyph-name="registered" unicode="&#xae;" horiz-adv-x="1372" 
d="M92 768q0 267 163.5 430.5t430.5 163.5t430.5 -163.5t163.5 -430.5t-163.5 -430.5t-430.5 -163.5t-430.5 163.5t-163.5 430.5zM174 768q0 -230 141 -371t371 -141t371 141t141 371t-141 371t-371 141t-371 -141t-141 -371zM864 408l-139 303h-217v-303h-86v720h326
q91 0 144.5 -57.5t53.5 -150.5q0 -75 -36.5 -128.5t-100.5 -72.5l143 -311h-88zM748 797q55 0 83.5 33.5t28.5 89.5t-28.5 89t-83.5 33h-240v-245h240z" />
    <glyph glyph-name="macron" unicode="&#xaf;" horiz-adv-x="712" 
d="M621 1264h-529v100h529v-100z" />
    <glyph glyph-name="degree" unicode="&#xb0;" horiz-adv-x="690" 
d="M92 1300q0 105 73.5 179.5t180.5 74.5q104 0 178 -75t74 -179q0 -106 -74 -181t-178 -75q-107 0 -180.5 75t-73.5 181zM236 1300q0 -49 31 -80.5t79 -31.5q47 0 78 31.5t31 80.5t-31 81t-78 32t-78.5 -32t-31.5 -81z" />
    <glyph glyph-name="plusminus" unicode="&#xb1;" horiz-adv-x="1003" 
d="M911 655h-338v-338h-143v338h-338v144h338v338h143v-338h338v-144zM911 92h-819v144h819v-144z" />
    <glyph glyph-name="twosuperior" unicode="&#xb2;" horiz-adv-x="804" 
d="M707 1294q16 -57 4 -106t-41.5 -83.5t-73.5 -68.5t-92 -61t-97.5 -60t-90 -65.5t-69 -78t-34.5 -97.5h504v-115h-619v115q0 64 28.5 121.5t73.5 100t99.5 81.5t108.5 72t98.5 64t70.5 65t23 69q-6 71 -56 114.5t-122 43.5q-113 0 -207 -100l-80 81q60 63 137.5 97.5
t153.5 34.5q100 0 177 -57.5t104 -166.5z" />
    <glyph glyph-name="threesuperior" unicode="&#xb3;" horiz-adv-x="831" 
d="M397 539q-94 0 -172.5 33.5t-126.5 91.5l82 88q36 -48 95 -74.5t124 -26.5q95 0 162.5 51t67.5 144q0 79 -76 130.5t-211 51.5h-129v102h184q70 0 124 33.5t54 100.5q0 61 -43.5 103t-134.5 42q-131 0 -198 -102l-78 82q37 63 110 99t166 36q133 0 213 -72.5t80 -187.5
q0 -114 -96 -181q149 -72 149 -237q0 -134 -95 -220.5t-251 -86.5z" />
    <glyph glyph-name="acute" unicode="&#xb4;" horiz-adv-x="520" 
d="M92 1171v21l152 344h184v-20l-252 -345h-84z" />
    <glyph glyph-name="periodcentered" unicode="&#xb7;" horiz-adv-x="512" 
d="M92 727q0 82 44.5 132t119.5 50t119.5 -50t44.5 -132q0 -83 -44.5 -133.5t-119.5 -50.5t-119.5 50.5t-44.5 133.5z" />
    <glyph glyph-name="cedilla" unicode="&#xb8;" horiz-adv-x="503" 
d="M92 -360l62 63q29 -29 69 -29q42 0 69 28t27 71t-26.5 70.5t-69.5 27.5h-49l41 143h86l-18 -63q57 -19 93 -68t36 -110q0 -78 -54.5 -133.5t-132.5 -55.5q-77 0 -133 56z" />
    <glyph glyph-name="onesuperior" unicode="&#xb9;" horiz-adv-x="364" 
d="M166 553v862h-64v88h177v-950h-113z" />
    <glyph glyph-name="ordmasculine" unicode="&#xba;" horiz-adv-x="1107" 
d="M96 1036q0 221 124 360.5t337 139.5t337 -139.5t124 -360.5q0 -222 -124 -360.5t-337 -138.5t-337 138.5t-124 360.5zM236 1036q0 -163 83.5 -261.5t237.5 -98.5q153 0 236.5 98.5t83.5 261.5q0 161 -83.5 260t-236.5 99q-154 0 -237.5 -98.5t-83.5 -260.5z" />
    <glyph glyph-name="guillemotright" unicode="&#xbb;" horiz-adv-x="1193" 
d="M905 727l-393 205v143l590 -307v-82l-590 -307v143zM455 727l-394 205v143l590 -307v-82l-590 -307v143z" />
    <glyph glyph-name="questiondown" unicode="&#xbf;" horiz-adv-x="1124" 
d="M748 1024q0 -46 -28.5 -74t-74.5 -28t-74 28t-28 74t28 74t74 28t74.5 -28t28.5 -74zM287 -53q25 -93 99.5 -150t176.5 -57q170 0 342 158l127 -131q-99 -103 -221.5 -156t-247.5 -53q-115 0 -213.5 44t-167 134t-84.5 213q-10 83 9.5 149t59.5 110.5t90.5 82.5t103 76
t96.5 80t72 106t28 143h184q0 -104 -29 -188t-74 -137t-99 -97t-104.5 -77.5t-89.5 -68t-56 -80t-2 -101.5z" />
    <glyph glyph-name="Agrave" unicode="&#xc0;" 
d="M813 1642h-84l-252 345v20h185l151 -344v-21zM1081 0l-170 471h-491l-170 -471h-199l553 1536h123l553 -1536h-199zM471 614h389l-194 539z" />
    <glyph glyph-name="Aacute" unicode="&#xc1;" 
d="M518 1642v21l152 344h184v-20l-252 -345h-84zM1081 0l-170 471h-491l-170 -471h-199l553 1536h123l553 -1536h-199zM471 614h389l-194 539z" />
    <glyph glyph-name="Acircumflex" unicode="&#xc2;" 
d="M621 2007h92l252 -344v-21h-82l-215 220l-217 -220h-82v21zM1081 0l-170 471h-491l-170 -471h-199l553 1536h123l553 -1536h-199zM471 614h389l-194 539z" />
    <glyph glyph-name="Atilde" unicode="&#xc3;" 
d="M584 1692q-41 12 -64 12q-61 0 -61 -55h-90q0 61 36.5 111t108.5 50q31 0 71 -9.5t101 -30t64 -21.5q38 -12 63 -12q64 0 64 57h88q0 -62 -36.5 -112t-107.5 -50q-25 0 -61.5 7.5t-60.5 15t-66 21.5t-49 16zM1081 0l-170 471h-491l-170 -471h-199l553 1536h123l553 -1536
h-199zM471 614h389l-194 539z" />
    <glyph glyph-name="Adieresis" unicode="&#xc4;" 
d="M430 1745q0 46 29 74t76 28q44 0 72 -28t28 -74q0 -47 -28 -76t-72 -29q-47 0 -76 29t-29 76zM696 1745q0 46 29 74t76 28q44 0 72 -28t28 -74q0 -47 -28 -76t-72 -29q-47 0 -76 29t-29 76zM1081 0l-170 471h-491l-170 -471h-199l553 1536h123l553 -1536h-199zM471 614
h389l-194 539z" />
    <glyph glyph-name="Aring" unicode="&#xc5;" 
d="M1081 0l-170 471h-491l-170 -471h-199l549 1524q-82 22 -134 90.5t-52 157.5q0 105 73.5 179t180.5 74q104 0 178 -74.5t74 -178.5q0 -88 -53 -157t-136 -91l549 -1524h-199zM537 1772q0 -58 37 -96t94 -38t93 37.5t36 96.5t-36 96t-93 37t-94 -37.5t-37 -95.5zM471 614
h389l-194 539z" />
    <glyph glyph-name="AE" unicode="&#xc6;" horiz-adv-x="2156" 
d="M262 0h-211l885 1536h1132v-184h-921v-492h717v-184h-717v-492h921v-184h-1105v471h-428zM616 614h347v598z" />
    <glyph glyph-name="Ccedilla" unicode="&#xc7;" horiz-adv-x="1378" 
d="M1182 336l125 -137q-92 -102 -220.5 -159t-281.5 -60l-8 -31q57 -19 93 -68t36 -110q0 -78 -54.5 -133.5t-132.5 -55.5q-77 0 -133 56l62 63q29 -29 69 -29q43 0 70 28t27 71t-27 70.5t-70 27.5h-49l33 113q-295 25 -472 242t-177 544q0 170 51 315.5t143 250
t226.5 163.5t295.5 59q158 0 290.5 -57t228.5 -162l-125 -137q-145 172 -394 172q-243 0 -387.5 -166t-144.5 -438t144.5 -438t387.5 -166q249 0 394 172z" />
    <glyph glyph-name="Egrave" unicode="&#xc8;" horiz-adv-x="1286" 
d="M811 1642h-84l-252 345v20h184l152 -344v-21zM92 0v1536h1106v-184h-922v-492h717v-184h-717v-492h922v-184h-1106z" />
    <glyph glyph-name="Eacute" unicode="&#xc9;" horiz-adv-x="1286" 
d="M475 1642v21l152 344h184v-20l-252 -345h-84zM92 0v1536h1106v-184h-922v-492h717v-184h-717v-492h922v-184h-1106z" />
    <glyph glyph-name="Ecircumflex" unicode="&#xca;" horiz-adv-x="1286" 
d="M598 2007h92l252 -344v-21h-82l-215 220l-217 -220h-82v21zM92 0v1536h1106v-184h-922v-492h717v-184h-717v-492h922v-184h-1106z" />
    <glyph glyph-name="Edieresis" unicode="&#xcb;" horiz-adv-x="1286" 
d="M408 1745q0 46 28.5 74t75.5 28q44 0 72 -28t28 -74q0 -47 -28 -76t-72 -29q-47 0 -75.5 29t-28.5 76zM674 1745q0 46 28.5 74t75.5 28q44 0 72.5 -28.5t28.5 -73.5q0 -47 -28 -76t-73 -29q-47 0 -75.5 29t-28.5 76zM92 0v1536h1106v-184h-922v-492h717v-184h-717v-492
h922v-184h-1106z" />
    <glyph glyph-name="Igrave" unicode="&#xcc;" horiz-adv-x="368" 
d="M332 1642h-84l-252 345v20h184l152 -344v-21zM92 0v1536h184v-1536h-184z" />
    <glyph glyph-name="Iacute" unicode="&#xcd;" horiz-adv-x="368" 
d="M37 1642v21l151 344h185v-20l-252 -345h-84zM92 0v1536h184v-1536h-184z" />
    <glyph glyph-name="Icircumflex" unicode="&#xce;" horiz-adv-x="368" 
d="M137 2007h92l252 -344v-21h-82l-215 220l-217 -220h-82v21zM92 0v1536h184v-1536h-184z" />
    <glyph glyph-name="Idieresis" unicode="&#xcf;" horiz-adv-x="368" 
d="M-51 1745q0 46 28.5 74t75.5 28q45 0 73 -28.5t28 -73.5q0 -47 -28 -76t-73 -29q-47 0 -75.5 29t-28.5 76zM215 1745q0 46 28.5 74t75.5 28q45 0 73 -28.5t28 -73.5q0 -47 -28 -76t-73 -29q-47 0 -75.5 29t-28.5 76zM92 0v1536h184v-1536h-184z" />
    <glyph glyph-name="Eth" unicode="&#xd0;" 
d="M92 0v655h-215v144h215v737h420q171 0 311 -55.5t236 -155.5t148.5 -242.5t52.5 -314.5t-52.5 -314.5t-148.5 -242.5t-236 -155.5t-311 -55.5h-420zM492 655h-216v-471h236q272 0 417.5 156.5t145.5 427.5t-145.5 427.5t-417.5 156.5h-236v-553h216v-144z" />
    <glyph glyph-name="Ntilde" unicode="&#xd1;" horiz-adv-x="1351" 
d="M594 1630q-40 12 -64 12q-61 0 -61 -55h-90q0 61 36.5 111.5t108.5 50.5q31 0 71 -9.5t101 -30t64 -21.5q41 -13 63 -13q32 0 48 16t16 42h88q0 -62 -36.5 -112t-107.5 -50q-25 0 -62 7.5t-59.5 14t-67.5 21.5zM92 0v1536h123l860 -1145v1145h185v-1536h-123l-861 1143
v-1143h-184z" />
    <glyph glyph-name="Ograve" unicode="&#xd2;" horiz-adv-x="1576" 
d="M936 1642h-84l-252 345v20h184l152 -344v-21zM72 768q0 170 51 315.5t143 250t226.5 163.5t295.5 59q214 0 378 -101.5t251.5 -280t87.5 -406.5t-87.5 -406.5t-251.5 -280t-378 -101.5q-161 0 -295.5 59t-226.5 163.5t-143 250t-51 315.5zM256 768q0 -272 144.5 -438
t387.5 -166t388 166t145 438t-145 438t-388 166t-387.5 -166t-144.5 -438z" />
    <glyph glyph-name="Oacute" unicode="&#xd3;" horiz-adv-x="1576" 
d="M641 1642v21l152 344h184v-20l-252 -345h-84zM72 768q0 170 51 315.5t143 250t226.5 163.5t295.5 59q214 0 378 -101.5t251.5 -280t87.5 -406.5t-87.5 -406.5t-251.5 -280t-378 -101.5q-161 0 -295.5 59t-226.5 163.5t-143 250t-51 315.5zM256 768q0 -272 144.5 -438
t387.5 -166t388 166t145 438t-145 438t-388 166t-387.5 -166t-144.5 -438z" />
    <glyph glyph-name="Ocircumflex" unicode="&#xd4;" horiz-adv-x="1576" 
d="M743 2007h93l251 -344v-21h-81l-215 220l-218 -220h-81v21zM72 768q0 170 51 315.5t143 250t226.5 163.5t295.5 59q214 0 378 -101.5t251.5 -280t87.5 -406.5t-87.5 -406.5t-251.5 -280t-378 -101.5q-161 0 -295.5 59t-226.5 163.5t-143 250t-51 315.5zM256 768
q0 -272 144.5 -438t387.5 -166t388 166t145 438t-145 438t-388 166t-387.5 -166t-144.5 -438z" />
    <glyph glyph-name="Otilde" unicode="&#xd5;" horiz-adv-x="1576" 
d="M707 1692q-40 12 -64 12q-61 0 -61 -55h-90q0 61 36.5 111t108.5 50q31 0 71 -9.5t100 -30t64 -21.5q37 -12 64 -12q63 0 63 57h88q0 -62 -36 -112t-107 -50q-25 0 -61.5 7.5t-60.5 15t-66 21.5t-49 16zM72 768q0 170 51 315.5t143 250t226.5 163.5t295.5 59
q214 0 378 -101.5t251.5 -280t87.5 -406.5t-87.5 -406.5t-251.5 -280t-378 -101.5q-161 0 -295.5 59t-226.5 163.5t-143 250t-51 315.5zM256 768q0 -272 144.5 -438t387.5 -166t388 166t145 438t-145 438t-388 166t-387.5 -166t-144.5 -438z" />
    <glyph glyph-name="Odieresis" unicode="&#xd6;" horiz-adv-x="1576" 
d="M553 1745q0 46 28.5 74t75.5 28q45 0 73 -28.5t28 -73.5q0 -47 -28 -76t-73 -29q-47 0 -75.5 29t-28.5 76zM819 1745q0 46 29 74t76 28q44 0 72 -28t28 -74q0 -47 -28 -76t-72 -29q-47 0 -76 29t-29 76zM72 768q0 170 51 315.5t143 250t226.5 163.5t295.5 59
q214 0 378 -101.5t251.5 -280t87.5 -406.5t-87.5 -406.5t-251.5 -280t-378 -101.5q-161 0 -295.5 59t-226.5 163.5t-143 250t-51 315.5zM256 768q0 -272 144.5 -438t387.5 -166t388 166t145 438t-145 438t-388 166t-387.5 -166t-144.5 -438z" />
    <glyph glyph-name="multiply" unicode="&#xd7;" horiz-adv-x="921" 
d="M729 358l-268 269l-268 -269l-101 101l268 268l-268 268l101 101l268 -269l268 269l100 -101l-268 -268l268 -268z" />
    <glyph glyph-name="Oslash" unicode="&#xd8;" horiz-adv-x="1576" 
d="M365 -102l69 170q-171 96 -266.5 279.5t-95.5 420.5q0 170 51 315.5t143 250t226.5 163.5t295.5 59q134 0 246 -38l49 120h129l-69 -170q171 -96 266.5 -279.5t95.5 -420.5q0 -228 -87.5 -406.5t-251.5 -280t-378 -101.5q-133 0 -245 38l-49 -120h-129zM256 768
q0 -179 65.5 -316.5t184.5 -211.5l457 1106q-86 26 -175 26q-243 0 -387.5 -166t-144.5 -438zM1071 1296l-457 -1106q86 -26 174 -26q243 0 388 166t145 438q0 179 -65.5 316.5t-184.5 211.5z" />
    <glyph glyph-name="Ugrave" unicode="&#xd9;" horiz-adv-x="1249" 
d="M772 1642h-84l-252 345v20h185l151 -344v-21zM993 563v973h185v-973q0 -112 -31 -207.5t-84 -162.5t-124 -114.5t-150.5 -70t-163.5 -22.5t-163.5 22.5t-150.5 70t-124 114.5t-84 162.5t-31 207.5v973h184v-973q0 -95 31.5 -171.5t84 -124t118 -72.5t135.5 -25t135 25
t117.5 72.5t84 124t31.5 171.5z" />
    <glyph glyph-name="Uacute" unicode="&#xda;" horiz-adv-x="1249" 
d="M477 1642v21l152 344h184v-20l-252 -345h-84zM993 563v973h185v-973q0 -112 -31 -207.5t-84 -162.5t-124 -114.5t-150.5 -70t-163.5 -22.5t-163.5 22.5t-150.5 70t-124 114.5t-84 162.5t-31 207.5v973h184v-973q0 -95 31.5 -171.5t84 -124t118 -72.5t135.5 -25t135 25
t117.5 72.5t84 124t31.5 171.5z" />
    <glyph glyph-name="Ucircumflex" unicode="&#xdb;" horiz-adv-x="1249" 
d="M580 2007h92l252 -344v-21h-82l-215 220l-217 -220h-82v21zM993 563v973h185v-973q0 -112 -31 -207.5t-84 -162.5t-124 -114.5t-150.5 -70t-163.5 -22.5t-163.5 22.5t-150.5 70t-124 114.5t-84 162.5t-31 207.5v973h184v-973q0 -95 31.5 -171.5t84 -124t118 -72.5
t135.5 -25t135 25t117.5 72.5t84 124t31.5 171.5z" />
    <glyph glyph-name="Udieresis" unicode="&#xdc;" horiz-adv-x="1249" 
d="M389 1745q0 46 29 74t76 28q44 0 72 -28t28 -74q0 -47 -28 -76t-72 -29q-47 0 -76 29t-29 76zM655 1745q0 46 29 74t76 28q44 0 72 -28t28 -74q0 -47 -28 -76t-72 -29q-47 0 -76 29t-29 76zM993 563v973h185v-973q0 -112 -31 -207.5t-84 -162.5t-124 -114.5t-150.5 -70
t-163.5 -22.5t-163.5 22.5t-150.5 70t-124 114.5t-84 162.5t-31 207.5v973h184v-973q0 -95 31.5 -171.5t84 -124t118 -72.5t135.5 -25t135 25t117.5 72.5t84 124t31.5 171.5z" />
    <glyph glyph-name="Yacute" unicode="&#xdd;" 
d="M498 1642v21l151 344h185v-20l-252 -345h-84zM573 645l-522 891h205l410 -696l409 696h205l-522 -891v-645h-185v645z" />
    <glyph glyph-name="germandbls" unicode="&#xdf;" horiz-adv-x="1175" 
d="M698 995q33 59 33 109q0 248 -203 248q-119 0 -185.5 -73t-66.5 -175v-1104h-184v1104q0 84 27.5 160t80 137.5t137.5 98t191 36.5q103 0 180.5 -36.5t121 -99t64.5 -136.5t21 -160q0 -51 -16.5 -101t-31.5 -82.5t-21.5 -68.5t14.5 -75t76 -85q66 -55 103 -131.5
t42 -154.5t-19.5 -155t-74.5 -137t-132 -97t-183 -37q-182 0 -301 112l106 166q61 -94 195 -94q89 0 147 43.5t72.5 108.5t-15.5 145.5t-104 148.5q-63 59 -92.5 114t-26.5 123t45 148z" />
    <glyph glyph-name="agrave" unicode="&#xe0;" horiz-adv-x="1241" 
d="M799 1233h-84l-252 344v20h184l152 -344v-20zM1149 0h-92l-68 195q-132 -246 -446 -211q-220 23 -345.5 181t-125.5 398q0 239 125.5 398t343.5 182q308 35 444 -205v188h164v-1126zM985 563q0 190 -97.5 305t-277.5 115t-277 -115t-97 -305t97 -305t277 -115t277.5 115
t97.5 305z" />
    <glyph glyph-name="aacute" unicode="&#xe1;" horiz-adv-x="1241" 
d="M463 1233v20l151 344h185v-20l-252 -344h-84zM1149 0h-92l-68 195q-132 -246 -446 -211q-220 23 -345.5 181t-125.5 398q0 239 125.5 398t343.5 182q308 35 444 -205v188h164v-1126zM985 563q0 190 -97.5 305t-277.5 115t-277 -115t-97 -305t97 -305t277 -115t277.5 115
t97.5 305z" />
    <glyph glyph-name="acircumflex" unicode="&#xe2;" horiz-adv-x="1241" 
d="M586 1597h92l252 -344v-20h-82l-215 219l-217 -219h-82v20zM1149 0h-92l-68 195q-132 -246 -446 -211q-220 23 -345.5 181t-125.5 398q0 239 125.5 398t343.5 182q308 35 444 -205v188h164v-1126zM985 563q0 190 -97.5 305t-277.5 115t-277 -115t-97 -305t97 -305
t277 -115t277.5 115t97.5 305z" />
    <glyph glyph-name="atilde" unicode="&#xe3;" horiz-adv-x="1241" 
d="M549 1282q-40 12 -64 12q-61 0 -61 -55h-90q0 61 36.5 111.5t108.5 50.5q31 0 72 -10t99.5 -30t64.5 -22q37 -12 63 -12q64 0 64 57h88q0 -62 -36.5 -111.5t-107.5 -49.5q-25 0 -62 7.5t-59.5 14t-67.5 21.5zM1149 0h-92l-68 195q-132 -246 -446 -211q-220 23 -345.5 181
t-125.5 398q0 239 125.5 398t343.5 182q308 35 444 -205v188h164v-1126zM985 563q0 190 -97.5 305t-277.5 115t-277 -115t-97 -305t97 -305t277 -115t277.5 115t97.5 305z" />
    <glyph glyph-name="adieresis" unicode="&#xe4;" horiz-adv-x="1241" 
d="M395 1335q0 46 29 74.5t76 28.5q44 0 72 -28.5t28 -74.5q0 -47 -27.5 -75.5t-72.5 -28.5q-47 0 -76 28.5t-29 75.5zM662 1335q0 46 28.5 74.5t75.5 28.5q44 0 72 -28.5t28 -74.5q0 -47 -27.5 -75.5t-72.5 -28.5q-47 0 -75.5 28.5t-28.5 75.5zM1149 0h-92l-68 195
q-132 -246 -446 -211q-220 23 -345.5 181t-125.5 398q0 239 125.5 398t343.5 182q308 35 444 -205v188h164v-1126zM985 563q0 190 -97.5 305t-277.5 115t-277 -115t-97 -305t97 -305t277 -115t277.5 115t97.5 305z" />
    <glyph glyph-name="aring" unicode="&#xe5;" horiz-adv-x="1241" 
d="M1149 0h-92l-68 195q-132 -246 -446 -211q-220 23 -345.5 181t-125.5 398q0 224 111.5 380t308.5 194q-61 33 -97.5 93t-36.5 132q0 105 73.5 179.5t180.5 74.5q104 0 178 -75t74 -179q0 -73 -37.5 -133.5t-99.5 -93.5q169 -38 258 -197v188h164v-1126zM481 1362
q0 -58 37 -95.5t94 -37.5t93 37t36 96t-36 96t-93 37t-94 -37.5t-37 -95.5zM985 563q0 190 -97.5 305t-277.5 115t-277 -115t-97 -305t97 -305t277 -115t277.5 115t97.5 305z" />
    <glyph glyph-name="ae" unicode="&#xe6;" horiz-adv-x="2115" 
d="M1149 0h-92l-68 195q-132 -246 -446 -211q-220 23 -345.5 181t-125.5 398q0 239 125.5 398t343.5 182q308 35 444 -205v188h164v-122q146 143 375 143q133 0 240 -56t171 -150t91.5 -216t9.5 -254h-881q22 -152 117.5 -240t251.5 -88q182 0 278 117l113 -121
q-146 -159 -391 -159q-229 0 -375 143v-123zM985 563q0 190 -97.5 305t-277.5 115t-277 -115t-97 -305t97 -305t277 -115t277.5 115t97.5 305zM1153 635h723q-16 152 -106.5 250t-245.5 98q-162 0 -257.5 -94t-113.5 -254z" />
    <glyph glyph-name="ccedilla" unicode="&#xe7;" horiz-adv-x="1062" 
d="M889 260l112 -121q-143 -156 -385 -159l-8 -29q57 -19 93 -68t36 -110q0 -78 -54 -133.5t-132 -55.5q-77 0 -133 56l61 63q29 -29 70 -29q42 0 69 28t27 71t-26.5 70.5t-69.5 27.5h-49l32 113q-215 26 -337.5 184t-122.5 395q0 169 63 301t186 207.5t289 75.5
q244 0 391 -160l-112 -121q-96 117 -279 117q-180 0 -277 -115t-97 -305t97 -305t277 -115q183 0 279 117z" />
    <glyph glyph-name="egrave" unicode="&#xe8;" horiz-adv-x="1202" 
d="M750 1233h-84l-252 344v20h184l152 -344v-20zM889 260l112 -121q-146 -159 -391 -159q-166 0 -289 75.5t-186 207t-63 300.5t63 301t186 207.5t289 75.5q133 0 240 -56t171 -150t91.5 -216t9.5 -254h-880q22 -152 117 -240t251 -88q183 0 279 117zM240 635h723
q-16 152 -107 250t-246 98q-161 0 -256.5 -94t-113.5 -254z" />
    <glyph glyph-name="eacute" unicode="&#xe9;" horiz-adv-x="1202" 
d="M455 1233v20l151 344h185v-20l-252 -344h-84zM889 260l112 -121q-146 -159 -391 -159q-166 0 -289 75.5t-186 207t-63 300.5t63 301t186 207.5t289 75.5q133 0 240 -56t171 -150t91.5 -216t9.5 -254h-880q22 -152 117 -240t251 -88q183 0 279 117zM240 635h723
q-16 152 -107 250t-246 98q-161 0 -256.5 -94t-113.5 -254z" />
    <glyph glyph-name="ecircumflex" unicode="&#xea;" horiz-adv-x="1202" 
d="M555 1597h92l252 -344v-20h-82l-215 219l-217 -219h-82v20zM889 260l112 -121q-146 -159 -391 -159q-166 0 -289 75.5t-186 207t-63 300.5t63 301t186 207.5t289 75.5q133 0 240 -56t171 -150t91.5 -216t9.5 -254h-880q22 -152 117 -240t251 -88q183 0 279 117zM240 635
h723q-16 152 -107 250t-246 98q-161 0 -256.5 -94t-113.5 -254z" />
    <glyph glyph-name="edieresis" unicode="&#xeb;" horiz-adv-x="1202" 
d="M373 1335q0 46 28.5 74.5t75.5 28.5q44 0 72.5 -28.5t28.5 -74.5q0 -47 -28 -75.5t-73 -28.5q-47 0 -75.5 28.5t-28.5 75.5zM639 1335q0 46 28.5 74.5t75.5 28.5q44 0 72.5 -28.5t28.5 -74.5q0 -47 -28 -75.5t-73 -28.5q-47 0 -75.5 28.5t-28.5 75.5zM889 260l112 -121
q-146 -159 -391 -159q-166 0 -289 75.5t-186 207t-63 300.5t63 301t186 207.5t289 75.5q133 0 240 -56t171 -150t91.5 -216t9.5 -254h-880q22 -152 117 -240t251 -88q183 0 279 117zM240 635h723q-16 152 -107 250t-246 98q-161 0 -256.5 -94t-113.5 -254z" />
    <glyph glyph-name="igrave" unicode="&#xec;" horiz-adv-x="348" 
d="M322 1233h-84l-252 344v20h184l152 -344v-20zM92 0v1126h164v-1126h-164z" />
    <glyph glyph-name="iacute" unicode="&#xed;" horiz-adv-x="348" 
d="M27 1233v20l151 344h184v-20l-251 -344h-84zM92 0v1126h164v-1126h-164z" />
    <glyph glyph-name="icircumflex" unicode="&#xee;" horiz-adv-x="348" 
d="M127 1597h92l252 -344v-20h-82l-215 219l-217 -219h-82v20zM92 0v1126h164v-1126h-164z" />
    <glyph glyph-name="idieresis" unicode="&#xef;" horiz-adv-x="348" 
d="M-61 1335q0 46 28.5 74.5t75.5 28.5q44 0 72 -28.5t28 -74.5q0 -47 -27.5 -75.5t-72.5 -28.5q-47 0 -75.5 28.5t-28.5 75.5zM205 1335q0 46 28.5 74.5t75.5 28.5q44 0 72.5 -28.5t28.5 -74.5q0 -47 -28 -75.5t-73 -28.5q-47 0 -75.5 28.5t-28.5 75.5zM92 0v1126h164
v-1126h-164z" />
    <glyph glyph-name="ntilde" unicode="&#xf1;" horiz-adv-x="1122" 
d="M481 1282q-41 12 -63 12q-62 0 -62 -55h-90q0 61 37 111.5t109 50.5q31 0 72 -10t98.5 -30t64.5 -22q37 -12 64 -12q63 0 63 57h88q0 -62 -36 -111.5t-107 -49.5q-25 0 -62.5 7.5t-59 14t-68.5 22t-48 15.5zM92 1126h92l58 -165q104 186 323 186q210 0 339.5 -133.5
t129.5 -345.5v-668h-164v668q0 138 -85 226.5t-220 88.5q-138 0 -223.5 -88.5t-85.5 -226.5v-668h-164v1126z" />
    <glyph glyph-name="ograve" unicode="&#xf2;" horiz-adv-x="1220" 
d="M758 1253v-20h-84l-252 344v20h184zM72 563q0 169 63 301t186 207.5t289 75.5t289 -75.5t186.5 -207.5t63.5 -301t-63.5 -300.5t-186.5 -207t-289 -75.5t-289 75.5t-186 207t-63 300.5zM236 563q0 -190 97 -305t277 -115t277.5 115t97.5 305t-97.5 305t-277.5 115
t-277 -115t-97 -305z" />
    <glyph glyph-name="oacute" unicode="&#xf3;" horiz-adv-x="1220" 
d="M547 1233h-84v20l151 344h185v-20zM72 563q0 169 63 301t186 207.5t289 75.5t289 -75.5t186.5 -207.5t63.5 -301t-63.5 -300.5t-186.5 -207t-289 -75.5t-289 75.5t-186 207t-63 300.5zM236 563q0 -190 97 -305t277 -115t277.5 115t97.5 305t-97.5 305t-277.5 115
t-277 -115t-97 -305z" />
    <glyph glyph-name="ocircumflex" unicode="&#xf4;" horiz-adv-x="1220" 
d="M313 1253l252 344h92l252 -344v-20h-82l-215 219l-217 -219h-82v20zM72 563q0 169 63 301t186 207.5t289 75.5t289 -75.5t186.5 -207.5t63.5 -301t-63.5 -300.5t-186.5 -207t-289 -75.5t-289 75.5t-186 207t-63 300.5zM236 563q0 -190 97 -305t277 -115t277.5 115
t97.5 305t-97.5 305t-277.5 115t-277 -115t-97 -305z" />
    <glyph glyph-name="otilde" unicode="&#xf5;" horiz-adv-x="1220" 
d="M528 1282q-41 12 -63 12q-62 0 -62 -55h-90q0 61 37 111.5t109 50.5q31 0 72 -10t98.5 -30t64.5 -22q37 -12 64 -12q63 0 63 57h88q0 -62 -36 -111.5t-107 -49.5q-25 0 -62.5 7.5t-59 14t-68.5 22t-48 15.5zM72 563q0 169 63 301t186 207.5t289 75.5t289 -75.5
t186.5 -207.5t63.5 -301t-63.5 -300.5t-186.5 -207t-289 -75.5t-289 75.5t-186 207t-63 300.5zM236 563q0 -190 97 -305t277 -115t277.5 115t97.5 305t-97.5 305t-277.5 115t-277 -115t-97 -305z" />
    <glyph glyph-name="odieresis" unicode="&#xf6;" horiz-adv-x="1220" 
d="M375 1335q0 46 28.5 74.5t75.5 28.5q44 0 72.5 -28.5t28.5 -74.5q0 -47 -28 -75.5t-73 -28.5q-47 0 -75.5 28.5t-28.5 75.5zM641 1335q0 46 28.5 74.5t75.5 28.5q44 0 72.5 -28.5t28.5 -74.5q0 -47 -28 -75.5t-73 -28.5q-47 0 -75.5 28.5t-28.5 75.5zM72 563
q0 169 63 301t186 207.5t289 75.5t289 -75.5t186.5 -207.5t63.5 -301t-63.5 -300.5t-186.5 -207t-289 -75.5t-289 75.5t-186 207t-63 300.5zM236 563q0 -190 97 -305t277 -115t277.5 115t97.5 305t-97.5 305t-277.5 115t-277 -115t-97 -305z" />
    <glyph glyph-name="divide" unicode="&#xf7;" horiz-adv-x="1003" 
d="M397 1004q0 46 28.5 74t74.5 28t74 -28t28 -74t-28 -74.5t-74 -28.5t-74.5 28.5t-28.5 74.5zM911 655h-819v144h819v-144zM397 451q0 46 28.5 74t74.5 28t74 -28t28 -74t-28 -74.5t-74 -28.5t-74.5 28.5t-28.5 74.5z" />
    <glyph glyph-name="oslash" unicode="&#xf8;" horiz-adv-x="1220" 
d="M270 -102l64 151q-126 72 -194 206t-68 308q0 169 63 301t186 207.5t289 75.5q86 0 170 -23l43 105h129l-63 -152q124 -72 192 -207t68 -307q0 -169 -63.5 -300.5t-186.5 -207t-289 -75.5q-88 0 -168 22l-43 -104h-129zM236 563q0 -121 41 -213.5t120 -146.5l320 768
q-50 12 -107 12q-180 0 -277 -115t-97 -305zM825 924l-319 -768q54 -13 104 -13q180 0 277.5 115t97.5 305q0 120 -41 213.5t-119 147.5z" />
    <glyph glyph-name="ugrave" unicode="&#xf9;" horiz-adv-x="1122" 
d="M709 1233h-84l-252 344v20h184l152 -344v-20zM1030 0h-92l-57 166q-104 -186 -324 -186q-210 0 -339.5 133.5t-129.5 345.5v667h164v-667q0 -138 85 -227t220 -89q138 0 223.5 89t85.5 227v667h164v-1126z" />
    <glyph glyph-name="uacute" unicode="&#xfa;" horiz-adv-x="1122" 
d="M414 1233v20l151 344h185v-20l-252 -344h-84zM1030 0h-92l-57 166q-104 -186 -324 -186q-210 0 -339.5 133.5t-129.5 345.5v667h164v-667q0 -138 85 -227t220 -89q138 0 223.5 89t85.5 227v667h164v-1126z" />
    <glyph glyph-name="ucircumflex" unicode="&#xfb;" horiz-adv-x="1122" 
d="M516 1597h92l252 -344v-20h-82l-215 219l-217 -219h-82v20zM1030 0h-92l-57 166q-104 -186 -324 -186q-210 0 -339.5 133.5t-129.5 345.5v667h164v-667q0 -138 85 -227t220 -89q138 0 223.5 89t85.5 227v667h164v-1126z" />
    <glyph glyph-name="udieresis" unicode="&#xfc;" horiz-adv-x="1122" 
d="M326 1335q0 46 28.5 74.5t75.5 28.5q44 0 72 -28.5t28 -74.5q0 -47 -27.5 -75.5t-72.5 -28.5q-47 0 -75.5 28.5t-28.5 75.5zM592 1335q0 46 28.5 74.5t75.5 28.5q44 0 72.5 -28.5t28.5 -74.5q0 -47 -28 -75.5t-73 -28.5q-47 0 -75.5 28.5t-28.5 75.5zM1030 0h-92l-57 166
q-104 -186 -324 -186q-210 0 -339.5 133.5t-129.5 345.5v667h164v-667q0 -138 85 -227t220 -89q138 0 223.5 89t85.5 227v667h164v-1126z" />
    <glyph glyph-name="yacute" unicode="&#xfd;" horiz-adv-x="1126" 
d="M395 1233v20l152 344h184v-20l-252 -344h-84zM248 -410l223 533l-420 1003h185l327 -782l328 782h184l-471 -1124v-2l-172 -410h-184z" />
    <glyph glyph-name="ydieresis" unicode="&#xff;" horiz-adv-x="1126" 
d="M328 1335q0 46 28.5 74.5t75.5 28.5q44 0 72 -28.5t28 -74.5q0 -47 -27.5 -75.5t-72.5 -28.5q-47 0 -75.5 28.5t-28.5 75.5zM594 1335q0 46 28.5 74.5t75.5 28.5q44 0 72.5 -28.5t28.5 -74.5q0 -47 -28 -75.5t-73 -28.5q-47 0 -75.5 28.5t-28.5 75.5zM248 -410l223 533
l-420 1003h185l327 -782l328 782h184l-471 -1124v-2l-172 -410h-184z" />
    <glyph glyph-name="Amacron" unicode="&#x100;" 
d="M930 1642h-529v101h529v-101zM1081 0l-170 471h-491l-170 -471h-199l553 1536h123l553 -1536h-199zM471 614h389l-194 539z" />
    <glyph glyph-name="amacron" unicode="&#x101;" horiz-adv-x="1241" 
d="M895 1264h-528v100h528v-100zM1149 0h-92l-68 195q-132 -246 -446 -211q-220 23 -345.5 181t-125.5 398q0 239 125.5 398t343.5 182q308 35 444 -205v188h164v-1126zM985 563q0 190 -97.5 305t-277.5 115t-277 -115t-97 -305t97 -305t277 -115t277.5 115t97.5 305z" />
    <glyph glyph-name="Abreve" unicode="&#x102;" 
d="M416 1839h51q17 -96 201 -96q181 0 198 96h52q-13 -91 -83 -145t-167 -54q-99 0 -169 54t-83 145zM1081 0l-170 471h-491l-170 -471h-199l553 1536h123l553 -1536h-199zM471 614h389l-194 539z" />
    <glyph glyph-name="abreve" unicode="&#x103;" horiz-adv-x="1241" 
d="M360 1430h52q10 -53 67 -75t133 -22t132.5 22t66.5 75h51q-13 -91 -83 -145t-167 -54q-99 0 -169 54t-83 145zM1149 0h-92l-68 195q-132 -246 -446 -211q-220 23 -345.5 181t-125.5 398q0 239 125.5 398t343.5 182q308 35 444 -205v188h164v-1126zM985 563
q0 190 -97.5 305t-277.5 115t-277 -115t-97 -305t97 -305t277 -115t277.5 115t97.5 305z" />
    <glyph glyph-name="Aogonek" unicode="&#x104;" 
d="M1081 0l-170 471h-491l-170 -471h-199l553 1536h123l553 -1536h-41q-63 0 -86 -64q-20 -57 5 -110q28 -56 81 -43l4 -70q-82 -15 -139.5 24t-69.5 109q-15 86 47 154zM471 614h389l-194 539z" />
    <glyph glyph-name="aogonek" unicode="&#x105;" horiz-adv-x="1241" 
d="M1149 0h-4q-63 0 -86 -64q-20 -57 5 -110q28 -56 81 -43l4 -70q-82 -15 -139.5 24t-69.5 109q-12 61 17.5 113.5t84.5 81.5l-53 154q-132 -246 -446 -211q-220 23 -345.5 181t-125.5 398q0 239 125.5 398t343.5 182q308 35 444 -205v188h164v-1126zM985 563
q0 190 -97.5 305t-277.5 115t-277 -115t-97 -305t97 -305t277 -115t277.5 115t97.5 305z" />
    <glyph glyph-name="Cacute" unicode="&#x106;" horiz-adv-x="1378" 
d="M702 1642h-84v21l152 344h184v-20zM1182 336l125 -137q-96 -105 -228.5 -162t-290.5 -57q-161 0 -295.5 59t-226.5 163.5t-143 250t-51 315.5t51 315.5t143 250t226.5 163.5t295.5 59q158 0 290.5 -57t228.5 -162l-125 -137q-145 172 -394 172q-243 0 -387.5 -166
t-144.5 -438t144.5 -438t387.5 -166q249 0 394 172z" />
    <glyph glyph-name="cacute" unicode="&#x107;" horiz-adv-x="1062" 
d="M514 1233h-84v20l152 344h184v-20zM889 260l112 -121q-146 -159 -391 -159q-166 0 -289 75.5t-186 207t-63 300.5t63 301t186 207.5t289 75.5q244 0 391 -160l-112 -121q-96 117 -279 117q-180 0 -277 -115t-97 -305t97 -305t277 -115q183 0 279 117z" />
    <glyph glyph-name="Ccircumflex" unicode="&#x108;" horiz-adv-x="1378" 
d="M489 1663l252 344h93l251 -344v-21h-81l-216 220l-217 -220h-82v21zM1182 336l125 -137q-96 -105 -228.5 -162t-290.5 -57q-161 0 -295.5 59t-226.5 163.5t-143 250t-51 315.5t51 315.5t143 250t226.5 163.5t295.5 59q158 0 290.5 -57t228.5 -162l-125 -137
q-145 172 -394 172q-243 0 -387.5 -166t-144.5 -438t144.5 -438t387.5 -166q249 0 394 172z" />
    <glyph glyph-name="ccircumflex" unicode="&#x109;" horiz-adv-x="1062" 
d="M301 1253l252 344h92l252 -344v-20h-82l-215 219l-217 -219h-82v20zM889 260l112 -121q-146 -159 -391 -159q-166 0 -289 75.5t-186 207t-63 300.5t63 301t186 207.5t289 75.5q244 0 391 -160l-112 -121q-96 117 -279 117q-180 0 -277 -115t-97 -305t97 -305t277 -115
q183 0 279 117z" />
    <glyph glyph-name="Cdotaccent" unicode="&#x10a;" horiz-adv-x="1378" 
d="M670 1759q0 54 32 86.5t86 32.5q53 0 85 -32.5t32 -86.5t-32 -86.5t-85 -32.5q-54 0 -86 32.5t-32 86.5zM1182 336l125 -137q-96 -105 -228.5 -162t-290.5 -57q-161 0 -295.5 59t-226.5 163.5t-143 250t-51 315.5t51 315.5t143 250t226.5 163.5t295.5 59q158 0 290.5 -57
t228.5 -162l-125 -137q-145 172 -394 172q-243 0 -387.5 -166t-144.5 -438t144.5 -438t387.5 -166q249 0 394 172z" />
    <glyph glyph-name="cdotaccent" unicode="&#x10b;" horiz-adv-x="1062" 
d="M481 1350q0 54 32.5 86t86.5 32q53 0 85 -32t32 -86t-32 -86.5t-85 -32.5q-54 0 -86.5 32.5t-32.5 86.5zM889 260l112 -121q-146 -159 -391 -159q-166 0 -289 75.5t-186 207t-63 300.5t63 301t186 207.5t289 75.5q244 0 391 -160l-112 -121q-96 117 -279 117
q-180 0 -277 -115t-97 -305t97 -305t277 -115q183 0 279 117z" />
    <glyph glyph-name="Ccaron" unicode="&#x10c;" horiz-adv-x="1378" 
d="M834 1642h-93l-252 345v20h82l217 -219l216 219h81v-20zM1182 336l125 -137q-96 -105 -228.5 -162t-290.5 -57q-161 0 -295.5 59t-226.5 163.5t-143 250t-51 315.5t51 315.5t143 250t226.5 163.5t295.5 59q158 0 290.5 -57t228.5 -162l-125 -137q-145 172 -394 172
q-243 0 -387.5 -166t-144.5 -438t144.5 -438t387.5 -166q249 0 394 172z" />
    <glyph glyph-name="ccaron" unicode="&#x10d;" horiz-adv-x="1062" 
d="M645 1233h-92l-252 344v20h82l217 -219l215 219h82v-20zM889 260l112 -121q-146 -159 -391 -159q-166 0 -289 75.5t-186 207t-63 300.5t63 301t186 207.5t289 75.5q244 0 391 -160l-112 -121q-96 117 -279 117q-180 0 -277 -115t-97 -305t97 -305t277 -115q183 0 279 117
z" />
    <glyph glyph-name="Dcaron" unicode="&#x10e;" 
d="M502 1642l-252 345v20h82l217 -219l215 219h82v-20l-252 -345h-92zM92 0v1536h420q171 0 311 -55.5t236 -155.5t148.5 -242.5t52.5 -314.5t-52.5 -314.5t-148.5 -242.5t-236 -155.5t-311 -55.5h-420zM276 184h236q272 0 417.5 156.5t145.5 427.5t-145.5 427.5
t-417.5 156.5h-236v-1168z" />
    <glyph glyph-name="dcaron" unicode="&#x10f;" horiz-adv-x="1241" 
d="M594 1438l-252 344v20h82l217 -219l215 219h82v-20l-252 -344h-92zM1149 0h-92l-68 195q-132 -246 -446 -211q-220 23 -345.5 181t-125.5 398q0 239 125.5 398t343.5 182q308 35 444 -205v598h164v-1536zM985 563q0 190 -97.5 305t-277.5 115t-277 -115t-97 -305t97 -305
t277 -115t277.5 115t97.5 305z" />
    <glyph glyph-name="Dcroat" unicode="&#x110;" 
d="M92 0v655h-215v144h215v737h420q171 0 311 -55.5t236 -155.5t148.5 -242.5t52.5 -314.5t-52.5 -314.5t-148.5 -242.5t-236 -155.5t-311 -55.5h-420zM492 655h-216v-471h236q272 0 417.5 156.5t145.5 427.5t-145.5 427.5t-417.5 156.5h-236v-553h216v-144z" />
    <glyph glyph-name="dcroat" unicode="&#x111;" horiz-adv-x="1261" 
d="M1169 0h-92l-67 195q-62 -115 -173 -172t-274 -39q-220 23 -345.5 181t-125.5 398q0 239 125.5 398t343.5 182q160 18 270.5 -37.5t174.5 -167.5v326h-183v100h183v172h163v-172h183v-100h-183v-1264zM1006 563q0 190 -97.5 305t-277.5 115t-277.5 -115t-97.5 -305
t97.5 -305t277.5 -115t277.5 115t97.5 305z" />
    <glyph glyph-name="Emacron" unicode="&#x112;" horiz-adv-x="1286" 
d="M907 1642h-528v101h528v-101zM92 0v1536h1106v-184h-922v-492h717v-184h-717v-492h922v-184h-1106z" />
    <glyph glyph-name="emacron" unicode="&#x113;" horiz-adv-x="1202" 
d="M872 1264h-528v100h528v-100zM889 260l112 -121q-146 -159 -391 -159q-166 0 -289 75.5t-186 207t-63 300.5t63 301t186 207.5t289 75.5q133 0 240 -56t171 -150t91.5 -216t9.5 -254h-880q22 -152 117 -240t251 -88q183 0 279 117zM240 635h723q-16 152 -107 250t-246 98
q-161 0 -256.5 -94t-113.5 -254z" />
    <glyph glyph-name="Ebreve" unicode="&#x114;" horiz-adv-x="1286" 
d="M393 1839h51q17 -96 201 -96q182 0 199 96h51q-13 -91 -83 -145t-167 -54q-99 0 -169 54t-83 145zM92 0v1536h1106v-184h-922v-492h717v-184h-717v-492h922v-184h-1106z" />
    <glyph glyph-name="ebreve" unicode="&#x115;" horiz-adv-x="1202" 
d="M356 1430h52q10 -53 67 -75t133 -22t132.5 22t66.5 75h51q-13 -91 -83 -145t-167 -54q-99 0 -169 54t-83 145zM889 260l112 -121q-146 -159 -391 -159q-166 0 -289 75.5t-186 207t-63 300.5t63 301t186 207.5t289 75.5q133 0 240 -56t171 -150t91.5 -216t9.5 -254h-880
q22 -152 117 -240t251 -88q183 0 279 117zM240 635h723q-16 152 -107 250t-246 98q-161 0 -256.5 -94t-113.5 -254z" />
    <glyph glyph-name="Edotaccent" unicode="&#x116;" horiz-adv-x="1286" 
d="M526 1759q0 54 32.5 86.5t86.5 32.5q53 0 85 -32.5t32 -86.5t-32 -86.5t-85 -32.5q-54 0 -86.5 32.5t-32.5 86.5zM92 0v1536h1106v-184h-922v-492h717v-184h-717v-492h922v-184h-1106z" />
    <glyph glyph-name="edotaccent" unicode="&#x117;" horiz-adv-x="1202" 
d="M487 1350q0 54 32.5 86t86.5 32q53 0 85 -32t32 -86t-32 -86.5t-85 -32.5q-54 0 -86.5 32.5t-32.5 86.5zM889 260l112 -121q-146 -159 -391 -159q-166 0 -289 75.5t-186 207t-63 300.5t63 301t186 207.5t289 75.5q133 0 240 -56t171 -150t91.5 -216t9.5 -254h-880
q22 -152 117 -240t251 -88q183 0 279 117zM240 635h723q-16 152 -107 250t-246 98q-161 0 -256.5 -94t-113.5 -254z" />
    <glyph glyph-name="Eogonek" unicode="&#x118;" horiz-adv-x="1286" 
d="M92 0v1536h1106v-184h-922v-492h717v-184h-717v-492h922v-184h-22q-63 0 -86 -64q-20 -57 5 -110q28 -56 81 -43l4 -70q-82 -15 -139.5 24t-69.5 109q-15 86 47 154h-926z" />
    <glyph glyph-name="eogonek" unicode="&#x119;" horiz-adv-x="1202" 
d="M766 -217l4 -70q-82 -15 -139.5 24t-69.5 109q-15 72 31 134q-240 6 -380 167.5t-140 415.5q0 169 63 301t186 207.5t289 75.5q133 0 240 -56t171 -150t91.5 -216t9.5 -254h-880q22 -152 117 -240t251 -88q183 0 279 117l112 -121q-110 -120 -278 -149
q-40 -23 -48.5 -78.5t18 -98t73.5 -30.5zM240 635h723q-16 152 -107 250t-246 98q-161 0 -256.5 -94t-113.5 -254z" />
    <glyph glyph-name="Ecaron" unicode="&#x11a;" horiz-adv-x="1286" 
d="M598 1642l-252 345v20h82l217 -219l215 219h82v-20l-252 -345h-92zM92 0v1536h1106v-184h-922v-492h717v-184h-717v-492h922v-184h-1106z" />
    <glyph glyph-name="ecaron" unicode="&#x11b;" horiz-adv-x="1202" 
d="M555 1233l-252 344v20h82l217 -219l215 219h82v-20l-252 -344h-92zM889 260l112 -121q-146 -159 -391 -159q-166 0 -289 75.5t-186 207t-63 300.5t63 301t186 207.5t289 75.5q133 0 240 -56t171 -150t91.5 -216t9.5 -254h-880q22 -152 117 -240t251 -88q183 0 279 117z
M240 635h723q-16 152 -107 250t-246 98q-161 0 -256.5 -94t-113.5 -254z" />
    <glyph glyph-name="Gcircumflex" unicode="&#x11c;" horiz-adv-x="1536" 
d="M471 1663l252 344h92l252 -344v-21h-82l-215 220l-217 -220h-82v21zM670 676v184h794v-92q0 -230 -77 -406.5t-231.5 -279t-367.5 -102.5q-161 0 -295.5 59t-226.5 163.5t-143 250t-51 315.5t51 315.5t143 250t226.5 163.5t295.5 59q158 0 290.5 -57t228.5 -162
l-125 -137q-145 172 -394 172q-243 0 -387.5 -166t-144.5 -438t144.5 -438t387.5 -166q217 0 342 137t146 375h-606z" />
    <glyph glyph-name="gcircumflex" unicode="&#x11d;" horiz-adv-x="1236" 
d="M606 1597h92l252 -344v-20h-82l-215 219l-217 -219h-82v20zM985 104v82q-131 -237 -442 -202q-220 23 -345.5 181t-125.5 398q0 239 125.5 398t343.5 182q163 18 274.5 -39t173.5 -172l68 194h92v-1022q0 -227 -129 -370.5t-348 -143.5q-214 0 -346 142l112 121
q86 -99 234 -99t230.5 96.5t82.5 253.5zM985 563q0 190 -97.5 305t-277.5 115t-277 -115t-97 -305t97 -305t277 -115t277.5 115t97.5 305z" />
    <glyph glyph-name="Gbreve" unicode="&#x11e;" horiz-adv-x="1536" 
d="M518 1839h51q17 -96 201 -96q182 0 199 96h51q-13 -91 -83 -145t-167 -54q-99 0 -169 54t-83 145zM670 676v184h794v-92q0 -230 -77 -406.5t-231.5 -279t-367.5 -102.5q-161 0 -295.5 59t-226.5 163.5t-143 250t-51 315.5t51 315.5t143 250t226.5 163.5t295.5 59
q158 0 290.5 -57t228.5 -162l-125 -137q-145 172 -394 172q-243 0 -387.5 -166t-144.5 -438t144.5 -438t387.5 -166q217 0 342 137t146 375h-606z" />
    <glyph glyph-name="gbreve" unicode="&#x11f;" horiz-adv-x="1236" 
d="M401 1430h52q10 -53 67 -75t133 -22t132.5 22t66.5 75h51q-13 -91 -83 -145t-167 -54q-99 0 -169 54t-83 145zM985 104v82q-131 -237 -442 -202q-220 23 -345.5 181t-125.5 398q0 239 125.5 398t343.5 182q163 18 274.5 -39t173.5 -172l68 194h92v-1022
q0 -227 -129 -370.5t-348 -143.5q-214 0 -346 142l112 121q86 -99 234 -99t230.5 96.5t82.5 253.5zM985 563q0 190 -97.5 305t-277.5 115t-277 -115t-97 -305t97 -305t277 -115t277.5 115t97.5 305z" />
    <glyph glyph-name="Gdotaccent" unicode="&#x120;" horiz-adv-x="1536" 
d="M651 1759q0 54 32.5 86.5t86.5 32.5q53 0 85 -32.5t32 -86.5t-32 -86.5t-85 -32.5q-54 0 -86.5 32.5t-32.5 86.5zM670 676v184h794v-92q0 -230 -77 -406.5t-231.5 -279t-367.5 -102.5q-161 0 -295.5 59t-226.5 163.5t-143 250t-51 315.5t51 315.5t143 250t226.5 163.5
t295.5 59q158 0 290.5 -57t228.5 -162l-125 -137q-145 172 -394 172q-243 0 -387.5 -166t-144.5 -438t144.5 -438t387.5 -166q217 0 342 137t146 375h-606z" />
    <glyph glyph-name="gdotaccent" unicode="&#x121;" horiz-adv-x="1236" 
d="M494 1350q0 54 32 86t86 32q53 0 85 -32t32 -86t-32 -86.5t-85 -32.5q-54 0 -86 32.5t-32 86.5zM985 104v82q-131 -237 -442 -202q-220 23 -345.5 181t-125.5 398q0 239 125.5 398t343.5 182q163 18 274.5 -39t173.5 -172l68 194h92v-1022q0 -227 -129 -370.5
t-348 -143.5q-214 0 -346 142l112 121q86 -99 234 -99t230.5 96.5t82.5 253.5zM985 563q0 190 -97.5 305t-277.5 115t-277 -115t-97 -305t97 -305t277 -115t277.5 115t97.5 305z" />
    <glyph glyph-name="uni0122" unicode="&#x122;" horiz-adv-x="1536" 
d="M670 676v184h794v-92q0 -230 -77 -406.5t-231.5 -279t-367.5 -102.5q-161 0 -295.5 59t-226.5 163.5t-143 250t-51 315.5t51 315.5t143 250t226.5 163.5t295.5 59q158 0 290.5 -57t228.5 -162l-125 -137q-145 172 -394 172q-243 0 -387.5 -166t-144.5 -438t144.5 -438
t387.5 -166q217 0 342 137t146 375h-606zM666 -152q0 46 28 74.5t74 28.5t74 -28.5t28 -74.5q0 -30 -28 -98l-56 -133h-41l39 129q-118 0 -118 102z" />
    <glyph glyph-name="uni0123" unicode="&#x123;" horiz-adv-x="1236" 
d="M719 1456q0 -46 -28.5 -74t-74.5 -28t-74 28t-28 74q0 27 29 98l55 134h41l-39 -129q119 0 119 -103zM985 104v82q-131 -237 -442 -202q-220 23 -345.5 181t-125.5 398q0 239 125.5 398t343.5 182q163 18 274.5 -39t173.5 -172l68 194h92v-1022q0 -227 -129 -370.5
t-348 -143.5q-214 0 -346 142l112 121q86 -99 234 -99t230.5 96.5t82.5 253.5zM985 563q0 190 -97.5 305t-277.5 115t-277 -115t-97 -305t97 -305t277 -115t277.5 115t97.5 305z" />
    <glyph glyph-name="Hcircumflex" unicode="&#x124;" horiz-adv-x="1351" 
d="M631 2007h92l252 -344v-21h-82l-215 220l-217 -220h-82v21zM92 0v1536h184v-676h799v676h185v-1536h-185v676h-799v-676h-184z" />
    <glyph glyph-name="hcircumflex" unicode="&#x125;" horiz-adv-x="1122" 
d="M559 1741h92l252 -344v-21h-82l-215 219l-217 -219h-82v21zM92 0v1536h164v-553q103 164 309 164q210 0 339.5 -133.5t129.5 -345.5v-668h-164v668q0 138 -85 226.5t-220 88.5q-138 0 -223.5 -88.5t-85.5 -226.5v-668h-164z" />
    <glyph glyph-name="Hbar" unicode="&#x126;" horiz-adv-x="1351" 
d="M940 1640h-528v101h528v-101zM92 0v1536h184v-676h799v676h185v-1536h-185v676h-799v-676h-184z" />
    <glyph glyph-name="hbar" unicode="&#x127;" horiz-adv-x="1122" 
d="M92 0v1264h-182v100h182v172h164v-172h182v-100h-182v-281q103 164 309 164q210 0 339.5 -133.5t129.5 -345.5v-668h-164v668q0 138 -85 226.5t-220 88.5q-138 0 -223.5 -88.5t-85.5 -226.5v-668h-164z" />
    <glyph glyph-name="Itilde" unicode="&#x128;" horiz-adv-x="368" 
d="M100 1692q-41 12 -63 12q-62 0 -62 -55h-90q0 61 37 111t109 50q31 0 71 -9.5t100 -30t64 -21.5q37 -12 64 -12q63 0 63 57h88q0 -62 -36 -112t-107 -50q-25 0 -62 7.5t-60.5 15t-66.5 21.5t-49 16zM92 0v1536h184v-1536h-184z" />
    <glyph glyph-name="itilde" unicode="&#x129;" horiz-adv-x="348" 
d="M90 1282q-40 12 -63 12q-62 0 -62 -55h-90q0 61 36.5 111.5t108.5 50.5q31 0 72 -10t99.5 -30t64.5 -22q38 -12 63 -12q64 0 64 57h88q0 -62 -36 -111.5t-107 -49.5q-25 0 -62.5 7.5t-59 14t-68.5 22t-48 15.5zM92 0v1126h164v-1126h-164z" />
    <glyph glyph-name="Imacron" unicode="&#x12a;" horiz-adv-x="368" 
d="M449 1640h-529v101h529v-101zM92 0v1536h184v-1536h-184z" />
    <glyph glyph-name="imacron" unicode="&#x12b;" horiz-adv-x="348" 
d="M438 1231h-528v100h528v-100zM92 0v1126h164v-1126h-164z" />
    <glyph glyph-name="Iogonek" unicode="&#x12e;" horiz-adv-x="368" 
d="M92 0v1536h184v-1468h9l2 -68q-63 0 -86 -64q-20 -57 5 -110q28 -56 81 -43l4 -70q-82 -15 -139.5 24t-69.5 109q-15 86 47 154h-37z" />
    <glyph glyph-name="iogonek" unicode="&#x12f;" horiz-adv-x="348" 
d="M92 1358q0 37 22.5 59.5t59.5 22.5t59.5 -22.5t22.5 -59.5t-22.5 -59.5t-59.5 -22.5t-59.5 22.5t-22.5 59.5zM92 0v1126h164v-1126h-2q-63 0 -86 -64q-20 -57 5 -110q28 -56 81 -43l4 -70q-82 -15 -139.5 24t-69.5 109q-15 86 47 154h-4z" />
    <glyph glyph-name="Idotaccent" unicode="&#x130;" horiz-adv-x="368" 
d="M66 1698q0 54 32 86.5t86 32.5q53 0 85 -32.5t32 -86.5t-32 -86.5t-85 -32.5q-54 0 -86 32.5t-32 86.5zM92 0v1536h184v-1536h-184z" />
    <glyph glyph-name="dotlessi" unicode="&#x131;" horiz-adv-x="348" 
d="M92 0v1126h164v-1126h-164z" />
    <glyph glyph-name="Jcircumflex" unicode="&#x134;" horiz-adv-x="813" 
d="M582 2007h92l252 -344v-21h-82l-215 220l-217 -220h-82v21zM61 86l125 139q53 -59 152 -59q90 0 144.5 52t54.5 144v1174h184v-1174q0 -170 -106.5 -276t-276.5 -106q-171 0 -277 106z" />
    <glyph glyph-name="jcircumflex" unicode="&#x135;" horiz-adv-x="344" 
d="M125 1597h92l252 -344v-20h-82l-215 219l-217 -219h-82v20zM-31 -410v164q75 0 99 45.5t24 139.5v1187h164v-1187q0 -349 -287 -349z" />
    <glyph glyph-name="uni0136" unicode="&#x136;" horiz-adv-x="1320" 
d="M92 0v1536h184v-662l738 662h246l-670 -606l670 -930h-226l-581 805l-177 -160v-645h-184zM563 -141q0 46 28.5 74t74.5 28t74 -28t28 -74q0 -28 -29 -99l-55 -133h-41l39 129q-119 0 -119 103z" />
    <glyph glyph-name="uni0137" unicode="&#x137;" horiz-adv-x="1054" 
d="M92 0v1536h164v-989l506 579h211l-404 -462l424 -664h-194l-342 535l-201 -232v-303h-164zM420 -141q0 46 28 74t74 28t74.5 -28t28.5 -74q0 -28 -29 -99l-55 -133h-41l39 129q-119 0 -119 103z" />
    <glyph glyph-name="kgreenlandic" unicode="&#x138;" horiz-adv-x="1054" 
d="M92 0v1126h164v-579l506 579h211l-404 -462l424 -664h-194l-342 535l-201 -232v-303h-164z" />
    <glyph glyph-name="Lacute" unicode="&#x139;" horiz-adv-x="1286" 
d="M127 1642v21l152 344h184v-20l-252 -345h-84zM92 0v1536h184v-1352h922v-184h-1106z" />
    <glyph glyph-name="lacute" unicode="&#x13a;" horiz-adv-x="348" 
d="M27 1642v21l151 344h184v-20l-251 -345h-84zM92 0v1536h164v-1536h-164z" />
    <glyph glyph-name="uni013B" unicode="&#x13b;" horiz-adv-x="1286" 
d="M92 0v1536h184v-1352h922v-184h-1106zM541 -141q0 46 28 74t74 28t74 -28t28 -74q0 -31 -28 -99l-55 -133h-41l38 129q-118 0 -118 103z" />
    <glyph glyph-name="uni013C" unicode="&#x13c;" horiz-adv-x="348" 
d="M92 0v1536h164v-1536h-164zM72 -141q0 46 28 74t74 28t74 -28t28 -74q0 -31 -28 -99l-55 -133h-41l38 129q-118 0 -118 103z" />
    <glyph glyph-name="Lcaron" unicode="&#x13d;" horiz-adv-x="1286" 
d="M598 1642l-252 345v20h82l217 -219l215 219h82v-20l-252 -345h-92zM92 0v1536h184v-1352h922v-184h-1106z" />
    <glyph glyph-name="lcaron" unicode="&#x13e;" horiz-adv-x="348" 
d="M127 1642l-252 345v20h82l217 -219l215 219h82v-20l-252 -345h-92zM92 0v1536h164v-1536h-164z" />
    <glyph glyph-name="Ldot" unicode="&#x13f;" horiz-adv-x="1286" 
d="M92 0v1536h184v-1352h922v-184h-1106zM399 727q0 82 44.5 132t119.5 50t119.5 -50t44.5 -132q0 -83 -44.5 -133.5t-119.5 -50.5t-119.5 50.5t-44.5 133.5z" />
    <glyph glyph-name="ldot" unicode="&#x140;" horiz-adv-x="778" 
d="M92 0v1536h164v-1536h-164zM358 727q0 82 44.5 132t119.5 50t119.5 -50t44.5 -132q0 -83 -44.5 -133.5t-119.5 -50.5t-119.5 50.5t-44.5 133.5z" />
    <glyph glyph-name="Lslash" unicode="&#x141;" horiz-adv-x="1286" 
d="M438 827l-162 -104v-539h922v-184h-1106v602l-123 -80v144l123 79v791h184v-670l162 105v-144z" />
    <glyph glyph-name="lslash" unicode="&#x142;" horiz-adv-x="348" 
d="M92 0v614l-141 -92v144l141 92v778h164v-672l164 107v-144l-164 -106v-721h-164z" />
    <glyph glyph-name="Nacute" unicode="&#x143;" horiz-adv-x="1351" 
d="M508 1642v21l151 344h185v-20l-252 -345h-84zM92 0v1536h123l860 -1145v1145h185v-1536h-123l-861 1143v-1143h-184z" />
    <glyph glyph-name="nacute" unicode="&#x144;" horiz-adv-x="1122" 
d="M395 1233v20l152 344h184v-20l-252 -344h-84zM92 1126h92l58 -165q104 186 323 186q210 0 339.5 -133.5t129.5 -345.5v-668h-164v668q0 138 -85 226.5t-220 88.5q-138 0 -223.5 -88.5t-85.5 -226.5v-668h-164v1126z" />
    <glyph glyph-name="uni0145" unicode="&#x145;" horiz-adv-x="1351" 
d="M92 0v1536h123l860 -1145v1145h185v-1536h-123l-861 1143v-1143h-184zM573 -141q0 46 28.5 74t74.5 28t74 -28t28 -74q0 -31 -28 -99l-56 -133h-41l39 129q-119 0 -119 103z" />
    <glyph glyph-name="uni0146" unicode="&#x146;" horiz-adv-x="1122" 
d="M92 1126h92l58 -165q104 186 323 186q210 0 339.5 -133.5t129.5 -345.5v-668h-164v668q0 138 -85 226.5t-220 88.5q-138 0 -223.5 -88.5t-85.5 -226.5v-668h-164v1126zM461 -141q0 46 28 74t74 28t74.5 -28t28.5 -74q0 -28 -29 -99l-55 -133h-41l39 129q-119 0 -119 103z
" />
    <glyph glyph-name="Ncaron" unicode="&#x147;" horiz-adv-x="1351" 
d="M631 1642l-252 345v20h82l217 -219l215 219h82v-20l-252 -345h-92zM92 0v1536h123l860 -1145v1145h185v-1536h-123l-861 1143v-1143h-184z" />
    <glyph glyph-name="ncaron" unicode="&#x148;" horiz-adv-x="1122" 
d="M518 1233l-252 344v20h82l217 -219l215 219h82v-20l-252 -344h-92zM92 1126h92l58 -165q104 186 323 186q210 0 339.5 -133.5t129.5 -345.5v-668h-164v668q0 138 -85 226.5t-220 88.5q-138 0 -223.5 -88.5t-85.5 -226.5v-668h-164v1126z" />
    <glyph glyph-name="napostrophe" unicode="&#x149;" horiz-adv-x="1122" 
d="M471 1573q0 46 28 74t74 28t74.5 -28t28.5 -74q0 -27 -29 -98l-55 -134h-41l39 129q-119 0 -119 103zM92 1126h92l58 -165q104 186 323 186q210 0 339.5 -133.5t129.5 -345.5v-668h-164v668q0 138 -85 226.5t-220 88.5q-138 0 -223.5 -88.5t-85.5 -226.5v-668h-164v1126z
" />
    <glyph glyph-name="Omacron" unicode="&#x14c;" horiz-adv-x="1576" 
d="M1053 1642h-529v101h529v-101zM72 768q0 170 51 315.5t143 250t226.5 163.5t295.5 59q214 0 378 -101.5t251.5 -280t87.5 -406.5t-87.5 -406.5t-251.5 -280t-378 -101.5q-161 0 -295.5 59t-226.5 163.5t-143 250t-51 315.5zM256 768q0 -272 144.5 -438t387.5 -166
t388 166t145 438t-145 438t-388 166t-387.5 -166t-144.5 -438z" />
    <glyph glyph-name="omacron" unicode="&#x14d;" horiz-adv-x="1220" 
d="M874 1364v-100h-528v100h528zM72 563q0 169 63 301t186 207.5t289 75.5t289 -75.5t186.5 -207.5t63.5 -301t-63.5 -300.5t-186.5 -207t-289 -75.5t-289 75.5t-186 207t-63 300.5zM236 563q0 -190 97 -305t277 -115t277.5 115t97.5 305t-97.5 305t-277.5 115t-277 -115
t-97 -305z" />
    <glyph glyph-name="Obreve" unicode="&#x14e;" horiz-adv-x="1576" 
d="M539 1839h51q17 -96 201 -96q181 0 198 96h51q-13 -91 -82.5 -145t-166.5 -54q-99 0 -169 54t-83 145zM72 768q0 170 51 315.5t143 250t226.5 163.5t295.5 59q214 0 378 -101.5t251.5 -280t87.5 -406.5t-87.5 -406.5t-251.5 -280t-378 -101.5q-161 0 -295.5 59
t-226.5 163.5t-143 250t-51 315.5zM256 768q0 -272 144.5 -438t387.5 -166t388 166t145 438t-145 438t-388 166t-387.5 -166t-144.5 -438z" />
    <glyph glyph-name="obreve" unicode="&#x14f;" horiz-adv-x="1220" 
d="M360 1430h52q10 -53 67 -75t133 -22t132.5 22t66.5 75h51q-13 -91 -83 -145t-167 -54q-99 0 -169 54t-83 145zM72 563q0 169 63 301t186 207.5t289 75.5t289 -75.5t186.5 -207.5t63.5 -301t-63.5 -300.5t-186.5 -207t-289 -75.5t-289 75.5t-186 207t-63 300.5zM236 563
q0 -190 97 -305t277 -115t277.5 115t97.5 305t-97.5 305t-277.5 115t-277 -115t-97 -305z" />
    <glyph glyph-name="Ohungarumlaut" unicode="&#x150;" horiz-adv-x="1576" 
d="M518 1642v21l152 344h184v-20l-252 -345h-84zM805 1642v21l151 344h185v-20l-252 -345h-84zM72 768q0 170 51 315.5t143 250t226.5 163.5t295.5 59q214 0 378 -101.5t251.5 -280t87.5 -406.5t-87.5 -406.5t-251.5 -280t-378 -101.5q-161 0 -295.5 59t-226.5 163.5
t-143 250t-51 315.5zM256 768q0 -272 144.5 -438t387.5 -166t388 166t145 438t-145 438t-388 166t-387.5 -166t-144.5 -438z" />
    <glyph glyph-name="ohungarumlaut" unicode="&#x151;" horiz-adv-x="1220" 
d="M424 1233h-84v20l152 344h184v-20zM711 1233h-84v20l151 344h185v-20zM72 563q0 169 63 301t186 207.5t289 75.5t289 -75.5t186.5 -207.5t63.5 -301t-63.5 -300.5t-186.5 -207t-289 -75.5t-289 75.5t-186 207t-63 300.5zM236 563q0 -190 97 -305t277 -115t277.5 115
t97.5 305t-97.5 305t-277.5 115t-277 -115t-97 -305z" />
    <glyph glyph-name="OE" unicode="&#x152;" horiz-adv-x="2514" 
d="M72 768q0 170 51 315.5t143 250t226.5 163.5t295.5 59q166 0 301.5 -61.5t231.5 -173.5v215h1106v-184h-922v-492h717v-184h-717v-492h922v-184h-1106v215q-96 -112 -231.5 -173.5t-301.5 -61.5q-161 0 -295.5 59t-226.5 163.5t-143 250t-51 315.5zM256 768
q0 -272 144.5 -438t387.5 -166t388 166t145 438t-145 438t-388 166t-387.5 -166t-144.5 -438z" />
    <glyph glyph-name="oe" unicode="&#x153;" horiz-adv-x="2115" 
d="M72 563q0 169 63 301t186 207.5t289 75.5q155 0 272.5 -66t184.5 -184q67 118 184.5 184t272.5 66q133 0 240 -56t171 -150t91.5 -216t9.5 -254h-881q22 -152 117.5 -240t251.5 -88q182 0 278 117l113 -121q-146 -159 -391 -159q-155 0 -272.5 65.5t-184.5 183.5
q-67 -118 -184.5 -183.5t-272.5 -65.5q-166 0 -289 75.5t-186 207t-63 300.5zM236 563q0 -190 97 -305t277 -115t277.5 115t97.5 305t-97.5 305t-277.5 115t-277 -115t-97 -305zM1153 635h723q-16 152 -106.5 250t-245.5 98q-162 0 -257.5 -94t-113.5 -254z" />
    <glyph glyph-name="Racute" unicode="&#x154;" horiz-adv-x="1290" 
d="M463 1642v21l151 344h185v-20l-252 -345h-84zM1034 0l-297 645h-461v-645h-184v1536h692q194 0 309 -123.5t115 -322.5q0 -161 -78 -275.5t-215 -152.5l304 -662h-185zM784 829q118 0 179 71t61 190q0 120 -61 191t-179 71h-508v-523h508z" />
    <glyph glyph-name="racute" unicode="&#x155;" horiz-adv-x="761" 
d="M250 1233v20l151 344h185v-20l-252 -344h-84zM92 1126h92l58 -165q104 186 323 186q65 0 135 -17l-32 -163q-50 16 -103 16q-138 0 -223.5 -88.5t-85.5 -226.5v-668h-164v1126z" />
    <glyph glyph-name="uni0156" unicode="&#x156;" horiz-adv-x="1290" 
d="M1034 0l-297 645h-461v-645h-184v1536h692q194 0 309 -123.5t115 -322.5q0 -161 -78 -275.5t-215 -152.5l304 -662h-185zM784 829q118 0 179 71t61 190q0 120 -61 191t-179 71h-508v-523h508zM528 -141q0 46 28.5 74t74.5 28t74 -28t28 -74q0 -31 -28 -99l-56 -133h-41
l39 129q-119 0 -119 103z" />
    <glyph glyph-name="uni0157" unicode="&#x157;" horiz-adv-x="761" 
d="M92 1126h92l58 -165q104 186 323 186q65 0 135 -17l-32 -163q-50 16 -103 16q-138 0 -223.5 -88.5t-85.5 -226.5v-668h-164v1126zM72 -141q0 46 28 74t74 28t74 -28t28 -74q0 -31 -28 -99l-55 -133h-41l38 129q-118 0 -118 103z" />
    <glyph glyph-name="Rcaron" unicode="&#x158;" horiz-adv-x="1290" 
d="M584 1642l-252 345v20h82l217 -219l215 219h82v-20l-252 -345h-92zM1034 0l-297 645h-461v-645h-184v1536h692q194 0 309 -123.5t115 -322.5q0 -161 -78 -275.5t-215 -152.5l304 -662h-185zM784 829q118 0 179 71t61 190q0 120 -61 191t-179 71h-508v-523h508z" />
    <glyph glyph-name="rcaron" unicode="&#x159;" horiz-adv-x="761" 
d="M350 1233l-252 344v20h82l217 -219l215 219h82v-20l-252 -344h-92zM92 1126h92l58 -165q104 186 323 186q65 0 135 -17l-32 -163q-50 16 -103 16q-138 0 -223.5 -88.5t-85.5 -226.5v-668h-164v1126z" />
    <glyph glyph-name="Sacute" unicode="&#x15a;" 
d="M518 1642v21l152 344h184v-20l-252 -345h-84zM74 1102q17 217 178 335.5t444 118.5q194 0 328.5 -54.5t235.5 -162.5l-134 -139q-94 87 -192 129.5t-238 42.5q-187 0 -297 -63t-131 -170q-8 -44 0.5 -79.5t42 -63.5t62.5 -46t94.5 -37.5t101.5 -28.5t119 -27
q81 -18 123.5 -28t116 -32t113.5 -42.5t91 -54.5t75.5 -72t40 -92t9.5 -118q-21 -210 -174 -324t-428 -114q-379 0 -583 217l133 139q91 -84 199 -128t251 -44q179 0 279.5 58.5t126.5 162.5q14 57 -6 101t-65 71.5t-109 51t-139 39t-155 36t-157 40.5t-144 53.5t-116.5 75
t-75.5 105.5t-20 144z" />
    <glyph glyph-name="sacute" unicode="&#x15b;" horiz-adv-x="1071" 
d="M473 1233h-84v20l152 344h184v-20zM825 289q16 34 -14 65t-92 56.5t-141 51t-163.5 55t-156.5 62.5t-122 78.5t-58 98.5q-15 95 18.5 171t102 123t157.5 72t189 25q133 0 253.5 -43t194.5 -125l-112 -123q-57 63 -145.5 95t-184.5 32q-107 0 -192 -36.5t-111 -98.5
q-17 -41 27.5 -78t124.5 -64.5t178.5 -62t187 -68.5t153 -85.5t74.5 -110.5q16 -95 -17.5 -171t-101.5 -123t-157 -72t-189 -25q-134 0 -255 43t-195 125l110 120q149 -124 344 -124q103 0 184 38t109 99z" />
    <glyph glyph-name="Scircumflex" unicode="&#x15c;" 
d="M621 2007h92l252 -344v-21h-82l-215 220l-217 -220h-82v21zM74 1102q17 217 178 335.5t444 118.5q194 0 328.5 -54.5t235.5 -162.5l-134 -139q-94 87 -192 129.5t-238 42.5q-187 0 -297 -63t-131 -170q-8 -44 0.5 -79.5t42 -63.5t62.5 -46t94.5 -37.5t101.5 -28.5
t119 -27q81 -18 123.5 -28t116 -32t113.5 -42.5t91 -54.5t75.5 -72t40 -92t9.5 -118q-21 -210 -174 -324t-428 -114q-379 0 -583 217l133 139q91 -84 199 -128t251 -44q179 0 279.5 58.5t126.5 162.5q14 57 -6 101t-65 71.5t-109 51t-139 39t-155 36t-157 40.5t-144 53.5
t-116.5 75t-75.5 105.5t-20 144z" />
    <glyph glyph-name="scircumflex" unicode="&#x15d;" horiz-adv-x="1071" 
d="M238 1253l251 344h93l252 -344v-20h-82l-215 219l-218 -219h-81v20zM825 289q16 34 -14 65t-92 56.5t-141 51t-163.5 55t-156.5 62.5t-122 78.5t-58 98.5q-15 95 18.5 171t102 123t157.5 72t189 25q133 0 253.5 -43t194.5 -125l-112 -123q-57 63 -145.5 95t-184.5 32
q-107 0 -192 -36.5t-111 -98.5q-17 -41 27.5 -78t124.5 -64.5t178.5 -62t187 -68.5t153 -85.5t74.5 -110.5q16 -95 -17.5 -171t-101.5 -123t-157 -72t-189 -25q-134 0 -255 43t-195 125l110 120q149 -124 344 -124q103 0 184 38t109 99z" />
    <glyph glyph-name="Scedilla" unicode="&#x15e;" 
d="M74 1102q17 217 178 335.5t444 118.5q194 0 328.5 -54.5t235.5 -162.5l-134 -139q-94 87 -192 129.5t-238 42.5q-187 0 -297 -63t-131 -170q-8 -44 0.5 -79.5t42 -63.5t62.5 -46t94.5 -37.5t101.5 -28.5t119 -27q81 -18 123.5 -28t116 -32t113.5 -42.5t91 -54.5t75.5 -72
t40 -92t9.5 -118q-19 -200 -159.5 -314t-392.5 -124l-9 -29q57 -19 93 -68t36 -110q0 -78 -54 -133.5t-132 -55.5q-77 0 -133 56l61 63q29 -29 70 -29q42 0 69 28t27 71t-26.5 70.5t-69.5 27.5h-49l30 109q-350 8 -546 217l133 139q91 -84 199 -128t251 -44
q179 0 279.5 58.5t126.5 162.5q14 57 -6 101t-65 71.5t-109 51t-139 39t-155 36t-157 40.5t-144 53.5t-116.5 75t-75.5 105.5t-20 144z" />
    <glyph glyph-name="scedilla" unicode="&#x15f;" horiz-adv-x="1071" 
d="M825 289q16 34 -14 65t-92 56.5t-141 51t-163.5 55t-156.5 62.5t-122 78.5t-58 98.5q-15 95 18.5 171t102 123t157.5 72t189 25q133 0 253.5 -43t194.5 -125l-112 -123q-57 63 -145.5 95t-184.5 32q-107 0 -192 -36.5t-111 -98.5q-17 -41 27.5 -78t124.5 -64.5t178.5 -62
t187 -68.5t153 -85.5t74.5 -110.5q14 -88 -14.5 -161t-89 -120t-140 -74.5t-171.5 -33.5l-11 -39q57 -19 93 -68t36 -110q0 -78 -54 -133.5t-132 -55.5q-77 0 -133 56l61 63q29 -29 70 -29q42 0 69 28t27 71t-26.5 70.5t-69.5 27.5h-49l33 117q-124 6 -234 49t-180 119
l110 120q149 -124 344 -124q103 0 184 38t109 99z" />
    <glyph glyph-name="Scaron" unicode="&#x160;" 
d="M621 1642l-252 345v20h82l217 -219l215 219h82v-20l-252 -345h-92zM74 1102q17 217 178 335.5t444 118.5q194 0 328.5 -54.5t235.5 -162.5l-134 -139q-94 87 -192 129.5t-238 42.5q-187 0 -297 -63t-131 -170q-8 -44 0.5 -79.5t42 -63.5t62.5 -46t94.5 -37.5t101.5 -28.5
t119 -27q81 -18 123.5 -28t116 -32t113.5 -42.5t91 -54.5t75.5 -72t40 -92t9.5 -118q-21 -210 -174 -324t-428 -114q-379 0 -583 217l133 139q91 -84 199 -128t251 -44q179 0 279.5 58.5t126.5 162.5q14 57 -6 101t-65 71.5t-109 51t-139 39t-155 36t-157 40.5t-144 53.5
t-116.5 75t-75.5 105.5t-20 144z" />
    <glyph glyph-name="scaron" unicode="&#x161;" horiz-adv-x="1071" 
d="M582 1233h-93l-251 344v20h81l218 -219l215 219h82v-20zM825 289q16 34 -14 65t-92 56.5t-141 51t-163.5 55t-156.5 62.5t-122 78.5t-58 98.5q-15 95 18.5 171t102 123t157.5 72t189 25q133 0 253.5 -43t194.5 -125l-112 -123q-57 63 -145.5 95t-184.5 32
q-107 0 -192 -36.5t-111 -98.5q-17 -41 27.5 -78t124.5 -64.5t178.5 -62t187 -68.5t153 -85.5t74.5 -110.5q16 -95 -17.5 -171t-101.5 -123t-157 -72t-189 -25q-134 0 -255 43t-195 125l110 120q149 -124 344 -124q103 0 184 38t109 99z" />
    <glyph glyph-name="uni0162" unicode="&#x162;" horiz-adv-x="1290" 
d="M61 1536h1168v-184h-492v-1352h-47l-14 -49q57 -19 93 -68t36 -110q0 -78 -54.5 -133.5t-132.5 -55.5q-77 0 -133 56l62 63q29 -29 69 -29q43 0 70 28t27 71t-27 70.5t-70 27.5h-49l37 129h-51v1352h-492v184z" />
    <glyph glyph-name="uni0163" unicode="&#x163;" horiz-adv-x="743" 
d="M563 195l119 -119q-93 -96 -260 -96l-8 -29q57 -19 93 -68t36 -110q0 -78 -54.5 -133.5t-132.5 -55.5q-77 0 -133 56l62 63q29 -29 69 -29q43 0 70 28t27 71t-27 70.5t-70 27.5h-49l33 119q-119 26 -187.5 116t-68.5 222v1024h164v-226h286v-163h-286v-635
q0 -83 50.5 -134t133.5 -51q84 0 133 52z" />
    <glyph glyph-name="Tcaron" unicode="&#x164;" horiz-adv-x="1290" 
d="M600 1642l-252 345v20h82l217 -219l215 219h82v-20l-252 -345h-92zM61 1536h1168v-184h-492v-1352h-184v1352h-492v184z" />
    <glyph glyph-name="tcaron" unicode="&#x165;" horiz-adv-x="757" 
d="M426 1438h-92l-252 344v20h82l217 -219l215 219h82v-20zM567 195l119 -119q-93 -96 -252 -96q-157 0 -252.5 95.5t-95.5 252.5v1024h164v-226h287v-163h-287v-635q0 -83 50.5 -134t133.5 -51q84 0 133 52z" />
    <glyph glyph-name="Tbar" unicode="&#x166;" horiz-adv-x="1290" 
d="M61 1536h1168v-184h-492v-226h172v-100h-172v-1026h-184v1026h-172v100h172v226h-492v184z" />
    <glyph glyph-name="tbar" unicode="&#x167;" horiz-adv-x="743" 
d="M348 670h-102v-342q0 -83 50.5 -134t133.5 -51q84 0 133 52l119 -119q-93 -96 -252 -96q-157 0 -252.5 95.5t-95.5 252.5v342h-102v100h102v582h164v-226h286v-163h-286v-193h102v-100z" />
    <glyph glyph-name="Utilde" unicode="&#x168;" horiz-adv-x="1269" 
d="M553 1692q-41 12 -64 12q-61 0 -61 -55h-90q0 61 36.5 111t108.5 50q31 0 71 -9.5t101 -30t64 -21.5q37 -12 63 -12q64 0 64 57h88q0 -62 -36 -112t-107 -50q-25 0 -62 7.5t-60.5 15t-66.5 21.5t-49 16zM1004 563v973h184v-973q0 -112 -31 -207.5t-84 -162.5t-124 -114.5
t-150.5 -70t-163.5 -22.5t-163.5 22.5t-150.5 70t-124 114.5t-84 162.5t-31 207.5v973h184v-973q0 -95 31.5 -171.5t84 -124t118 -72.5t135.5 -25t135.5 25t118 72.5t84 124t31.5 171.5z" />
    <glyph glyph-name="utilde" unicode="&#x169;" horiz-adv-x="1122" 
d="M479 1282q-41 12 -63 12q-62 0 -62 -55h-90q0 61 37 111.5t109 50.5q31 0 72 -10t98.5 -30t64.5 -22q38 -12 64 -12q63 0 63 57h88q0 -62 -36 -111.5t-107 -49.5q-25 0 -62.5 7.5t-59 14t-68.5 22t-48 15.5zM1030 0h-92l-57 166q-104 -186 -324 -186q-210 0 -339.5 133.5
t-129.5 345.5v667h164v-667q0 -138 85 -227t220 -89q138 0 223.5 89t85.5 227v667h164v-1126z" />
    <glyph glyph-name="Umacron" unicode="&#x16a;" horiz-adv-x="1249" 
d="M889 1642h-529v101h529v-101zM993 563v973h185v-973q0 -112 -31 -207.5t-84 -162.5t-124 -114.5t-150.5 -70t-163.5 -22.5t-163.5 22.5t-150.5 70t-124 114.5t-84 162.5t-31 207.5v973h184v-973q0 -95 31.5 -171.5t84 -124t118 -72.5t135.5 -25t135 25t117.5 72.5t84 124
t31.5 171.5z" />
    <glyph glyph-name="umacron" unicode="&#x16b;" horiz-adv-x="1122" 
d="M825 1235h-528v100h528v-100zM1030 0h-92l-57 166q-104 -186 -324 -186q-210 0 -339.5 133.5t-129.5 345.5v667h164v-667q0 -138 85 -227t220 -89q138 0 223.5 89t85.5 227v667h164v-1126z" />
    <glyph glyph-name="Ubreve" unicode="&#x16c;" horiz-adv-x="1249" 
d="M375 1839h51q17 -96 201 -96q181 0 198 96h52q-13 -91 -83 -145t-167 -54q-99 0 -169 54t-83 145zM993 563v973h185v-973q0 -112 -31 -207.5t-84 -162.5t-124 -114.5t-150.5 -70t-163.5 -22.5t-163.5 22.5t-150.5 70t-124 114.5t-84 162.5t-31 207.5v973h184v-973
q0 -95 31.5 -171.5t84 -124t118 -72.5t135.5 -25t135 25t117.5 72.5t84 124t31.5 171.5z" />
    <glyph glyph-name="ubreve" unicode="&#x16d;" horiz-adv-x="1122" 
d="M311 1430h51q10 -53 67.5 -75t133.5 -22t132.5 22t66.5 75h51q-13 -91 -83 -145t-167 -54q-99 0 -169 54t-83 145zM1030 0h-92l-57 166q-104 -186 -324 -186q-210 0 -339.5 133.5t-129.5 345.5v667h164v-667q0 -138 85 -227t220 -89q138 0 223.5 89t85.5 227v667h164
v-1126z" />
    <glyph glyph-name="Uring" unicode="&#x16e;" horiz-adv-x="1249" 
d="M373 1772q0 105 73.5 179t180.5 74q104 0 178 -74.5t74 -178.5q0 -106 -74 -181t-178 -75q-107 0 -180.5 75t-73.5 181zM496 1772q0 -58 37 -96t94 -38t93 37.5t36 96.5t-36 96t-93 37t-94 -37.5t-37 -95.5zM993 563v973h185v-973q0 -112 -31 -207.5t-84 -162.5
t-124 -114.5t-150.5 -70t-163.5 -22.5t-163.5 22.5t-150.5 70t-124 114.5t-84 162.5t-31 207.5v973h184v-973q0 -95 31.5 -171.5t84 -124t118 -72.5t135.5 -25t135 25t117.5 72.5t84 124t31.5 171.5z" />
    <glyph glyph-name="uring" unicode="&#x16f;" horiz-adv-x="1122" 
d="M309 1362q0 105 73.5 179.5t180.5 74.5q104 0 178 -75t74 -179q0 -106 -74 -181t-178 -75q-107 0 -180.5 75t-73.5 181zM432 1362q0 -58 37 -95.5t94 -37.5t93 37t36 96t-36 96t-93 37t-94 -37.5t-37 -95.5zM1030 0h-92l-57 166q-104 -186 -324 -186q-210 0 -339.5 133.5
t-129.5 345.5v667h164v-667q0 -138 85 -227t220 -89q138 0 223.5 89t85.5 227v667h164v-1126z" />
    <glyph glyph-name="Uhungarumlaut" unicode="&#x170;" horiz-adv-x="1249" 
d="M334 1642v21l151 344h185v-20l-252 -345h-84zM621 1642v21l151 344h184v-20l-251 -345h-84zM993 563v973h185v-973q0 -112 -31 -207.5t-84 -162.5t-124 -114.5t-150.5 -70t-163.5 -22.5t-163.5 22.5t-150.5 70t-124 114.5t-84 162.5t-31 207.5v973h184v-973
q0 -95 31.5 -171.5t84 -124t118 -72.5t135.5 -25t135 25t117.5 72.5t84 124t31.5 171.5z" />
    <glyph glyph-name="uhungarumlaut" unicode="&#x171;" horiz-adv-x="1122" 
d="M250 1233v20l151 344h185v-20l-252 -344h-84zM537 1233v20l151 344h184v-20l-251 -344h-84zM1030 0h-92l-57 166q-104 -186 -324 -186q-210 0 -339.5 133.5t-129.5 345.5v667h164v-667q0 -138 85 -227t220 -89q138 0 223.5 89t85.5 227v667h164v-1126z" />
    <glyph glyph-name="Uogonek" unicode="&#x172;" horiz-adv-x="1249" 
d="M993 563v973h185v-973q0 -128 -40 -234t-109 -175.5t-154.5 -111t-182.5 -52.5q-46 -19 -57 -76.5t16 -102.5t76 -32l4 -70q-82 -15 -139.5 24t-69.5 109q-15 82 41 148q-98 10 -184.5 51.5t-156 111t-110 175.5t-40.5 235v973h184v-973q0 -95 31.5 -171.5t84 -124
t118 -72.5t135.5 -25t135 25t117.5 72.5t84 124t31.5 171.5z" />
    <glyph glyph-name="uogonek" unicode="&#x173;" horiz-adv-x="1122" 
d="M1030 0h-18q-63 0 -86 -64q-20 -57 5 -110q28 -56 81 -43l4 -70q-82 -15 -139.5 24t-69.5 109q-12 64 21.5 119t93.5 82l-41 119q-104 -186 -324 -186q-210 0 -339.5 133.5t-129.5 345.5v667h164v-667q0 -138 85 -227t220 -89q138 0 223.5 89t85.5 227v667h164v-1126z
" />
    <glyph glyph-name="Wcircumflex" unicode="&#x174;" horiz-adv-x="2285" 
d="M1098 2007h92l252 -344v-21h-82l-215 220l-217 -220h-82v21zM1081 1536h123l416 -1153l416 1153h198l-553 -1536h-122l-416 1155l-416 -1155h-123l-553 1536h199l416 -1153z" />
    <glyph glyph-name="wcircumflex" unicode="&#x175;" horiz-adv-x="1863" 
d="M887 1597h92l252 -344v-20h-82l-215 219l-217 -219h-82v20zM522 0l-471 1126h185l327 -782l328 782h82l327 -782l328 782h184l-471 -1126h-81l-328 784l-328 -784h-82z" />
    <glyph glyph-name="Ycircumflex" unicode="&#x176;" 
d="M621 2007h92l252 -344v-21h-82l-215 220l-217 -220h-82v21zM573 645l-522 891h205l410 -696l409 696h205l-522 -891v-645h-185v645z" />
    <glyph glyph-name="ycircumflex" unicode="&#x177;" horiz-adv-x="1126" 
d="M518 1597h92l252 -344v-20h-82l-215 219l-217 -219h-82v20zM248 -410l223 533l-420 1003h185l327 -782l328 782h184l-471 -1124v-2l-172 -410h-184z" />
    <glyph glyph-name="Ydieresis" unicode="&#x178;" 
d="M430 1745q0 46 29 74t76 28q44 0 72 -28t28 -74q0 -47 -28 -76t-72 -29q-47 0 -76 29t-29 76zM696 1745q0 46 29 74t76 28q44 0 72 -28t28 -74q0 -47 -28 -76t-72 -29q-47 0 -76 29t-29 76zM573 645l-522 891h205l410 -696l409 696h205l-522 -891v-645h-185v645z" />
    <glyph glyph-name="Zacute" unicode="&#x179;" horiz-adv-x="1269" 
d="M467 1642v21l151 344h185v-20l-252 -345h-84zM82 184l879 1168h-879v184h1106v-184l-879 -1168h879v-184h-1106v184z" />
    <glyph glyph-name="zacute" unicode="&#x17a;" horiz-adv-x="1105" 
d="M365 1233v20l151 344h184v-20l-251 -344h-84zM82 164l676 799h-676v163h942v-163l-676 -799h676v-164h-942v164z" />
    <glyph glyph-name="Zdotaccent" unicode="&#x17b;" horiz-adv-x="1269" 
d="M518 1759q0 54 32.5 86.5t86.5 32.5q53 0 85 -32.5t32 -86.5t-32 -86.5t-85 -32.5q-54 0 -86.5 32.5t-32.5 86.5zM82 184l879 1168h-879v184h1106v-184l-879 -1168h879v-184h-1106v184z" />
    <glyph glyph-name="zdotaccent" unicode="&#x17c;" horiz-adv-x="1105" 
d="M416 1350q0 54 32.5 86t86.5 32q53 0 84.5 -32t31.5 -86t-31.5 -86.5t-84.5 -32.5q-54 0 -86.5 32.5t-32.5 86.5zM82 164l676 799h-676v163h942v-163l-676 -799h676v-164h-942v164z" />
    <glyph glyph-name="Zcaron" unicode="&#x17d;" horiz-adv-x="1269" 
d="M590 1642l-252 345v20h82l217 -219l215 219h82v-20l-252 -345h-92zM82 184l879 1168h-879v184h1106v-184l-879 -1168h879v-184h-1106v184z" />
    <glyph glyph-name="zcaron" unicode="&#x17e;" horiz-adv-x="1105" 
d="M487 1233l-251 344v20h81l218 -219l215 219h81v-20l-251 -344h-93zM82 164l676 799h-676v163h942v-163l-676 -799h676v-164h-942v164z" />
    <glyph glyph-name="uni0218" unicode="&#x218;" 
d="M74 1102q17 217 178 335.5t444 118.5q194 0 328.5 -54.5t235.5 -162.5l-134 -139q-94 87 -192 129.5t-238 42.5q-187 0 -297 -63t-131 -170q-8 -44 0.5 -79.5t42 -63.5t62.5 -46t94.5 -37.5t101.5 -28.5t119 -27q81 -18 123.5 -28t116 -32t113.5 -42.5t91 -54.5t75.5 -72
t40 -92t9.5 -118q-21 -210 -174 -324t-428 -114q-379 0 -583 217l133 139q91 -84 199 -128t251 -44q179 0 279.5 58.5t126.5 162.5q14 57 -6 101t-65 71.5t-109 51t-139 39t-155 36t-157 40.5t-144 53.5t-116.5 75t-75.5 105.5t-20 144zM563 -162q0 46 28.5 74.5t74.5 28.5
t74 -28.5t28 -74.5q0 -27 -29 -98l-55 -133h-41l39 129q-119 0 -119 102z" />
    <glyph glyph-name="uni0219" unicode="&#x219;" horiz-adv-x="1071" 
d="M825 289q16 34 -14 65t-92 56.5t-141 51t-163.5 55t-156.5 62.5t-122 78.5t-58 98.5q-15 95 18.5 171t102 123t157.5 72t189 25q133 0 253.5 -43t194.5 -125l-112 -123q-57 63 -145.5 95t-184.5 32q-107 0 -192 -36.5t-111 -98.5q-17 -41 27.5 -78t124.5 -64.5t178.5 -62
t187 -68.5t153 -85.5t74.5 -110.5q16 -95 -17.5 -171t-101.5 -123t-157 -72t-189 -25q-134 0 -255 43t-195 125l110 120q149 -124 344 -124q103 0 184 38t109 99zM434 -152q0 46 28.5 74.5t74.5 28.5t74 -28.5t28 -74.5q0 -27 -29 -98l-55 -133h-41l39 129q-119 0 -119 102z
" />
    <glyph glyph-name="uni021A" unicode="&#x21a;" horiz-adv-x="1290" 
d="M61 1536h1168v-184h-492v-1352h-184v1352h-492v184zM543 -141q0 46 28 74t74 28t74.5 -28t28.5 -74q0 -28 -29 -99l-55 -133h-41l39 129q-119 0 -119 103z" />
    <glyph glyph-name="uni021B" unicode="&#x21b;" horiz-adv-x="743" 
d="M563 195l119 -119q-93 -96 -252 -96q-157 0 -252.5 95.5t-95.5 252.5v1024h164v-226h286v-163h-286v-635q0 -83 50.5 -134t133.5 -51q84 0 133 52zM281 -152q0 46 28 74.5t74 28.5t74 -28.5t28 -74.5q0 -30 -28 -98l-56 -133h-41l39 129q-118 0 -118 102z" />
    <glyph glyph-name="uni0237" unicode="&#x237;" horiz-adv-x="344" 
d="M-31 -410v164q75 0 99 45.5t24 139.5v1187h164v-1187q0 -349 -287 -349z" />
    <glyph glyph-name="circumflex" unicode="&#x2c6;" horiz-adv-x="780" 
d="M344 1536h92l252 -344v-21h-82l-215 220l-217 -220h-82v21z" />
    <glyph glyph-name="caron" unicode="&#x2c7;" horiz-adv-x="780" 
d="M344 1171l-252 345v20h82l217 -219l215 219h82v-20l-252 -345h-92z" />
    <glyph glyph-name="uni02C9" unicode="&#x2c9;" horiz-adv-x="1003" 
d="M911 655h-819v144h819v-144z" />
    <glyph glyph-name="breve" unicode="&#x2d8;" horiz-adv-x="686" 
d="M92 1368h51q17 -96 201 -96q182 0 199 96h51q-13 -91 -83 -145t-167 -54q-99 0 -169 54t-83 145z" />
    <glyph glyph-name="dotaccent" unicode="&#x2d9;" horiz-adv-x="419" 
d="M92 1288q0 54 32.5 86.5t86.5 32.5q53 0 85 -32.5t32 -86.5t-32 -86.5t-85 -32.5q-54 0 -86.5 32.5t-32.5 86.5z" />
    <glyph glyph-name="ring" unicode="&#x2da;" horiz-adv-x="690" 
d="M92 1300q0 105 73.5 179.5t180.5 74.5q104 0 178 -75t74 -179q0 -106 -74 -181t-178 -75q-107 0 -180.5 75t-73.5 181zM215 1300q0 -58 37 -95.5t94 -37.5t93 37t36 96t-36 96.5t-93 37.5t-94 -38t-37 -96z" />
    <glyph glyph-name="ogonek" unicode="&#x2db;" horiz-adv-x="397" 
d="M301 -217l4 -70q-82 -15 -139.5 24t-69.5 109q-17 88 47.5 155t155.5 67l2 -68q-63 0 -86 -64q-20 -57 5 -110q28 -56 81 -43z" />
    <glyph glyph-name="tilde" unicode="&#x2dc;" horiz-adv-x="780" 
d="M307 1221q-40 12 -63 12q-62 0 -62 -55h-90q0 61 37 111t109 50q31 0 71 -9.5t100 -30t64 -21.5q38 -12 64 -12q63 0 63 57h88q0 -62 -36 -112t-107 -50q-25 0 -62 7.5t-60.5 15t-66.5 21.5t-49 16z" />
    <glyph glyph-name="hungarumlaut" unicode="&#x2dd;" horiz-adv-x="806" 
d="M92 1171v21l152 344h184v-20l-252 -345h-84zM379 1171v21l151 344h185v-20l-252 -345h-84z" />
    <glyph glyph-name="uni0326" unicode="&#x326;" horiz-adv-x="389" 
d="M92 -141q0 46 28.5 74t74.5 28t74 -28t28 -74q0 -28 -29 -99l-55 -133h-41l39 129q-119 0 -119 103z" />
    <glyph glyph-name="Wgrave" unicode="&#x1e80;" horiz-adv-x="2285" 
d="M1290 1642h-84l-252 345v20h185l151 -344v-21zM1081 1536h123l416 -1153l416 1153h198l-553 -1536h-122l-416 1155l-416 -1155h-123l-553 1536h199l416 -1153z" />
    <glyph glyph-name="wgrave" unicode="&#x1e81;" horiz-adv-x="1863" 
d="M1100 1233h-84l-252 344v20h184l152 -344v-20zM522 0l-471 1126h185l327 -782l328 782h82l327 -782l328 782h184l-471 -1126h-81l-328 784l-328 -784h-82z" />
    <glyph glyph-name="Wacute" unicode="&#x1e82;" horiz-adv-x="2285" 
d="M995 1642v21l152 344h184v-20l-252 -345h-84zM1081 1536h123l416 -1153l416 1153h198l-553 -1536h-122l-416 1155l-416 -1155h-123l-553 1536h199l416 -1153z" />
    <glyph glyph-name="wacute" unicode="&#x1e83;" horiz-adv-x="1863" 
d="M764 1233v20l151 344h185v-20l-252 -344h-84zM522 0l-471 1126h185l327 -782l328 782h82l327 -782l328 782h184l-471 -1126h-81l-328 784l-328 -784h-82z" />
    <glyph glyph-name="Wdieresis" unicode="&#x1e84;" horiz-adv-x="2285" 
d="M907 1745q0 46 29 74t76 28q44 0 72 -28t28 -74q0 -47 -28 -76t-72 -29q-47 0 -76 29t-29 76zM1174 1745q0 46 28.5 74t75.5 28q44 0 72 -28t28 -74q0 -47 -28 -76t-72 -29q-47 0 -75.5 29t-28.5 76zM1081 1536h123l416 -1153l416 1153h198l-553 -1536h-122l-416 1155
l-416 -1155h-123l-553 1536h199l416 -1153z" />
    <glyph glyph-name="wdieresis" unicode="&#x1e85;" horiz-adv-x="1863" 
d="M696 1335q0 46 29 74.5t76 28.5q44 0 72 -28.5t28 -74.5q0 -47 -27.5 -75.5t-72.5 -28.5q-47 0 -76 28.5t-29 75.5zM963 1335q0 46 28.5 74.5t75.5 28.5q44 0 72 -28.5t28 -74.5q0 -47 -27.5 -75.5t-72.5 -28.5q-47 0 -75.5 28.5t-28.5 75.5zM522 0l-471 1126h185
l327 -782l328 782h82l327 -782l328 782h184l-471 -1126h-81l-328 784l-328 -784h-82z" />
    <glyph glyph-name="endash" unicode="&#x2013;" horiz-adv-x="1384" 
d="M1290 649h-1198v144h1198v-144z" />
    <glyph glyph-name="emdash" unicode="&#x2014;" horiz-adv-x="1953" 
d="M1862 647h-1768v144h1768v-144z" />
    <glyph glyph-name="quoteleft" unicode="&#x2018;" horiz-adv-x="389" 
d="M297 1251q0 -46 -28 -74t-74 -28t-74.5 28t-28.5 74q0 28 29 99l55 133h41l-39 -129q119 0 119 -103z" />
    <glyph glyph-name="quoteright" unicode="&#x2019;" horiz-adv-x="389" 
d="M92 1380q0 46 28.5 74.5t74.5 28.5t74 -28.5t28 -74.5q0 -27 -29 -98l-55 -133h-41l39 129q-119 0 -119 102z" />
    <glyph glyph-name="quotesinglbase" unicode="&#x201a;" horiz-adv-x="389" 
d="M92 82q0 46 28.5 74t74.5 28t74 -28t28 -74q0 -27 -29 -98l-55 -134h-41l39 130q-119 0 -119 102z" />
    <glyph glyph-name="quotedblleft" unicode="&#x201c;" horiz-adv-x="632" 
d="M541 1339q0 -46 -28.5 -74t-74.5 -28t-74 28t-28 74q0 28 29 99l55 133h41l-39 -129q119 0 119 -103zM297 1339q0 -46 -28 -74t-74 -28t-74.5 28t-28.5 74q0 28 29 99l55 133h41l-39 -129q119 0 119 -103z" />
    <glyph glyph-name="quotedblright" unicode="&#x201d;" horiz-adv-x="632" 
d="M92 1464q0 46 28.5 74.5t74.5 28.5t74 -28.5t28 -74.5q0 -27 -29 -98l-55 -133h-41l39 129q-119 0 -119 102zM336 1464q0 46 28 74.5t74 28.5t74.5 -28.5t28.5 -74.5q0 -27 -29 -98l-55 -133h-41l39 129q-119 0 -119 102z" />
    <glyph glyph-name="quotedblbase" unicode="&#x201e;" horiz-adv-x="632" 
d="M92 82q0 46 28.5 74t74.5 28t74 -28t28 -74q0 -27 -29 -98l-55 -134h-41l39 130q-119 0 -119 102zM336 82q0 46 28 74t74 28t74.5 -28t28.5 -74q0 -27 -29 -98l-55 -134h-41l39 130q-119 0 -119 102z" />
    <glyph glyph-name="dagger" unicode="&#x2020;" horiz-adv-x="1003" 
d="M410 -410v1465h-318v143h318v399h184v-399h317v-143h-317v-1465h-184z" />
    <glyph glyph-name="bullet" unicode="&#x2022;" horiz-adv-x="512" 
d="M92 727q0 82 44.5 132t119.5 50t119.5 -50t44.5 -132q0 -83 -44.5 -133.5t-119.5 -50.5t-119.5 50.5t-44.5 133.5z" />
    <glyph glyph-name="ellipsis" unicode="&#x2026;" horiz-adv-x="1044" 
d="M92 82q0 46 28.5 74t74.5 28t74 -28t28 -74t-28 -74t-74 -28t-74.5 28t-28.5 74zM420 82q0 46 28 74t74 28t74.5 -28t28.5 -74t-28.5 -74t-74.5 -28t-74 28t-28 74zM748 82q0 46 28 74t74 28t74 -28t28 -74t-28 -74t-74 -28t-74 28t-28 74z" />
    <glyph glyph-name="perthousand" unicode="&#x2030;" horiz-adv-x="2240" 
d="M92 1163q0 170 76.5 281.5t210.5 111.5q132 0 208.5 -111.5t76.5 -281.5t-76.5 -281.5t-208.5 -111.5q-134 0 -210.5 111.5t-76.5 281.5zM432 0l512 1536h170l-512 -1536h-170zM225 1163q0 -124 43 -192t111 -68q67 0 109 68t42 192t-42 192t-109 68q-68 0 -111 -68
t-43 -192zM883 373q0 170 76 281.5t210 111.5q132 0 208.5 -111.5t76.5 -281.5t-76.5 -281.5t-208.5 -111.5q-134 0 -210 111.5t-76 281.5zM1577 373q0 170 76.5 281.5t210.5 111.5q132 0 208 -111.5t76 -281.5t-76 -281.5t-208 -111.5q-134 0 -210.5 111.5t-76.5 281.5z
M1016 373q0 -124 42.5 -192t110.5 -68q67 0 109.5 68t42.5 192t-42.5 192t-109.5 68q-68 0 -110.5 -68t-42.5 -192zM1710 373q0 -124 43 -192t111 -68q67 0 109 68t42 192t-42 192t-109 68q-68 0 -111 -68t-43 -192z" />
    <glyph glyph-name="guilsinglleft" unicode="&#x2039;" horiz-adv-x="743" 
d="M682 932l-393 -205l393 -205v-143l-590 307v82l590 307v-143z" />
    <glyph glyph-name="guilsinglright" unicode="&#x203a;" horiz-adv-x="743" 
d="M61 522l394 205l-394 205v143l590 -307v-82l-590 -307v143z" />
    <glyph glyph-name="franc" unicode="&#x20a3;" horiz-adv-x="1286" 
d="M492 276h-216v-276h-184v276h-215v144h215v1116h1106v-184h-922v-492h717v-184h-717v-256h216v-144z" />
    <glyph glyph-name="lira" unicode="&#x20a4;" horiz-adv-x="1187" 
d="M1096 184v-184h-1004v184h21q58 0 90.5 38t32.5 100v186h-123v143h123v103h-123v143h123v199q0 111 35 201t94 147.5t133 88t155 30.5q111 0 213.5 -57.5t167.5 -166.5l-129 -133q-44 85 -107.5 127.5t-133.5 42.5q-99 0 -171.5 -73t-72.5 -187v-219h471v-143h-471v-103
h471v-143h-471v-170q0 -125 -82 -154h758z" />
    <glyph glyph-name="Euro" unicode="&#x20ac;" horiz-adv-x="1519" 
d="M932 819h-533v-12l-2 -27v-12v-12l2 -27v-12h533v-144h-512q46 -190 181 -299.5t329 -109.5q248 0 393 172l125 -137q-96 -105 -228 -162t-290 -57q-274 0 -460 161.5t-239 431.5h-139v144h123v12l-2 27v12v12l2 27v12h-123v144h139q53 270 239 431.5t460 161.5
q158 0 290 -57t228 -162l-125 -137q-145 172 -393 172q-194 0 -329 -109.5t-181 -299.5h512v-144z" />
    <glyph glyph-name="trademark" unicode="&#x2122;" horiz-adv-x="1566" 
d="M74 1489h612v-96h-258v-711h-96v711h-258v96zM737 682v807h64l305 -434l303 434h66v-807h-97v584l-268 -369h-10l-266 369v-584h-97z" />
    <glyph glyph-name="minus" unicode="&#x2212;" horiz-adv-x="1003" 
d="M911 655h-819v144h819v-144z" />
    <glyph glyph-name="uni2215" unicode="&#x2215;" horiz-adv-x="733" 
d="M31 -41l471 1618h170l-471 -1618h-170z" />
    <glyph glyph-name="uni2219" unicode="&#x2219;" horiz-adv-x="507" 
d="M416 727q0 -69 -47.5 -118.5t-114.5 -49.5t-114.5 49.5t-47.5 118.5t47.5 117.5t114.5 48.5t114.5 -48.5t47.5 -117.5z" />
    <glyph glyph-name="approxequal" unicode="&#x2248;" horiz-adv-x="1003" 
d="M387 834q-56 16 -88 16q-42 0 -63 -21t-21 -55h-123q0 37 11 74.5t33.5 71t62.5 54.5t92 21q27 0 59.5 -5t75.5 -17t65 -18.5t72 -23.5t53 -18q56 -16 89 -16q42 0 62.5 21t20.5 55h123q0 -38 -11 -75t-33 -70.5t-62 -54.5t-92 -21q-33 0 -83 10.5t-83 20t-92 29
t-68 22.5zM387 571q-60 17 -88 17q-42 0 -63 -21t-21 -55h-123q0 37 11 74.5t33.5 71t62.5 54.5t92 21q27 0 59.5 -5t75.5 -17t65 -18.5t72 -23.5t53 -18q56 -16 89 -16q42 0 62.5 21t20.5 55h123q0 -38 -11 -75t-33 -71t-62 -55t-92 -21q-33 0 -83 10.5t-83 20t-92 29
t-68 22.5z" />
    <glyph glyph-name="notequal" unicode="&#x2260;" horiz-adv-x="1024" 
d="M348 328l51 204h-307v144h344l25 102h-369v144h406l51 204h129l-51 -204h305v-144h-342l-25 -102h367v-144h-404l-51 -204h-129z" />
    <glyph glyph-name="lessequal" unicode="&#x2264;" horiz-adv-x="1003" 
d="M911 1014l-579 -246l579 -246v-143l-819 348v82l819 348v-143zM911 158h-776v143h776v-143z" />
    <glyph glyph-name="greaterequal" unicode="&#x2265;" horiz-adv-x="1003" 
d="M672 768l-580 246v143l819 -348v-82l-819 -348v143zM868 158h-776v143h776v-143z" />
    <glyph glyph-name="uniE001" unicode="&#xe001;" horiz-adv-x="1241" 
d="M889 260l112 -121q-146 -159 -391 -159q-166 0 -289 75.5t-186 207t-63 300.5t63 301t186 207.5t289 75.5q133 0 240 -56t171 -150t91.5 -216t9.5 -254h-880q22 -152 117 -240t251 -88q183 0 279 117zM240 635h723q-16 152 -107 250t-246 98q-161 0 -256.5 -94
t-113.5 -254z" />
    <glyph glyph-name="uniE002" unicode="&#xe002;" horiz-adv-x="1241" 
d="M92 246v1290h164v-596q132 238 442 203q220 -23 345.5 -181.5t125.5 -398.5q0 -254 -143.5 -408.5t-392.5 -154.5h-541v164h539q182 0 278.5 106t96.5 293q0 190 -97.5 305t-277.5 115t-277.5 -115t-97.5 -305v-317h-164z" />
    <glyph glyph-name="uniE003" unicode="&#xe003;" horiz-adv-x="1241" 
d="M1149 246h-164v317q0 190 -97.5 305t-277.5 115t-277 -115t-97 -305q0 -188 96 -293.5t278 -105.5h539v-164h-541q-249 0 -392.5 154.5t-143.5 408.5q0 240 125.5 398.5t345.5 181.5q310 35 442 -203v596h164v-1290z" />
    <glyph glyph-name="uniE004#1" unicode="&#xe004;" horiz-adv-x="1181" 
d="M889 260l112 -121q-146 -159 -391 -159q-166 0 -289 75.5t-186 207t-63 300.5t63 301t186 207.5t289 75.5q134 0 243 -50.5t173 -145.5t64 -216q0 -88 -38 -159.5t-101 -116t-140.5 -68.5t-161.5 -24q-280 0 -413 233v-37q0 -190 97 -305t277 -115q183 0 279 117z
M610 983q-123 0 -208.5 -55t-127.5 -154q17 -89 74.5 -145.5t131 -77.5t167.5 -21q49 0 96 12t89 35t68 63.5t26 92.5q0 114 -89.5 182t-226.5 68z" />
    <glyph glyph-name="uniE005" unicode="&#xe005;" horiz-adv-x="1236" 
d="M985 104v82q-131 -237 -442 -202q-220 23 -345.5 181t-125.5 398q0 254 143.5 408.5t392.5 154.5h541v-163h-539q-182 0 -278 -106t-96 -294q0 -190 97 -305t277 -115t277.5 115t97.5 305v318h164v-777q0 -227 -129 -370.5t-348 -143.5q-214 0 -346 142l112 121
q86 -99 234 -99t230.5 96.5t82.5 253.5z" />
    <glyph glyph-name="uniE006" unicode="&#xe006;" horiz-adv-x="348" 
d="M92 195v1341h164v-1327q0 -20 12.5 -32.5t32.5 -12.5h6v-164h-20q-88 0 -141.5 53.5t-53.5 141.5z" />
    <glyph glyph-name="uniE007" unicode="&#xe007;" horiz-adv-x="1241" 
d="M92 881h164v-318q0 -190 97.5 -305t277.5 -115t277.5 115t97.5 305q0 188 -96.5 294t-278.5 106h-539v163h541q249 0 392.5 -154.5t143.5 -408.5q0 -240 -125.5 -398t-345.5 -181q-311 -35 -442 202v-596h-164v1291z" />
    <glyph glyph-name="uniE008" unicode="&#xe008;" horiz-adv-x="1241" 
d="M1149 881v-1291h-164v596q-131 -237 -442 -202q-220 23 -345.5 181t-125.5 398q0 254 143.5 408.5t392.5 154.5h541v-163h-539q-182 0 -278 -106t-96 -294q0 -190 97 -305t277 -115t277.5 115t97.5 305v318h164z" />
    <glyph glyph-name="uniE009" unicode="&#xe009;" horiz-adv-x="1118" 
d="M866 104v39q-103 -163 -309 -163q-210 0 -339.5 133.5t-129.5 345.5v667h164v-667q0 -138 85 -227t220 -89q138 0 223.5 89t85.5 227v667h164v-1022q0 -227 -129 -370.5t-348 -143.5q-214 0 -346 142l112 121q86 -99 234 -99t230.5 96.5t82.5 253.5z" />
    <glyph glyph-name="uniE010" unicode="&#xe010;" horiz-adv-x="1200" 
d="M1149 0h-92l-68 195q-132 -246 -446 -211q-220 23 -345.5 181t-125.5 398q0 239 125.5 398t343.5 182q308 35 444 -205v188h164v-1126zM985 563q0 190 -97.5 305t-277.5 115t-277 -115t-97 -305t97 -305t277 -115t277.5 115t97.5 305z" />
    <glyph glyph-name="uniE011" unicode="&#xe011;" horiz-adv-x="2134" 
d="M985 563q0 190 -97.5 305t-277.5 115t-277 -115t-97 -305t97 -305t277 -115q213 0 312 162q29 -98 77 -168q-144 -157 -389 -157q-166 0 -289 75.5t-186 207t-63 300.5t63 301t186 207.5t289 75.5t289 -75.5t186.5 -207.5t63.5 -301q0 -190 97.5 -305t277.5 -115t277 115
t97 305t-97 305t-277 115q-213 0 -312 -162q-29 98 -77 168q145 158 389 158q166 0 289 -75.5t186 -207.5t63 -301t-63 -300.5t-186 -207t-289 -75.5t-289 75.5t-186.5 207t-63.5 300.5z" />
    <glyph glyph-name="uniF8FF" unicode="&#xf8ff;" horiz-adv-x="743" 
 />
    <glyph glyph-name="grave.case" horiz-adv-x="450" 
d="M393 1581h-84l-252 344v21h185l151 -344v-21z" />
    <glyph glyph-name="dieresis.case" horiz-adv-x="450" 
d="M-10 1683q0 46 28.5 74.5t75.5 28.5q44 0 72.5 -28.5t28.5 -74.5q0 -47 -28 -75.5t-73 -28.5q-47 0 -75.5 28.5t-28.5 75.5zM256 1683q0 46 28.5 74.5t75.5 28.5q44 0 72.5 -28.5t28.5 -74.5q0 -47 -28 -75.5t-73 -28.5q-47 0 -75.5 28.5t-28.5 75.5z" />
    <glyph glyph-name="macron.case" horiz-adv-x="1187" 
d="M924 1776h-529v100h529v-100z" />
    <glyph glyph-name="acute.case" horiz-adv-x="1187" 
d="M414 1581v21l151 344h185v-21l-252 -344h-84z" />
    <glyph glyph-name="circumflex.case" horiz-adv-x="1187" 
d="M547 1946h92l252 -344v-21h-82l-215 219l-217 -219h-82v21z" />
    <glyph glyph-name="caron.case" horiz-adv-x="1187" 
d="M422 1581l-252 344v21h82l217 -220l215 220h82v-21l-252 -344h-92z" />
    <glyph glyph-name="breve.case" horiz-adv-x="1187" 
d="M285 1778h51q10 -53 67.5 -75t133.5 -22t132 22t66 75h51q-13 -91 -82.5 -145t-166.5 -54q-99 0 -169 54t-83 145z" />
    <glyph glyph-name="dotaccent.case" horiz-adv-x="1187" 
d="M414 1698q0 54 32 86.5t86 32.5q53 0 85 -32.5t32 -86.5t-32 -86.5t-85 -32.5q-54 0 -86 32.5t-32 86.5z" />
    <glyph glyph-name="ring.case" horiz-adv-x="1187" 
d="M297 1710q0 105 73.5 179.5t180.5 74.5q104 0 178 -75t74 -179q0 -106 -74 -181t-178 -75q-107 0 -180.5 75t-73.5 181zM420 1710q0 -58 37 -95.5t94 -37.5t93 37t36 96t-36 96t-93 37t-94 -37.5t-37 -95.5z" />
    <glyph glyph-name="tilde.case" horiz-adv-x="1187" 
d="M508 1630q-41 12 -64 12q-61 0 -61 -55h-90q0 61 36.5 111.5t108.5 50.5q31 0 71 -9.5t101 -30t64 -21.5q41 -13 63 -13q32 0 48 16t16 42h88q0 -62 -36.5 -112t-107.5 -50q-25 0 -62 7.5t-59.5 14t-67.5 21.5z" />
    <glyph glyph-name="hungarumlaut.case" horiz-adv-x="1187" 
d="M281 1581v21l151 344h184v-21l-251 -344h-84zM567 1581v21l152 344h184v-21l-252 -344h-84z" />
    <glyph glyph-name="caron.salt" horiz-adv-x="780" 
d="M344 1171l-252 345v20h82l217 -219l215 219h82v-20l-252 -345h-92z" />
    <glyph glyph-name="commaaccentcomb.salt" horiz-adv-x="362" 
d="M94 711q0 40 24 65t64 25t64 -25t24 -65q0 -25 -24 -84l-47 -115h-37l35 111q-103 0 -103 88z" />
    </font>
</defs>
</svg>
