<?xml version="1.0" standalone="no"?>
<!DOCTYPE svg PUBLIC "-//W3C//DTD SVG 1.1//EN" "http://www.w3.org/Graphics/SVG/1.1/DTD/svg11.dtd" >
<svg xmlns="http://www.w3.org/2000/svg" xmlns:xlink="http://www.w3.org/1999/xlink" version="1.1">
<metadata>
Created by FontForge 20201107 at Tue Jul  4 18:03:28 2017
 By 
Copyright (c) 2017 by Alexander Slobzheninov. All rights reserved.
</metadata>
<defs>
<font id="FivoSansModern-ExtraBlack" horiz-adv-x="652" >
  <font-face 
    font-family="Fivo Sans Modern ExtBlk"
    font-weight="950"
    font-stretch="normal"
    units-per-em="1000"
    panose-1="0 0 0 0 0 0 0 0 0 0"
    ascent="800"
    descent="-200"
    x-height="500"
    cap-height="700"
    bbox="-97 -265 1359 978"
    underline-thickness="50"
    underline-position="875"
    unicode-range="U+000D-E133"
  />
<missing-glyph horiz-adv-x="200" 
 />
    <glyph glyph-name=".notdef" horiz-adv-x="200" 
 />
    <glyph glyph-name=".null" horiz-adv-x="0" 
 />
    <glyph glyph-name="nonmarkingreturn" horiz-adv-x="333" 
 />
    <glyph glyph-name="NULL" horiz-adv-x="754" 
d="M60 700h634v-700h-634v700zM282 524v-348h189v348h-189z" />
    <glyph glyph-name="NULL" horiz-adv-x="754" 
d="M60 700h634v-700h-634v700zM282 524v-348h189v348h-189z" />
    <glyph glyph-name="CR" unicode="&#xd;" horiz-adv-x="250" 
 />
    <glyph glyph-name="space" unicode=" " horiz-adv-x="300" 
 />
    <glyph glyph-name="exclam" unicode="!" horiz-adv-x="350" 
d="M175 206q65 0 95 -26.5t30 -83.5q0 -56 -29.5 -81.5t-95.5 -25.5q-65 0 -94.5 25.5t-29.5 82.5t29.5 83t94.5 26zM51 698h249v-190l-54 -246h-141l-54 246v190z" />
    <glyph glyph-name="quotedbl" unicode="&#x22;" horiz-adv-x="531" 
d="M239 700v-140l-27 -264h-155l-27 264v140h209zM501 700v-140l-27 -264h-155l-27 264v140h209z" />
    <glyph glyph-name="numbersign" unicode="#" horiz-adv-x="710" 
d="M332 0h-2l23 158h-55l-23 -158h-168l23 158h-102v140h122l10 70h-102v140h122l27 192h169l-27 -192h55l27 192h169l-27 -192h106v-140h-126l-10 -70h106v-140h-126l-23 -158h-168zM383 368h-55l-10 -70h55z" />
    <glyph glyph-name="dollar" unicode="$" horiz-adv-x="702" 
d="M260 -100v1v84q-120 13 -175 64.5t-55 150.5h236q0 -68 85 -68q72 0 72 48q0 28 -28.5 47t-70.5 29.5t-92 27t-92 37t-70.5 62.5t-28.5 101q0 105 53 161t167 70v85h182v-85q114 -13 167 -64.5t53 -150.5h-236q0 68 -76 68q-62 0 -62 -48q0 -23 39.5 -38t95.5 -29
t112.5 -36.5t96 -73.5t39.5 -127q0 -106 -55 -162t-175 -69v-85h-182z" />
    <glyph glyph-name="percent" unicode="%" horiz-adv-x="956" 
d="M210 710q100 0 145 -48t45 -154t-45 -154t-145 -48t-145 48t-45 154t45 154t145 48zM210 422q13 0 22.5 22t9.5 64t-9.5 64t-22.5 22t-22.5 -22t-9.5 -64t9.5 -64t22.5 -22zM362 -30h-208l440 760h208zM745 390q100 0 145 -48t45 -154t-45 -154t-145 -48t-145 48t-45 154
t45 154t145 48zM745 102q13 0 22.5 22t9.5 64t-9.5 64t-22.5 22t-22.5 -22t-9.5 -64t9.5 -64t22.5 -22z" />
    <glyph glyph-name="ampersand" unicode="&#x26;" horiz-adv-x="845" 
d="M843 2h-257l-39 36q-94 -56 -227 -56q-158 0 -224.5 45.5t-66.5 155.5q0 124 145 210q-55 72 -55 130q0 105 60.5 151.5t198.5 46.5q122 0 177.5 -38t55.5 -126q0 -60 -39 -102.5t-108 -82.5l70 -68q4 19 9 47h182q-13 -107 -53 -182zM431 145l-130 119q-22 -27 -22 -66
q0 -34 17.5 -49.5t62.5 -15.5q43 0 72 12zM357 481v-1q58 31 58 73q0 40 -41 40q-46 0 -46 -44q0 -33 29 -68z" />
    <glyph glyph-name="quotesingle" unicode="'" horiz-adv-x="269" 
d="M239 700v-140l-27 -264h-155l-27 264v140h209z" />
    <glyph glyph-name="parenleft" unicode="(" horiz-adv-x="342" 
d="M161 -200h-1q-131 218 -131 460q0 40 3.5 78.5t10 72.5t13.5 62.5t18 56.5t19 47.5t20 42t18 33t17 28t12 19.5h181q-116 -193 -116 -440q0 -265 117 -460h-181z" />
    <glyph glyph-name="parenright" unicode=")" horiz-adv-x="342" 
d="M181 -200h-1h-181q117 195 117 460q0 247 -116 440h181q1 -2 12 -19.5t17 -28t18 -33t20 -42t19 -47.5t18 -56.5t13.5 -62.5t10 -72.5t3.5 -78.5q0 -242 -131 -460z" />
    <glyph glyph-name="asterisk" unicode="*" horiz-adv-x="350" 
d="M226 400h-105l4 69l-58 -36l-50 80l74 35l-74 35l51 80l59 -38l-5 74h101l-4 -72l59 38l51 -80l-75 -35l75 -35l-50 -80l-57 36z" />
    <glyph glyph-name="plus" unicode="+" horiz-adv-x="559" 
d="M539 330v-152h-169v-178h-182v178h-169v152h169v170h182v-170h169z" />
    <glyph glyph-name="comma" unicode="," horiz-adv-x="288" 
d="M20 98q0 57 27 82.5t84 25.5q73 0 105.5 -41t32.5 -135q0 -124 -56.5 -181t-182.5 -57v92q52 0 75 25t23 81q-57 0 -82.5 25.5t-25.5 82.5z" />
    <glyph glyph-name="hyphen" unicode="-" horiz-adv-x="369" 
d="M349 188h-330v152h330v-152z" />
    <glyph glyph-name="period" unicode="." horiz-adv-x="289" 
d="M144 -10q-65 0 -94 25t-29 82t29.5 82.5t94.5 25.5t94.5 -25.5t29.5 -82.5q0 -56 -29.5 -81.5t-95.5 -25.5z" />
    <glyph glyph-name="slash" unicode="/" horiz-adv-x="449" 
d="M240 700h209l-240 -700h-209z" />
    <glyph glyph-name="zero" unicode="0" horiz-adv-x="769" 
d="M384 720q186 0 270 -88t84 -282t-84 -282t-270 -88t-270 88t-84 282q0 195 84 282.5t270 87.5zM384 132q55 0 80 52t25 166t-25 166t-80 52t-80 -52t-25 -166t25 -166t80 -52z" />
    <glyph glyph-name="one" unicode="1" horiz-adv-x="436" 
d="M20 548v152h356v-700h-236v548h-120z" />
    <glyph glyph-name="two" unicode="2" horiz-adv-x="611" 
d="M311 720q142 0 206.5 -55t64.5 -175q0 -49 -6 -81t-30.5 -72t-69.5 -69t-126.5 -59.5t-198.5 -56.5h421v-152h-541v250q82 19 151.5 54t116.5 88.5t47 113.5q0 62 -33 62q-23 0 -29.5 -21t-6.5 -77h-236q0 131 64 190.5t206 59.5z" />
    <glyph glyph-name="three" unicode="3" horiz-adv-x="668" 
d="M331 132q38 0 54.5 15.5t16.5 51.5q0 40 -19 58t-60 18h-60v164h61q76 0 76 69q0 60 -62 60q-36 0 -52.5 -21t-16.5 -67h-209q0 126 65 183t209 57t209 -45.5t65 -146.5q0 -32 -4.5 -54.5t-19.5 -44.5t-40.5 -35.5t-69 -23t-104.5 -12.5q86 -4 141 -17t81.5 -36t35.5 -48
t9 -62q0 -113 -70.5 -164t-224.5 -51q-166 0 -239.5 59t-73.5 191h223q0 -51 19 -74.5t60 -23.5z" />
    <glyph glyph-name="four" unicode="4" horiz-adv-x="695" 
d="M326 700h259v-400h70v-152h-70v-148h-236v148h-319v174zM226 300h1h122v154z" />
    <glyph glyph-name="five" unicode="5" horiz-adv-x="658" 
d="M299 548l-39 -208q25 75 64.5 107.5t110.5 32.5q98 0 146 -60t48 -190q0 -131 -76 -190.5t-245 -59.5q-132 0 -195.5 52t-71.5 168h209q14 -68 71 -68q37 0 54 23.5t17 74.5t-18 74.5t-57 23.5q-56 0 -66 -42h-195l72 414h449v-152h-278z" />
    <glyph glyph-name="six" unicode="6" horiz-adv-x="658" 
d="M334 -20q-154 0 -229 86.5t-75 273.5q0 200 72 290t232 90q123 0 188 -47.5t86 -152.5h-222q-13 60 -52 60q-68 0 -68 -304q0 8 1 22t10 49t24 62t48 49t78 22q105 0 153 -58.5t48 -191.5q0 -131 -70 -190.5t-224 -59.5zM334 328q-31 0 -44.5 -23t-13.5 -75t13.5 -75
t44.5 -23q58 0 58 98t-58 98z" />
    <glyph glyph-name="seven" unicode="7" horiz-adv-x="609" 
d="M569 390l-280 -390h-269l431 548h-424v152h542v-310z" />
    <glyph glyph-name="eight" unicode="8" horiz-adv-x="688" 
d="M60 528q0 101 67.5 146.5t216.5 45.5t216.5 -45.5t67.5 -146.5q0 -74 -46.5 -113.5t-147.5 -49.5q117 -11 170.5 -56t53.5 -129q0 -105 -74.5 -152.5t-239.5 -47.5t-239.5 47.5t-74.5 152.5q0 84 53.5 129t170.5 56q-101 10 -147.5 49.5t-46.5 113.5zM266 210
q0 -78 77 -78q78 0 78 78q0 41 -19 59.5t-59 18.5t-58.5 -18t-18.5 -60zM342 568q-61 0 -61 -70q0 -37 15 -53.5t47 -16.5t46.5 16.5t14.5 53.5q0 70 -62 70z" />
    <glyph glyph-name="nine" unicode="9" horiz-adv-x="658" 
d="M323 720q153 0 228 -86.5t75 -273.5q0 -200 -72 -290t-232 -90q-123 0 -188 47.5t-86 152.5h223q13 -60 52 -60q68 0 68 304q0 -8 -1 -22t-10 -49t-24 -62t-48 -49t-78 -22q-105 0 -152.5 58.5t-47.5 191.5q0 131 69.5 190.5t223.5 59.5zM322 372q31 0 44.5 23t13.5 75
t-13.5 75t-44.5 23q-58 0 -58 -98t58 -98z" />
    <glyph glyph-name="colon" unicode=":" horiz-adv-x="289" 
d="M21 97q0 57 29.5 82t95.5 25q65 0 94.5 -25.5t29.5 -82.5q0 -56 -29.5 -81.5t-95.5 -25.5q-65 0 -94.5 25.5t-29.5 82.5zM146 498q65 0 94.5 -25.5t29.5 -82.5t-29.5 -82.5t-95.5 -25.5q-65 0 -94.5 25.5t-29.5 82.5q0 56 30 82t95 26z" />
    <glyph glyph-name="semicolon" unicode=";" horiz-adv-x="289" 
d="M20 392q0 57 29.5 82.5t95.5 25.5q65 0 94.5 -25.5t29.5 -82.5q0 -56 -29.5 -82t-95.5 -26q-65 0 -94.5 25.5t-29.5 82.5zM128 -10q-57 0 -82 26t-25 83q0 56 26.5 81.5t84.5 25.5q78 0 108 -44t30 -123q0 -130 -56.5 -188.5t-182.5 -58.5v92q52 0 74.5 25t22.5 81z" />
    <glyph glyph-name="less" unicode="&#x3c;" horiz-adv-x="460" 
d="M30 73v354l400 73v-187l-332 -63l332 -63v-187z" />
    <glyph glyph-name="equal" unicode="=" horiz-adv-x="688" 
d="M658 238v-152h-628v152h628zM658 444v-152h-628v152h628z" />
    <glyph glyph-name="greater" unicode="&#x3e;" horiz-adv-x="460" 
d="M430 74l-400 -73v187l332 63l-332 63v187l400 -73v-354z" />
    <glyph glyph-name="question" unicode="?" horiz-adv-x="609" 
d="M160 97q0 57 29.5 82t95.5 25q65 0 94.5 -25.5t29.5 -82.5q0 -56 -29.5 -81.5t-95.5 -25.5q-65 0 -94.5 25.5t-29.5 82.5zM191 268q0 59 15.5 98.5t37.5 57.5t44 30.5t37.5 29.5t15.5 44q0 38 -49 38t-49 -78h-222q0 121 67.5 175.5t216.5 54.5t216.5 -45t67.5 -145
q0 -50 -21 -83t-50.5 -49t-59.5 -30.5t-51 -38t-21 -59.5h-195z" />
    <glyph glyph-name="at" unicode="@" horiz-adv-x="980" 
d="M523 339l54 120h125v-270q0 -54 33 -54q44 0 44 114q0 151 -69 219.5t-221 68.5q-153 0 -223 -68.5t-70 -219.5q0 -146 56 -212t180 -66q48 0 86 10t55 20.5t20 18.5v-137q1 -5 -18 -13.5t-58 -17t-83 -8.5q-213 0 -308.5 96t-95.5 310q0 218 110 317t352 99
q241 0 349.5 -99t108.5 -317q0 -230 -212 -230q-44 0 -78 6t-65.5 20.5t-49.5 45t-21 74.5q-11 -65 -44.5 -95.5t-92.5 -30.5q-80 0 -116.5 50t-36.5 160q0 116 36.5 168t117.5 52q58 0 91 -31.5t44 -99.5zM412 249q0 -95 52 -95q55 0 55 95q0 92 -55 92q-52 0 -52 -92z" />
    <glyph glyph-name="A" unicode="A" horiz-adv-x="789" 
d="M493 0h-1l-18 116h-171l-21 -116h-263l137 700h503l110 -700h-276zM393 621l-63 -353h119z" />
    <glyph glyph-name="B" unicode="B" horiz-adv-x="732" 
d="M370 359l-1 -1q100 -4 167 -17.5t102 -36.5t49 -50t14 -64q0 -100 -70.5 -145t-226.5 -45h-344v700h331q148 0 214.5 -40.5t66.5 -129.5q0 -54 -23.5 -87.5t-91.5 -56t-187 -27.5zM363 152q61 0 61 62q0 39 -14.5 56.5t-46.5 17.5h-41v-136h41zM349 548h-28v-120h28
q45 0 45 66q0 54 -45 54z" />
    <glyph glyph-name="C" unicode="C" horiz-adv-x="812" 
d="M519 244h263q-25 -139 -110 -201.5t-247 -62.5q-208 0 -301 88t-93 282t93 282t301 88q170 0 255.5 -62.5t101.5 -201.5h-263q-10 88 -95 88q-62 0 -90 -46t-28 -148t28 -148t90 -46q94 0 95 88z" />
    <glyph glyph-name="D" unicode="D" horiz-adv-x="789" 
d="M759 350q0 -184 -90.5 -267t-290.5 -83h-318v700h318q200 0 290.5 -83t90.5 -267zM364 536h-42v-372h42q62 0 90 44.5t28 141.5t-28 141.5t-90 44.5z" />
    <glyph glyph-name="E" unicode="E" horiz-adv-x="638" 
d="M608 536h-285v-96h245v-164h-245v-112h285v-164h-548v700h548v-164z" />
    <glyph glyph-name="F" unicode="F" horiz-adv-x="628" 
d="M608 536h-285v-96h245v-164h-245v-276h-263v700h548v-164z" />
    <glyph glyph-name="G" unicode="G" horiz-adv-x="822" 
d="M421 266v152h371v-68q0 -194 -88 -282t-283 -88q-205 0 -298 88t-93 282t93 282t298 88q164 0 249.5 -57t111.5 -183h-249q-13 64 -111 64q-60 0 -87.5 -46.5t-27.5 -147.5t27.5 -147.5t86.5 -46.5q63 0 92 26.5t29 83.5h-121z" />
    <glyph glyph-name="H" unicode="H" horiz-adv-x="782" 
d="M459 700h263v-700h-263v288h-136v-288h-263v700h263v-236h136v236z" />
    <glyph glyph-name="I" unicode="I" horiz-adv-x="383" 
d="M60 700h263v-700h-263v700z" />
    <glyph glyph-name="J" unicode="J" horiz-adv-x="625" 
d="M291 -20h-2q-143 0 -208 51.5t-65 166.5v58h251v-58q0 -54 22 -54t22 54v502h264v-502q0 -115 -67.5 -166.5t-216.5 -51.5z" />
    <glyph glyph-name="K" unicode="K" horiz-adv-x="828" 
d="M321 700v-319l161 319h314l-184 -340l205 -360h-313l-181 341v-341h-263v700h261z" />
    <glyph glyph-name="L" unicode="L" horiz-adv-x="598" 
d="M568 176v-176h-508v700h263v-524h245z" />
    <glyph glyph-name="M" unicode="M" horiz-adv-x="1090" 
d="M1029 700v-700h-248v618l-75 -618h-325l-73 612v-612h-249v700h441l48 -620l65 620h416z" />
    <glyph glyph-name="N" unicode="N" horiz-adv-x="884" 
d="M574 700h250v-700h-418l-96 644v-644h-250v700h417l97 -644v644z" />
    <glyph glyph-name="O" unicode="O" horiz-adv-x="842" 
d="M421 720q205 0 298 -88t93 -282t-93 -282t-298 -88t-298 88t-93 282t93 282t298 88zM421 544q-59 0 -86.5 -46.5t-27.5 -147.5t27.5 -147.5t86.5 -46.5t86.5 46.5t27.5 147.5t-27.5 147.5t-86.5 46.5z" />
    <glyph glyph-name="P" unicode="P" horiz-adv-x="722" 
d="M702 466q0 -45 -17 -85.5t-52 -74.5t-94.5 -54t-137.5 -20h-78v-232h-263v700h341q78 0 137.5 -20t94.5 -54t52 -74.5t17 -85.5zM387 396q22 0 36.5 22t14.5 48t-15 48t-37 22h-64v-140h65z" />
    <glyph glyph-name="Q" unicode="Q" horiz-adv-x="844" 
d="M566 -216l-118 197q-6 -1 -27 -1q-205 0 -298 88t-93 282t93 282t298 88t298 -88t93 -282q0 -149 -57 -232t-182 -118h152l129 -216h-288zM421 544q-59 0 -86.5 -46.5t-27.5 -147.5t27.5 -147.5t86.5 -46.5t86.5 46.5t27.5 147.5t-27.5 147.5t-86.5 46.5z" />
    <glyph glyph-name="R" unicode="R" horiz-adv-x="769" 
d="M361 244h-1h-38v-244h-263v700h348q78 0 137.5 -20t94.5 -54t52 -74.5t17 -85.5q0 -80 -47 -136t-145 -76h102l120 -254h-275zM322 396h1h71q22 0 36.5 22t14.5 48t-15 48t-37 22h-71v-140z" />
    <glyph glyph-name="S" unicode="S" horiz-adv-x="702" 
d="M289 520q0 -23 39.5 -38t95.5 -29t112.5 -36.5t96 -73.5t39.5 -127q0 -124 -76 -180t-245 -56t-245 52t-76 168h236q0 -68 85 -68q72 0 72 48q0 28 -28.5 47t-70.5 29.5t-92 27t-92 37t-70.5 62.5t-28.5 101q0 124 74 180t237 56t237 -52t74 -168h-236q0 68 -76 68
q-62 0 -62 -48z" />
    <glyph glyph-name="T" unicode="T" horiz-adv-x="682" 
d="M661 700v-188h-189v-512h-263v512h-189v188h641z" />
    <glyph glyph-name="U" unicode="U" horiz-adv-x="762" 
d="M50 262v438h263v-438q0 -55 16.5 -80.5t51.5 -25.5t51.5 25.5t16.5 80.5v438h263v-438q0 -148 -78.5 -215t-252.5 -67t-252.5 67t-78.5 215z" />
    <glyph glyph-name="V" unicode="V" horiz-adv-x="755" 
d="M273 700l105 -583l105 583h263l-137 -700h-462l-137 700h263z" />
    <glyph glyph-name="W" unicode="W" horiz-adv-x="1131" 
d="M363 700h405l50 -625l40 625h263l-85 -700h-414l-63 631l-50 -631h-413l-86 700h263l40 -620z" />
    <glyph glyph-name="X" unicode="X" horiz-adv-x="783" 
d="M309 700l83 -269l96 269h275l-135 -340l146 -360h-289l-96 290l-104 -290h-275l142 360l-132 340h289z" />
    <glyph glyph-name="Y" unicode="Y" horiz-adv-x="743" 
d="M742 700l-119 -400h-121v-300h-249v300h-121l-132 400h289l89 -384l89 384h275z" />
    <glyph glyph-name="Z" unicode="Z" horiz-adv-x="668" 
d="M628 370l-455 -206h465v-164h-608v330l456 206h-446v164h588v-330z" />
    <glyph glyph-name="bracketleft" unicode="[" horiz-adv-x="366" 
d="M60 700h305v-152h-110v-596h110v-152h-305v900z" />
    <glyph glyph-name="backslash" unicode="\" horiz-adv-x="449" 
d="M0 700h209l240 -700h-209z" />
    <glyph glyph-name="bracketright" unicode="]" horiz-adv-x="366" 
d="M305 700v-900h-305v152h110v596h-110v152h305z" />
    <glyph glyph-name="asciicircum" unicode="^" horiz-adv-x="542" 
d="M439 670l81 -350h-181l-69 305l-70 -305h-181l81 350h339z" />
    <glyph glyph-name="underscore" unicode="_" horiz-adv-x="520" 
d="M520 0v-152h-520v152h520z" />
    <glyph glyph-name="grave" unicode="`" horiz-adv-x="352" 
d="M294 700l78 -150h-180l-132 150h234z" />
    <glyph glyph-name="a" unicode="a" horiz-adv-x="603" 
d="M381 0l-54 119q-11 -68 -46.5 -98t-104.5 -30q-156 0 -156 152q0 96 62.5 137.5t201.5 41.5h42v18q0 54 -32 54q-31 0 -31 -44h-222q0 84 62 122t199 38t199 -46t62 -148v-316h-182zM298 207q-42 0 -42 -42q0 -35 30 -35q40 0 40 53v24h-28z" />
    <glyph glyph-name="b" unicode="b" 
d="M435 -10q-65 0 -101.5 39t-48.5 124l-53 -153h-182v700h236v-346q13 81 49 118.5t101 37.5q103 0 149.5 -62t46.5 -198q0 -137 -47 -198.5t-150 -61.5zM339 142q28 0 41 26t13 82q0 57 -12.5 82.5t-41.5 25.5t-41.5 -25.5t-12.5 -82.5q0 -56 13 -82t41 -26z" />
    <glyph glyph-name="c" unicode="c" horiz-adv-x="622" 
d="M366 196h236q-9 -108 -75.5 -157t-205.5 -49q-158 0 -229.5 61.5t-71.5 198.5t71.5 198.5t229.5 61.5q139 0 205.5 -49t75.5 -157h-236q-3 29 -14.5 41.5t-34.5 12.5q-32 0 -46.5 -25.5t-14.5 -82.5t14.5 -82.5t46.5 -25.5q22 0 33.5 12.5t15.5 41.5z" />
    <glyph glyph-name="d" unicode="d" 
d="M217 -10q-103 0 -150 61.5t-47 198.5q0 136 46.5 198t149.5 62q65 0 101 -37.5t49 -118.5v346h236v-700h-182l-53 153q-12 -85 -48.5 -124t-101.5 -39zM309 142q28 0 41 26t13 82q0 57 -12.5 82.5t-41.5 25.5t-41.5 -25.5t-12.5 -82.5q0 -56 13 -82t41 -26z" />
    <glyph glyph-name="e" unicode="e" horiz-adv-x="622" 
d="M602 198h-349q0 -42 13.5 -61t43.5 -19q44 0 48 46h223q-14 -91 -78 -132.5t-192 -41.5q-153 0 -222 61.5t-69 198.5t69 198.5t222 61.5t222 -61t69 -195v-56zM310 382q-29 0 -42 -16t-13 -52h110q0 68 -55 68z" />
    <glyph glyph-name="f" unicode="f" horiz-adv-x="462" 
d="M452 548h-110q-24 0 -24 -18v-30h133v-128h-133v-372h-236v372h-73v128h73v32q0 79 46 123.5t125 44.5h199v-152z" />
    <glyph glyph-name="g" unicode="g" 
d="M216 -10q-200 0 -200 259q0 135 49 197.5t148 62.5q66 0 102 -38.5t48 -122.5l54 152h182v-451q0 -137 -69 -198.5t-222 -61.5q-130 0 -194 41.5t-76 132.5h223q3 -24 13.5 -35t34.5 -11q56 0 56 95v136q-12 -82 -48 -120t-101 -38zM307 141q55 0 55 108t-55 108
t-55 -108t55 -108z" />
    <glyph glyph-name="h" unicode="h" horiz-adv-x="632" 
d="M50 0h-1v700h236v-327q11 71 41.5 104t84.5 33q95 0 137.5 -57t42.5 -183v-270h-236v270q0 88 -38 88q-31 0 -31 -88v-270h-236z" />
    <glyph glyph-name="i" unicode="i" horiz-adv-x="349" 
d="M292 0h-236v500h236v-500zM50 636q0 53 30 77.5t95 24.5t94.5 -24.5t29.5 -77.5q0 -54 -29.5 -78t-95.5 -24q-65 0 -94.5 24t-29.5 78z" />
    <glyph glyph-name="j" unicode="j" horiz-adv-x="353" 
d="M29 -28q11 0 20.5 11.5t9.5 28.5v488h236v-512q0 -79 -46 -123.5t-124 -44.5h-205v152h109zM176 534q-65 0 -94 24t-29 78q0 53 29.5 77.5t94.5 24.5t94.5 -24.5t29.5 -77.5q0 -54 -29.5 -78t-95.5 -24z" />
    <glyph glyph-name="k" unicode="k" horiz-adv-x="687" 
d="M285 700v-419l108 219h273l-131 -240l152 -260h-273l-128 241v-241h-236v700h235z" />
    <glyph glyph-name="l" unicode="l" horiz-adv-x="336" 
d="M50 0v700h236v-700h-236z" />
    <glyph glyph-name="m" unicode="m" horiz-adv-x="912" 
d="M311 358q-26 0 -26 -87v-271h-236v500h182l53 -130q11 73 46 106.5t101 33.5q108 0 137 -127q27 127 144 127q160 0 160 -240v-270h-236v270q0 88 -32 88q-25 0 -25 -88v-270h-236v270q0 88 -32 88z" />
    <glyph glyph-name="n" unicode="n" horiz-adv-x="632" 
d="M232 500l54 -129q11 72 43.5 105.5t88.5 33.5q91 0 132.5 -57t41.5 -183v-270h-235v258q0 55 -8 77.5t-31 22.5q-32 0 -32 -88v-270h-236v500h182z" />
    <glyph glyph-name="o" unicode="o" horiz-adv-x="642" 
d="M321 510q158 0 229.5 -61.5t71.5 -198.5t-71.5 -198.5t-229.5 -61.5t-229.5 61.5t-71.5 198.5t71.5 198.5t229.5 61.5zM256 250q0 -56 15.5 -82t49.5 -26t49.5 26t15.5 82t-15.5 82t-49.5 26q-65 0 -65 -108z" />
    <glyph glyph-name="p" unicode="p" 
d="M435 510q103 0 150 -61.5t47 -198.5q0 -136 -46.5 -198t-149.5 -62q-65 0 -101 37.5t-49 118.5v-346h-236v700h182l53 -153q12 85 48.5 124t101.5 39zM395 250q0 108 -58 108q-29 0 -41.5 -25.5t-12.5 -82.5t13.5 -82.5t42.5 -25.5t42.5 25.5t13.5 82.5z" />
    <glyph glyph-name="q" unicode="q" 
d="M217 510q65 0 101.5 -39t48.5 -124l53 153h182v-700h-236v346q-13 -81 -49 -118.5t-101 -37.5q-103 0 -149.5 62t-46.5 198q0 137 47 198.5t150 61.5zM365 250q0 108 -58 108q-29 0 -41.5 -25.5t-12.5 -82.5t13.5 -82.5t42.5 -25.5t42.5 25.5t13.5 82.5z" />
    <glyph glyph-name="r" unicode="r" horiz-adv-x="476" 
d="M286 250v-250h-236v500h182l50 -102q26 112 117 112h67v-176h-94q-51 0 -68.5 -15.5t-17.5 -68.5z" />
    <glyph glyph-name="s" unicode="s" horiz-adv-x="552" 
d="M270 394q-29 0 -29 -19q0 -18 30 -28t72.5 -18.5t85 -23.5t72.5 -53t30 -97q0 -85 -64.5 -125t-204.5 -40q-126 0 -183 38t-57 122h223q0 -44 25 -44t25 26q0 20 -20.5 32.5t-51 17t-66.5 14.5t-66.5 24.5t-51 48t-20.5 82.5q0 82 60 120.5t191 38.5q124 0 180.5 -35.5
t56.5 -114.5h-209q0 34 -28 34z" />
    <glyph glyph-name="t" unicode="t" horiz-adv-x="499" 
d="M336 192q0 -21 9 -30.5t31 -9.5h92v-152h-198q-78 0 -124 44.5t-46 123.5v204h-80v128h80v134h236v-134h133v-128h-133v-180z" />
    <glyph glyph-name="u" unicode="u" horiz-adv-x="632" 
d="M582 0h-183l-54 129q-11 -72 -43.5 -105.5t-88.5 -33.5q-91 0 -132.5 57t-41.5 183v270h236v-258q0 -55 8 -77.5t31 -22.5q32 0 32 88v270h236v-500z" />
    <glyph glyph-name="v" unicode="v" horiz-adv-x="608" 
d="M315 62l33 438h249l-77 -500h-421l-90 500h249z" />
    <glyph glyph-name="w" unicode="w" horiz-adv-x="981" 
d="M890 0h-347l-51 441l-40 -441h-360l-82 500h236l37 -433l39 433h338l39 -432l36 432h236z" />
    <glyph glyph-name="x" unicode="x" horiz-adv-x="609" 
d="M267 500l44 -212l31 212h248l-62 -239l72 -261h-248l-41 237l-53 -237h-248l85 260l-75 240h247z" />
    <glyph glyph-name="y" unicode="y" horiz-adv-x="555" 
d="M211 -52q59 0 63 52h-178l-96 500h235l48 -401l36 401h236l-85 -511q-14 -89 -62.5 -129t-140.5 -40h-176v128h120z" />
    <glyph glyph-name="z" unicode="z" horiz-adv-x="548" 
d="M172 140h346v-140h-488v282l336 78h-326v140h468v-282z" />
    <glyph glyph-name="braceleft" unicode="{" horiz-adv-x="436" 
d="M88 256q113 -5 164.5 -33.5t51.5 -85.5v-145q0 -24 10 -32t33 -8h89v-152h-147q-93 0 -137.5 37t-44.5 126v150q0 49 -77 49v188q77 0 77 47v142q0 88 44.5 125t136.5 37h148v-152h-93q-24 0 -32.5 -9t-8.5 -34v-131q0 -57 -51 -85.5t-163 -33.5z" />
    <glyph glyph-name="bar" unicode="|" horiz-adv-x="315" 
d="M60 700h195v-900h-195v900z" />
    <glyph glyph-name="braceright" unicode="}" horiz-adv-x="436" 
d="M348 256q-112 5 -163 33.5t-51 85.5v131q0 25 -8.5 34t-32.5 9h-93v152h148q92 0 136.5 -37t44.5 -125v-142q0 -47 77 -47v-188q-77 0 -77 -49v-150q0 -89 -44.5 -126t-137.5 -37h-147v152h89q23 0 33 8t10 32v145q0 57 51.5 85.5t164.5 33.5z" />
    <glyph glyph-name="asciitilde" unicode="~" horiz-adv-x="640" 
d="M620 190q-40 -41 -85.5 -54t-89 -3.5t-88.5 28.5t-89 39t-86 31.5t-84 2.5t-78 -44v139q40 41 85.5 54.5t89 4t88.5 -28.5t89 -39t85.5 -32t84 -3t78.5 44v-139z" />
    <glyph glyph-name="space_" unicode="&#xa0;" horiz-adv-x="300" 
 />
    <glyph glyph-name="exclamdown" unicode="&#xa1;" horiz-adv-x="352" 
d="M301 -10h-1v-190h-249v190l54 246h142zM295 404q0 -57 -30 -83.5t-95 -26.5t-94.5 26t-29.5 83t29.5 82.5t94.5 25.5q66 0 95.5 -25.5t29.5 -81.5z" />
    <glyph glyph-name="cent" unicode="&#xa2;" horiz-adv-x="622" 
d="M230 -102v98q-109 16 -159.5 77.5t-50.5 176.5t50.5 176.5t159.5 77.5v86h182v-86q91 -14 136.5 -62.5t53.5 -137.5h-236q-3 29 -14 41.5t-34 12.5q-32 0 -47 -25.5t-15 -82.5t14.5 -82.5t46.5 -25.5q22 0 33.5 12.5t15.5 41.5h236q-8 -89 -53.5 -137.5t-136.5 -62.5v-98
h-182z" />
    <glyph glyph-name="sterling" unicode="&#xa3;" horiz-adv-x="686" 
d="M102 165h556v-164h-626v251q64 0 64 57h-64v122h64v72q0 117 67.5 168t217.5 51q128 0 187 -53t59 -167h-223q0 42 -9.5 61t-29.5 18q-35 -1 -35 -81v-70h188v-122h-188v-8q0 -61 -53.5 -92.5t-174.5 -42.5z" />
    <glyph glyph-name="currency" unicode="&#xa4;" horiz-adv-x="702" 
d="M480 497l76 69l116 -105l-57 -54q37 -59 37 -158q0 -101 -38 -159l58 -54l-117 -105l-76 71q-53 -13 -129 -13t-128 13l-76 -71l-117 105l57 54q-38 58 -38 160q0 99 37 158l-57 54l116 106l76 -71q53 13 130 13t130 -13zM286 248q0 -56 15.5 -82t49.5 -26t49.5 26
t15.5 82t-15.5 82t-49.5 26q-65 0 -65 -108z" />
    <glyph glyph-name="yen" unicode="&#xa5;" horiz-adv-x="763" 
d="M710 242h-196v-44h197v-120h-197v-78h-249v78h-203v120h203v44h-203v120h61l-112 338h289l89 -384l89 384h275l-100 -338h57v-120z" />
    <glyph glyph-name="section" unicode="&#xa7;" horiz-adv-x="668" 
d="M302 537q0 -27 34.5 -41t84 -22.5t99 -21.5t84 -48t34.5 -92q0 -62 -42 -93.5t-134 -42.5q126 -46 126 -170q0 -120 -66.5 -173t-214.5 -53q-124 0 -180.5 52t-56.5 168h196q0 -70 47 -70q39 0 39 37q0 27 -24 42.5t-59.5 20t-77.5 13t-77.5 20t-59.5 42t-24 77.5
q0 67 49.5 97.5t159.5 36.5q-73 22 -116 64t-43 121q0 115 61 167t196 52q126 0 183 -52t57 -168h-195q0 68 -45 68q-35 0 -35 -31zM397 195q18 15 18 42q0 6 -2 11.5t-7 10.5t-10 8.5t-14 7.5t-16 6.5t-19 6t-20 5.5t-23 5.5t-23 5.5q-29 -10 -29 -43q0 -9 3.5 -16
t12.5 -12.5t17 -9.5t23.5 -8t26 -6.5t31 -6.5t31.5 -7z" />
    <glyph glyph-name="dieresis" unicode="&#xa8;" horiz-adv-x="571" 
d="M21 571q0 57 29.5 82t95.5 25q65 0 94.5 -25.5t29.5 -82.5q0 -56 -29.5 -81.5t-95.5 -25.5q-65 0 -94.5 25.5t-29.5 82.5zM304 569q0 57 29.5 82t95.5 25q65 0 94.5 -25.5t29.5 -82.5q0 -56 -29.5 -81.5t-95.5 -25.5q-65 0 -94.5 25.5t-29.5 82.5z" />
    <glyph glyph-name="copyright" unicode="&#xa9;" horiz-adv-x="854" 
d="M427 720q208 0 302.5 -88t94.5 -282t-94.5 -282t-302.5 -88t-302.5 88t-94.5 282t94.5 282t302.5 88zM185 352q0 -86 25.5 -139t78.5 -78.5t138 -25.5q127 0 184.5 57.5t57.5 184.5t-57.5 184.5t-184.5 57.5t-184.5 -57.5t-57.5 -183.5zM214 352q0 104 50.5 151.5
t162.5 47.5q104 0 155 -38t61 -122h-182q-6 43 -32 43q-18 0 -26 -20t-8 -64t7.5 -63t25.5 -19q26 0 33 44h182q-11 -84 -62.5 -122t-154.5 -38q-112 0 -162 47.5t-50 152.5z" />
    <glyph glyph-name="guillemotleft" unicode="&#xab;" horiz-adv-x="675" 
d="M155 450h221l-121 -190l121 -200h-221l-135 200zM434 450h221l-121 -190l121 -200h-221l-135 200z" />
    <glyph glyph-name="logicalnot" unicode="&#xac;" horiz-adv-x="570" 
d="M540 340v-282h-182v130h-338v152h520z" />
    <glyph glyph-name="registered" unicode="&#xae;" horiz-adv-x="854" 
d="M427 720q208 0 302.5 -88t94.5 -282t-94.5 -282t-302.5 -88t-302.5 88t-94.5 282t94.5 282t302.5 88zM427 109q126 0 184 57t58 183q0 127 -58 184.5t-184 57.5t-184 -57.5t-58 -183.5t58 -183.5t184 -57.5zM461 169l-45 116h-24v-116h-141v360h183q89 0 129.5 -29
t40.5 -93q0 -52 -26.5 -80.5t-84.5 -37.5h51l59 -120h-142zM463 407q0 31 -29 31h-42v-60h42q29 0 29 29z" />
    <glyph glyph-name="macron" unicode="&#xaf;" horiz-adv-x="380" 
d="M20 564v116h340v-116h-340z" />
    <glyph glyph-name="degree" unicode="&#xb0;" horiz-adv-x="420" 
d="M20 520q0 100 45 145t145 45t145 -45t45 -145t-45 -145t-145 -45t-145 45t-45 145zM210 594q-48 0 -48 -74t49 -74q48 0 48 74t-49 74z" />
    <glyph glyph-name="plusminus" unicode="&#xb1;" horiz-adv-x="560" 
d="M20 0v152h520v-152h-520zM540 432v-152h-169v-76h-182v76h-169v152h169v68h182v-68h169z" />
    <glyph glyph-name="acute" unicode="&#xb4;" horiz-adv-x="352" 
d="M20 550l78 150h234l-132 -150h-180z" />
    <glyph glyph-name="paragraph" unicode="&#xb6;" horiz-adv-x="770" 
d="M750 548h-84v-748h-196v748h-62v-748h-195v500q-107 0 -155 47.5t-48 152.5t59.5 152.5t190.5 47.5h490v-152z" />
    <glyph glyph-name="periodcentered" unicode="&#xb7;" horiz-adv-x="289" 
d="M21 253q0 57 29.5 82t95.5 25q65 0 94.5 -25.5t29.5 -82.5q0 -56 -29.5 -81.5t-95.5 -25.5q-65 0 -94.5 25.5t-29.5 82.5z" />
    <glyph glyph-name="cedilla" unicode="&#xb8;" horiz-adv-x="261" 
d="M64 48h115l-21 -98q7 -2 16.5 -6t26.5 -13.5t28 -27.5t11 -41q0 -53 -59 -82.5t-158 -29.5v80q49 0 49 28q0 24 -52 24z" />
    <glyph glyph-name="guillemotright" unicode="&#xbb;" horiz-adv-x="672" 
d="M20 450h221l131 -190l-131 -200h-221l118 200zM299 450h221l131 -190l-131 -200h-221l118 200z" />
    <glyph glyph-name="questiondown" unicode="&#xbf;" horiz-adv-x="609" 
d="M415 230q0 -59 -15.5 -98.5t-37.5 -57.5t-43.5 -30.5t-37 -29.5t-15.5 -44q0 -38 49 -38t49 78h223q0 -121 -67.5 -175.5t-216.5 -54.5t-216.5 45t-67.5 145q0 50 21 83t51 49t60 30.5t51 38t21 59.5h192zM441 405q0 -57 -29.5 -82t-95.5 -25q-65 0 -94.5 25.5
t-29.5 82.5q0 56 29.5 81.5t95.5 25.5q65 0 94.5 -25.5t29.5 -82.5z" />
    <glyph glyph-name="Agrave" unicode="&#xc0;" horiz-adv-x="789" 
d="M493 0h-1l-18 116h-171l-21 -116h-263l137 700h503l110 -700h-276zM393 621l-63 -353h119zM399 870l95 -120h-166l-136 120h207z" />
    <glyph glyph-name="Aacute" unicode="&#xc1;" horiz-adv-x="789" 
d="M493 0h-1l-18 116h-171l-21 -116h-263l137 700h503l110 -700h-276zM393 621l-63 -353h119zM317 750l82 120h220l-122 -120h-180z" />
    <glyph glyph-name="Acircumflex" unicode="&#xc2;" horiz-adv-x="789" 
d="M493 0h-1l-18 116h-171l-21 -116h-263l137 700h503l110 -700h-276zM393 621l-63 -353h119zM572 870h1l16 -120h-153l-35 112l-35 -112h-153l15 120h344z" />
    <glyph glyph-name="Atilde" unicode="&#xc3;" horiz-adv-x="789" 
d="M493 0h-1l-18 116h-171l-21 -116h-263l137 700h503l110 -700h-276zM393 621l-63 -353h119zM217 762q0 64 29.5 93t94.5 29q34 0 56.5 -10t35.5 -20t24 -10t17.5 7t7.5 14l2 7h87q0 -64 -29.5 -93t-94.5 -29q-34 0 -57.5 10t-37 20t-24.5 10q-8 0 -14 -7t-8 -14l-1 -7h-88
z" />
    <glyph glyph-name="Adieresis" unicode="&#xc4;" horiz-adv-x="789" 
d="M493 0h-1l-18 116h-171l-21 -116h-263l137 700h503l110 -700h-276zM393 621l-63 -353h119zM245 930q65 0 95 -21.5t30 -69.5q0 -47 -29.5 -68.5t-95.5 -21.5q-65 0 -94.5 21.5t-29.5 68.5q0 48 29.5 69.5t94.5 21.5zM554 930q65 0 95 -21.5t30 -69.5q0 -47 -29.5 -68.5
t-95.5 -21.5q-65 0 -94.5 21.5t-29.5 68.5q0 48 29.5 69.5t94.5 21.5z" />
    <glyph glyph-name="Aring" unicode="&#xc5;" horiz-adv-x="789" 
d="M493 0h-1l-18 116h-171l-21 -116h-263l137 700h503l110 -700h-276zM393 621l-63 -353h119zM399 978q74 0 107 -27t33 -87t-33 -87t-107 -27t-107 27t-33 87t33 87t107 27zM399 830q26 0 26 34t-26 34t-26 -34t26 -34z" />
    <glyph glyph-name="AE" unicode="&#xc6;" horiz-adv-x="1029" 
d="M999 536h-262v-96h222v-164h-222v-112h262v-164h-498v116h-178l-41 -116h-262l241 700h738v-164zM501 620l-124 -352h124v352z" />
    <glyph glyph-name="Ccedilla" unicode="&#xc7;" horiz-adv-x="786" 
d="M323 -112l25 94q-166 13 -242 101t-76 267q0 194 90 282t290 88q163 0 245.5 -62t100.5 -199h-224q-9 53 -38 77.5t-82 24.5q-77 0 -111.5 -50t-34.5 -161t34.5 -161t112.5 -50q54 0 83 24.5t36 77.5h224q-26 -128 -99 -190t-206 -69l-7 -31q10 -2 24.5 -7.5t38.5 -28.5
t24 -54q0 -51 -57.5 -80.5t-155.5 -29.5v73q68 0 68 37q0 27 -63 27z" />
    <glyph glyph-name="Egrave" unicode="&#xc8;" horiz-adv-x="638" 
d="M608 536h-285v-96h245v-164h-245v-112h285v-164h-548v700h548v-164zM330 870l95 -120h-166l-136 120h207z" />
    <glyph glyph-name="Eacute" unicode="&#xc9;" horiz-adv-x="638" 
d="M608 536h-285v-96h245v-164h-245v-112h285v-164h-548v700h548v-164zM248 750l82 120h220l-122 -120h-180z" />
    <glyph glyph-name="Ecircumflex" unicode="&#xca;" horiz-adv-x="638" 
d="M608 536h-285v-96h245v-164h-245v-112h285v-164h-548v700h548v-164zM506 870h1l16 -120h-153l-35 112l-35 -112h-153l15 120h344z" />
    <glyph glyph-name="Edieresis" unicode="&#xcb;" horiz-adv-x="648" 
d="M616 536h-285v-96h245v-164h-245v-112h285v-164h-548v700h548v-164zM185 930q65 0 95 -21.5t30 -69.5q0 -47 -29.5 -68.5t-95.5 -21.5q-65 0 -94.5 21.5t-29.5 68.5q0 48 29.5 69.5t94.5 21.5zM494 930q65 0 95 -21.5t30 -69.5q0 -47 -29.5 -68.5t-95.5 -21.5
q-65 0 -94.5 21.5t-29.5 68.5q0 48 29.5 69.5t94.5 21.5z" />
    <glyph glyph-name="Igrave" unicode="&#xcc;" horiz-adv-x="382" 
d="M59 700h263v-700h-263v700zM206 860l95 -120h-166l-136 120h207z" />
    <glyph glyph-name="Iacute" unicode="&#xcd;" horiz-adv-x="382" 
d="M60 700h263v-700h-263v700zM80 750l82 120h220l-122 -120h-180z" />
    <glyph glyph-name="Icircumflex" unicode="&#xce;" horiz-adv-x="383" 
d="M60 700h263v-700h-263v700zM363 870h1l16 -120h-153l-35 112l-35 -112h-153l15 120h344z" />
    <glyph glyph-name="Idieresis" unicode="&#xcf;" horiz-adv-x="383" 
d="M60 700h263v-700h-263v700zM37 930q65 0 95 -21.5t30 -69.5q0 -47 -29.5 -68.5t-95.5 -21.5q-65 0 -94.5 21.5t-29.5 68.5q0 48 29.5 69.5t94.5 21.5zM346 930q65 0 95 -21.5t30 -69.5q0 -47 -29.5 -68.5t-95.5 -21.5q-65 0 -94.5 21.5t-29.5 68.5q0 48 29.5 69.5
t94.5 21.5z" />
    <glyph glyph-name="Ntilde" unicode="&#xd1;" horiz-adv-x="884" 
d="M574 700h250v-700h-418l-96 644v-644h-250v700h417l97 -644v644zM263 761q0 64 29.5 93t94.5 29q34 0 56.5 -10t35.5 -20t24 -10t17.5 7t7.5 14l2 7h87q0 -64 -29.5 -93t-94.5 -29q-34 0 -57.5 10t-37 20t-24.5 10q-8 0 -14 -7t-8 -14l-1 -7h-88z" />
    <glyph glyph-name="Ograve" unicode="&#xd2;" horiz-adv-x="842" 
d="M421 720q205 0 298 -88t93 -282t-93 -282t-298 -88t-298 88t-93 282t93 282t298 88zM421 544q-59 0 -86.5 -46.5t-27.5 -147.5t27.5 -147.5t86.5 -46.5t86.5 46.5t27.5 147.5t-27.5 147.5t-86.5 46.5zM420 870l95 -120h-166l-136 120h207z" />
    <glyph glyph-name="Oacute" unicode="&#xd3;" horiz-adv-x="842" 
d="M421 720q205 0 298 -88t93 -282t-93 -282t-298 -88t-298 88t-93 282t93 282t298 88zM421 544q-59 0 -86.5 -46.5t-27.5 -147.5t27.5 -147.5t86.5 -46.5t86.5 46.5t27.5 147.5t-27.5 147.5t-86.5 46.5zM338 750l82 120h220l-122 -120h-180z" />
    <glyph glyph-name="Ocircumflex" unicode="&#xd4;" horiz-adv-x="842" 
d="M421 720q205 0 298 -88t93 -282t-93 -282t-298 -88t-298 88t-93 282t93 282t298 88zM421 544q-59 0 -86.5 -46.5t-27.5 -147.5t27.5 -147.5t86.5 -46.5t86.5 46.5t27.5 147.5t-27.5 147.5t-86.5 46.5zM593 870h1l16 -120h-153l-35 112l-35 -112h-153l15 120h344z" />
    <glyph glyph-name="Otilde" unicode="&#xd5;" horiz-adv-x="842" 
d="M421 720q205 0 298 -88t93 -282t-93 -282t-298 -88t-298 88t-93 282t93 282t298 88zM421 544q-59 0 -86.5 -46.5t-27.5 -147.5t27.5 -147.5t86.5 -46.5t86.5 46.5t27.5 147.5t-27.5 147.5t-86.5 46.5zM244 762q0 64 29.5 93t94.5 29q34 0 56.5 -10t35.5 -20t24 -10
t17.5 7t8.5 14l1 7h87q0 -64 -29.5 -93t-94.5 -29q-34 0 -57.5 10t-37 20t-24.5 10q-8 0 -14 -7t-7 -14l-2 -7h-88z" />
    <glyph glyph-name="Odieresis" unicode="&#xd6;" horiz-adv-x="842" 
d="M421 720q205 0 298 -88t93 -282t-93 -282t-298 -88t-298 88t-93 282t93 282t298 88zM421 544q-59 0 -86.5 -46.5t-27.5 -147.5t27.5 -147.5t86.5 -46.5t86.5 46.5t27.5 147.5t-27.5 147.5t-86.5 46.5zM267 930q65 0 95 -21.5t30 -69.5q0 -47 -29.5 -68.5t-95.5 -21.5
q-65 0 -94.5 21.5t-29.5 68.5q0 48 29.5 69.5t94.5 21.5zM576 930q65 0 95 -21.5t30 -69.5q0 -47 -29.5 -68.5t-95.5 -21.5q-65 0 -94.5 21.5t-29.5 68.5q0 48 29.5 69.5t94.5 21.5z" />
    <glyph glyph-name="multiply" unicode="&#xd7;" horiz-adv-x="570" 
d="M150 508l135 -135l135 135l130 -117l-141 -141l141 -141l-130 -117l-135 135l-135 -135l-130 117l141 141l-141 141z" />
    <glyph glyph-name="Oslash" unicode="&#xd8;" horiz-adv-x="842" 
d="M812 350h-1q0 -194 -93 -282t-298 -88q-22 0 -60 2l-22 -62h-155l32 91q-95 37 -140 119.5t-45 219.5q0 194 93 282t298 88q28 0 41 -1l21 61h155l-30 -85q105 -34 154.5 -118.5t49.5 -226.5zM423 156q59 0 87 46.5t28 147.5q0 38 -3.5 65.5t-13.5 60t-34.5 50.5
t-62.5 18q-30 0 -52.5 -13t-34 -31.5t-18.5 -47t-8.5 -51t-1.5 -51.5q0 -37 3.5 -65t14 -60.5t35 -50.5t61.5 -18z" />
    <glyph glyph-name="Ugrave" unicode="&#xd9;" horiz-adv-x="762" 
d="M50 262v438h263v-438q0 -55 16.5 -80.5t51.5 -25.5t51.5 25.5t16.5 80.5v438h263v-438q0 -148 -78.5 -215t-252.5 -67t-252.5 67t-78.5 215zM380 870l95 -120h-166l-136 120h207z" />
    <glyph glyph-name="Uacute" unicode="&#xda;" horiz-adv-x="762" 
d="M50 262v438h263v-438q0 -55 16.5 -80.5t51.5 -25.5t51.5 25.5t16.5 80.5v438h263v-438q0 -148 -78.5 -215t-252.5 -67t-252.5 67t-78.5 215zM298 750l82 120h220l-122 -120h-180z" />
    <glyph glyph-name="Ucircumflex" unicode="&#xdb;" horiz-adv-x="762" 
d="M50 262v438h263v-438q0 -55 16.5 -80.5t51.5 -25.5t51.5 25.5t16.5 80.5v438h263v-438q0 -148 -78.5 -215t-252.5 -67t-252.5 67t-78.5 215zM553 870h1l16 -120h-153l-35 112l-35 -112h-153l15 120h344z" />
    <glyph glyph-name="Udieresis" unicode="&#xdc;" horiz-adv-x="762" 
d="M50 262v438h263v-438q0 -55 16.5 -80.5t51.5 -25.5t51.5 25.5t16.5 80.5v438h263v-438q0 -148 -78.5 -215t-252.5 -67t-252.5 67t-78.5 215zM226 930q65 0 95 -21.5t30 -69.5q0 -47 -29.5 -68.5t-95.5 -21.5q-65 0 -94.5 21.5t-29.5 68.5q0 48 29.5 69.5t94.5 21.5z
M535 930q65 0 95 -21.5t30 -69.5q0 -47 -29.5 -68.5t-95.5 -21.5q-65 0 -94.5 21.5t-29.5 68.5q0 48 29.5 69.5t94.5 21.5z" />
    <glyph glyph-name="Yacute" unicode="&#xdd;" horiz-adv-x="743" 
d="M624 300h-1h-121v-300h-249v300h-121l-132 400h289l89 -384l89 384h275zM297 750l82 120h220l-122 -120h-180z" />
    <glyph glyph-name="germandbls" unicode="&#xdf;" horiz-adv-x="733" 
d="M358 720q164 0 239 -45t75 -142q0 -77 -48 -114t-156 -44q122 -7 177.5 -46t55.5 -117q0 -111 -56.5 -161.5t-180.5 -50.5q-63 0 -113 20v140q16 -8 50 -8t50 15t16 49q0 41 -22.5 60t-71.5 19v162q78 0 78 56q0 29 -18 42.5t-58 13.5q-47 0 -68 -19t-21 -61v-488h-236
v466q0 133 73 193t235 60z" />
    <glyph glyph-name="agrave" unicode="&#xe0;" horiz-adv-x="602" 
d="M380 0l-54 119q-11 -68 -46.5 -98t-104.5 -30q-156 0 -156 152q0 96 62.5 137.5t201.5 41.5h42v18q0 54 -32 54q-31 0 -31 -44h-222q0 84 62 122t199 38t199 -46t62 -148v-316h-182zM297 207q-42 0 -42 -42q0 -35 30 -35q40 0 40 53v24h-28zM317 700l78 -150h-180
l-132 150h234z" />
    <glyph glyph-name="aacute" unicode="&#xe1;" horiz-adv-x="602" 
d="M380 0l-54 119q-11 -68 -46.5 -98.5t-104.5 -30.5q-156 0 -156 153q0 96 62.5 137.5t201.5 41.5h42v18q0 54 -32 54q-31 0 -31 -44h-222q0 84 62 122t199 38t199 -46t62 -148v-316h-182zM297 207q-42 0 -42 -42q0 -35 30 -35q40 0 40 53v24h-28zM200 550l78 150h234
l-132 -150h-180z" />
    <glyph glyph-name="acircumflex" unicode="&#xe2;" horiz-adv-x="602" 
d="M380 0l-54 119q-11 -68 -46.5 -98.5t-104.5 -30.5q-156 0 -156 153q0 96 62.5 137.5t201.5 41.5h42v18q0 54 -32 54q-31 0 -31 -44h-222q0 84 62 122t199 38t199 -46t62 -148v-316h-182zM297 207q-42 0 -42 -42q0 -35 30 -35q40 0 40 53v24h-28zM471 700l19 -150h-140
l-51 142l-51 -142h-140l19 150h344z" />
    <glyph glyph-name="atilde" unicode="&#xe3;" horiz-adv-x="602" 
d="M380 0l-54 119q-11 -68 -46.5 -98.5t-104.5 -30.5q-156 0 -156 153q0 96 62.5 137.5t201.5 41.5h42v18q0 54 -32 54q-31 0 -31 -44h-222q0 84 62 122t199 38t199 -46t62 -148v-316h-182zM297 207q-42 0 -42 -42q0 -35 30 -35q40 0 40 53v24h-28zM121 581q0 81 29.5 117.5
t94.5 36.5q34 0 57 -15.5t35 -31t19 -15.5q11 0 14.5 8.5t3.5 29.5h101q0 -81 -29.5 -117.5t-94.5 -36.5q-33 0 -55 9.5t-29.5 21.5t-14.5 21.5t-14 9.5q-16 0 -16 -38h-101z" />
    <glyph glyph-name="adieresis" unicode="&#xe4;" horiz-adv-x="605" 
d="M380 0l-54 119q-11 -68 -46.5 -98.5t-104.5 -30.5q-156 0 -156 153q0 96 62.5 137.5t201.5 41.5h42v18q0 54 -32 54q-31 0 -31 -44h-222q0 84 62 122t199 38t199 -46t62 -148v-316h-182zM297 207q-42 0 -42 -42q0 -35 30 -35q40 0 40 53v24h-28zM34 682q0 57 29.5 82
t95.5 25q65 0 94.5 -25.5t29.5 -82.5q0 -56 -29.5 -81.5t-95.5 -25.5q-65 0 -94.5 25.5t-29.5 82.5zM317 680q0 57 29.5 82t95.5 25q65 0 94.5 -25.5t29.5 -82.5q0 -56 -29.5 -81.5t-95.5 -25.5q-65 0 -94.5 25.5t-29.5 82.5z" />
    <glyph glyph-name="aring" unicode="&#xe5;" horiz-adv-x="602" 
d="M380 0l-54 119q-11 -68 -46.5 -98.5t-104.5 -30.5q-156 0 -156 153q0 96 62.5 137.5t201.5 41.5h42v18q0 54 -32 54q-31 0 -31 -44h-222q0 84 62 122t199 38t199 -46t62 -148v-316h-182zM297 207q-42 0 -42 -42q0 -35 30 -35q40 0 40 53v24h-28zM299 779q74 0 107 -27
t33 -87t-33 -87t-107 -27t-107 27t-33 87t33 87t107 27zM299 631q26 0 26 34t-26 34t-26 -34t26 -34z" />
    <glyph glyph-name="ae" unicode="&#xe6;" horiz-adv-x="928" 
d="M908 254v-58h-352q0 -80 55 -80q44 0 50 46h223q-14 -91 -67 -131.5t-152 -40.5q-100 0 -151 42t-65 136q-9 -93 -67.5 -135.5t-169.5 -42.5q-102 0 -148.5 36t-46.5 114q0 57 22.5 95t64.5 55t81.5 23t92.5 6h46v16q0 46 -43 46q-40 0 -40 -48h-202q0 91 52 134t160 43
q104 0 150.5 -40t51.5 -130q15 89 67 129.5t151 40.5q122 0 179.5 -61.5t57.5 -194.5zM322 204h-15q-55 0 -55 -40q0 -20 5.5 -28t21.5 -8q43 0 43 76zM667 312q0 68 -55 68q-28 0 -40.5 -16t-12.5 -52h108z" />
    <glyph glyph-name="ccedilla" unicode="&#xe7;" horiz-adv-x="622" 
d="M220 -118l30 111q-120 13 -175 75t-55 182q0 137 71.5 198.5t229.5 61.5q139 0 205.5 -49t75.5 -157h-236q-3 29 -14.5 41.5t-34.5 12.5q-32 0 -46.5 -25.5t-14.5 -82.5t14.5 -82.5t46.5 -25.5q22 0 33.5 12.5t15.5 41.5h236q-8 -99 -64.5 -148.5t-170.5 -56.5l-9 -41
q7 -2 16.5 -6t26.5 -13.5t28 -27.5t11 -41q0 -53 -59 -82.5t-158 -29.5v80q49 0 49 28q0 24 -52 24z" />
    <glyph glyph-name="egrave" unicode="&#xe8;" horiz-adv-x="622" 
d="M602 198h-349q0 -42 13.5 -61t43.5 -19q44 0 48 46h223q-14 -91 -78 -132.5t-192 -41.5q-153 0 -222 61.5t-69 198.5t69 198.5t222 61.5t222 -61t69 -195v-56zM310 382q-29 0 -42 -16t-13 -52h110q0 68 -55 68zM329 700l78 -150h-180l-132 150h234z" />
    <glyph glyph-name="eacute" unicode="&#xe9;" horiz-adv-x="622" 
d="M602 198h-349q0 -42 13.5 -61t43.5 -19q44 0 48 46h223q-14 -91 -78 -132.5t-192 -41.5q-153 0 -222 61.5t-69 198.5t69 198.5t222 61.5t222 -61t69 -195v-56zM310 382q-29 0 -42 -16t-13 -52h110q0 68 -55 68zM211 550l78 150h234l-132 -150h-180z" />
    <glyph glyph-name="ecircumflex" unicode="&#xea;" horiz-adv-x="622" 
d="M602 198h-349q0 -42 13.5 -61t43.5 -19q44 0 48 46h223q-14 -91 -78 -132.5t-192 -41.5q-153 0 -222 61.5t-69 198.5t69 198.5t222 61.5t222 -61t69 -195v-56zM310 382q-29 0 -42 -16t-13 -52h110q0 68 -55 68zM480 700l19 -150h-140l-51 142l-51 -142h-140l19 150h344z
" />
    <glyph glyph-name="edieresis" unicode="&#xeb;" horiz-adv-x="622" 
d="M602 198h-349q0 -42 13.5 -61t43.5 -19q44 0 48 46h223q-14 -91 -78 -132.5t-192 -41.5q-153 0 -222 61.5t-69 198.5t69 198.5t222 61.5t222 -61t69 -195v-56zM310 382q-29 0 -42 -16t-13 -52h110q0 68 -55 68zM44 651q0 57 29.5 82t95.5 25q65 0 94.5 -25.5t29.5 -82.5
q0 -56 -29.5 -81.5t-95.5 -25.5q-65 0 -94.5 25.5t-29.5 82.5zM327 649q0 57 29.5 82t95.5 25q65 0 94.5 -25.5t29.5 -82.5q0 -56 -29.5 -81.5t-95.5 -25.5q-65 0 -94.5 25.5t-29.5 82.5z" />
    <glyph glyph-name="igrave" unicode="&#xec;" horiz-adv-x="336" 
d="M286 0h-236v500h236v-500zM204 700l78 -150h-180l-132 150h234z" />
    <glyph glyph-name="iacute" unicode="&#xed;" horiz-adv-x="342" 
d="M286 0h-236v500h236v-500zM50 550l78 150h234l-132 -150h-180z" />
    <glyph glyph-name="icircumflex" unicode="&#xee;" horiz-adv-x="336" 
d="M286 0h-236v500h236v-500zM339 700l19 -150h-140l-51 142l-51 -142h-140l19 150h344z" />
    <glyph glyph-name="idieresis" unicode="&#xef;" horiz-adv-x="336" 
d="M286 0h-236v500h236v-500zM-97 651q0 57 29.5 82t95.5 25q65 0 94.5 -25.5t29.5 -82.5q0 -56 -29.5 -81.5t-95.5 -25.5q-65 0 -94.5 25.5t-29.5 82.5zM186 649q0 57 29.5 82t95.5 25q65 0 94.5 -25.5t29.5 -82.5q0 -56 -29.5 -81.5t-95.5 -25.5q-65 0 -94.5 25.5
t-29.5 82.5z" />
    <glyph glyph-name="ntilde" unicode="&#xf1;" horiz-adv-x="632" 
d="M232 500l54 -129q11 72 43.5 105.5t88.5 33.5q91 0 132.5 -57t41.5 -183v-270h-235v258q0 55 -8 77.5t-31 22.5q-32 0 -32 -88v-270h-236v500h182zM122 574q0 81 29.5 117.5t94.5 36.5q34 0 57 -15.5t35 -31t19 -15.5q11 0 14.5 8.5t3.5 29.5h101q0 -81 -29.5 -117.5
t-94.5 -36.5q-33 0 -55 9.5t-29.5 21.5t-14.5 21.5t-14 9.5q-16 0 -16 -38h-101z" />
    <glyph glyph-name="ograve" unicode="&#xf2;" horiz-adv-x="642" 
d="M321 510q158 0 229.5 -61.5t71.5 -198.5t-71.5 -198.5t-229.5 -61.5t-229.5 61.5t-71.5 198.5t71.5 198.5t229.5 61.5zM256 250q0 -56 15.5 -82t49.5 -26t49.5 26t15.5 82t-15.5 82t-49.5 26q-65 0 -65 -108zM338 700l78 -150h-180l-132 150h234z" />
    <glyph glyph-name="oacute" unicode="&#xf3;" horiz-adv-x="642" 
d="M321 510q158 0 229.5 -61.5t71.5 -198.5t-71.5 -198.5t-229.5 -61.5t-229.5 61.5t-71.5 198.5t71.5 198.5t229.5 61.5zM256 250q0 -56 15.5 -82t49.5 -26t49.5 26t15.5 82t-15.5 82t-49.5 26q-65 0 -65 -108zM221 550l78 150h234l-132 -150h-180z" />
    <glyph glyph-name="ocircumflex" unicode="&#xf4;" horiz-adv-x="642" 
d="M321 510q158 0 229.5 -61.5t71.5 -198.5t-71.5 -198.5t-229.5 -61.5t-229.5 61.5t-71.5 198.5t71.5 198.5t229.5 61.5zM256 250q0 -56 15.5 -82t49.5 -26t49.5 26t15.5 82t-15.5 82t-49.5 26q-65 0 -65 -108zM491 700l19 -150h-140l-51 142l-51 -142h-140l19 150h344z
" />
    <glyph glyph-name="otilde" unicode="&#xf5;" horiz-adv-x="642" 
d="M321 510q158 0 229.5 -61.5t71.5 -198.5t-71.5 -198.5t-229.5 -61.5t-229.5 61.5t-71.5 198.5t71.5 198.5t229.5 61.5zM256 250q0 -56 15.5 -82t49.5 -26t49.5 26t15.5 82t-15.5 82t-49.5 26q-65 0 -65 -108zM142 574q0 81 29.5 117.5t94.5 36.5q34 0 57 -15.5t35 -31
t19 -15.5q11 0 14.5 8.5t3.5 29.5h101q0 -81 -29.5 -117.5t-94.5 -36.5q-33 0 -55 9.5t-29.5 21.5t-14.5 21.5t-14 9.5q-16 0 -16 -38h-101z" />
    <glyph glyph-name="odieresis" unicode="&#xf6;" horiz-adv-x="642" 
d="M321 510q158 0 229.5 -61.5t71.5 -198.5t-71.5 -198.5t-229.5 -61.5t-229.5 61.5t-71.5 198.5t71.5 198.5t229.5 61.5zM256 250q0 -56 15.5 -82t49.5 -26t49.5 26t15.5 82t-15.5 82t-49.5 26q-65 0 -65 -108zM55 651q0 57 29.5 82t95.5 25q65 0 94.5 -25.5t29.5 -82.5
q0 -56 -29.5 -81.5t-95.5 -25.5q-65 0 -94.5 25.5t-29.5 82.5zM338 649q0 57 29.5 82t95.5 25q65 0 94.5 -25.5t29.5 -82.5q0 -56 -29.5 -81.5t-95.5 -25.5q-65 0 -94.5 25.5t-29.5 82.5z" />
    <glyph glyph-name="divide" unicode="&#xf7;" horiz-adv-x="560" 
d="M279 -12q-48 0 -78 25.5t-30 68.5t29.5 68.5t78.5 25.5q48 0 77.5 -25.5t29.5 -68.5t-29.5 -68.5t-77.5 -25.5zM279 344q-48 0 -78 25.5t-30 68.5t29.5 68.5t78.5 25.5q48 0 77.5 -25.5t29.5 -68.5t-29.5 -68.5t-77.5 -25.5zM540 198h-520v122h520v-122z" />
    <glyph glyph-name="oslash" unicode="&#xf8;" horiz-adv-x="642" 
d="M284 -9l-21 -60h-100l26 74q-86 22 -126 82t-40 163q0 137 71.5 198.5t229.5 61.5q26 0 38 -1l21 61h101l-26 -75q86 -22 126 -82t40 -163q0 -137 -71.5 -198.5t-229.5 -61.5q-26 0 -39 1zM324 359q-66 0 -66 -111q0 -106 65 -106t65 108q0 109 -64 109z" />
    <glyph glyph-name="ugrave" unicode="&#xf9;" horiz-adv-x="632" 
d="M582 0h-183l-54 129q-11 -72 -43.5 -105.5t-88.5 -33.5q-91 0 -132.5 57t-41.5 183v270h236v-258q0 -55 8 -77.5t31 -22.5q32 0 32 88v270h236v-500zM327 700l78 -150h-180l-132 150h234z" />
    <glyph glyph-name="uacute" unicode="&#xfa;" horiz-adv-x="632" 
d="M582 0h-183l-54 129q-11 -72 -43.5 -105.5t-88.5 -33.5q-91 0 -132.5 57t-41.5 183v270h236v-258q0 -55 8 -77.5t31 -22.5q32 0 32 88v270h236v-500zM210 550l78 150h234l-132 -150h-180z" />
    <glyph glyph-name="ucircumflex" unicode="&#xfb;" horiz-adv-x="632" 
d="M582 0h-183l-54 129q-11 -72 -43.5 -105.5t-88.5 -33.5q-91 0 -132.5 57t-41.5 183v270h236v-258q0 -55 8 -77.5t31 -22.5q32 0 32 88v270h236v-500zM480 700l19 -150h-140l-51 142l-51 -142h-140l19 150h344z" />
    <glyph glyph-name="udieresis" unicode="&#xfc;" horiz-adv-x="632" 
d="M582 0h-183l-54 129q-11 -72 -43.5 -105.5t-88.5 -33.5q-91 0 -132.5 57t-41.5 183v270h236v-258q0 -55 8 -77.5t31 -22.5q32 0 32 88v270h236v-500zM44 651q0 57 29.5 82t95.5 25q65 0 94.5 -25.5t29.5 -82.5q0 -56 -29.5 -81.5t-95.5 -25.5q-65 0 -94.5 25.5
t-29.5 82.5zM327 649q0 57 29.5 82t95.5 25q65 0 94.5 -25.5t29.5 -82.5q0 -56 -29.5 -81.5t-95.5 -25.5q-65 0 -94.5 25.5t-29.5 82.5z" />
    <glyph glyph-name="yacute" unicode="&#xfd;" horiz-adv-x="555" 
d="M211 -52q59 0 63 52h-178l-96 500h235l48 -401l36 401h236l-85 -511q-14 -89 -62.5 -129t-140.5 -40h-176v128h120zM182 550l78 150h234l-132 -150h-180z" />
    <glyph glyph-name="ydieresis" unicode="&#xff;" horiz-adv-x="555" 
d="M211 -52q59 0 63 52h-178l-96 500h235l48 -401l36 401h236l-85 -511q-14 -89 -62.5 -129t-140.5 -40h-176v128h120zM16 651q0 57 29.5 82t95.5 25q65 0 94.5 -25.5t29.5 -82.5q0 -56 -29.5 -81.5t-95.5 -25.5q-65 0 -94.5 25.5t-29.5 82.5zM299 649q0 57 29.5 82t95.5 25
q65 0 94.5 -25.5t29.5 -82.5q0 -56 -29.5 -81.5t-95.5 -25.5q-65 0 -94.5 25.5t-29.5 82.5z" />
    <glyph glyph-name="Amacron" unicode="&#x100;" horiz-adv-x="789" 
d="M493 0h-1l-18 116h-171l-21 -116h-263l137 700h503l110 -700h-276zM393 621l-63 -353h119zM229 764v116h340v-116h-340z" />
    <glyph glyph-name="amacron" unicode="&#x101;" horiz-adv-x="602" 
d="M380 0l-54 119q-11 -68 -46.5 -98t-104.5 -30q-156 0 -156 152q0 96 62.5 137.5t201.5 41.5h42v18q0 54 -32 54q-31 0 -31 -44h-222q0 84 62 122t199 38t199 -46t62 -148v-316h-182zM297 207q-42 0 -42 -42q0 -35 30 -35q40 0 40 53v24h-28zM129 565v116h340v-116h-340z
" />
    <glyph glyph-name="Abreve" unicode="&#x102;" horiz-adv-x="789" 
d="M493 0h-1l-18 116h-171l-21 -116h-263l137 700h503l110 -700h-276zM393 621l-63 -353h119zM576 870q0 -63 -42 -91.5t-135 -28.5t-135 28.5t-42 91.5h149q0 -28 28 -28q29 0 29 28h148z" />
    <glyph glyph-name="abreve" unicode="&#x103;" horiz-adv-x="602" 
d="M380 0l-54 119q-11 -68 -46.5 -98t-104.5 -30q-156 0 -156 152q0 96 62.5 137.5t201.5 41.5h42v18q0 54 -32 54q-31 0 -31 -44h-222q0 84 62 122t199 38t199 -46t62 -148v-316h-182zM297 207q-42 0 -42 -42q0 -35 30 -35q40 0 40 53v24h-28zM476 701q0 -79 -42 -114.5
t-135 -35.5t-135 35.5t-42 114.5h145q0 -46 32 -46t32 46h145z" />
    <glyph glyph-name="Aogonek" unicode="&#x104;" horiz-adv-x="789" 
d="M738 0q-21 -28 -25.5 -50t18.5 -25q16 0 32 8v-163q-30 -20 -71 -20q-58 0 -92.5 41.5t-30.5 101.5t49 107h-126l-18 116h-171l-21 -116h-263l137 700h503l110 -700h-31zM392 620l-63 -353h119z" />
    <glyph glyph-name="aogonek" unicode="&#x105;" horiz-adv-x="602" 
d="M562 0h-70q-21 -28 -25 -49t19 -24q16 0 32 8v-163q-30 -20 -71 -20q-58 0 -93 42.5t-29.5 103t52.5 107.5l-51 114q-11 -68 -46.5 -98t-104.5 -30q-156 0 -156 152q0 96 62.5 137.5t201.5 41.5h42v18q0 54 -32 54q-31 0 -31 -44h-222q0 84 62 122t199 38t199 -46
t62 -148v-316zM323 207h-28q-42 0 -42 -42q0 -35 30 -35q40 0 40 53v24z" />
    <glyph glyph-name="Cacute" unicode="&#x106;" horiz-adv-x="812" 
d="M519 244h263q-25 -139 -110 -201.5t-247 -62.5q-208 0 -301 88t-93 282t93 282t301 88q170 0 255.5 -62.5t101.5 -201.5h-263q-10 88 -95 88q-62 0 -90 -46t-28 -148t28 -148t90 -46q94 0 95 88zM323 750l82 120h220l-122 -120h-180z" />
    <glyph glyph-name="cacute" unicode="&#x107;" horiz-adv-x="622" 
d="M366 196h236q-9 -108 -75.5 -157t-205.5 -49q-158 0 -229.5 61.5t-71.5 198.5t71.5 198.5t229.5 61.5q139 0 205.5 -49t75.5 -157h-236q-3 29 -14.5 41.5t-34.5 12.5q-32 0 -46.5 -25.5t-14.5 -82.5t14.5 -82.5t46.5 -25.5q22 0 33.5 12.5t15.5 41.5zM221 550l78 150h234
l-132 -150h-180z" />
    <glyph glyph-name="Ccircumflex" unicode="&#x108;" horiz-adv-x="812" 
d="M519 244h263q-25 -139 -110 -201.5t-247 -62.5q-208 0 -301 88t-93 282t93 282t301 88q170 0 255.5 -62.5t101.5 -201.5h-263q-10 88 -95 88q-62 0 -90 -46t-28 -148t28 -148t90 -46q94 0 95 88zM597 870h1l16 -120h-153l-35 112l-35 -112h-153l15 120h344z" />
    <glyph glyph-name="ccircumflex" unicode="&#x109;" horiz-adv-x="622" 
d="M366 196h236q-9 -108 -75.5 -157t-205.5 -49q-158 0 -229.5 61.5t-71.5 198.5t71.5 198.5t229.5 61.5q139 0 205.5 -49t75.5 -157h-236q-3 29 -14.5 41.5t-34.5 12.5q-32 0 -46.5 -25.5t-14.5 -82.5t14.5 -82.5t46.5 -25.5q22 0 33.5 12.5t15.5 41.5zM492 700l19 -150
h-140l-51 142l-51 -142h-140l19 150h344z" />
    <glyph glyph-name="Cdotaccent" unicode="&#x10a;" horiz-adv-x="812" 
d="M519 244h263q-25 -139 -110 -201.5t-247 -62.5q-208 0 -301 88t-93 282t93 282t301 88q170 0 255.5 -62.5t101.5 -201.5h-263q-10 88 -95 88q-62 0 -90 -46t-28 -148t28 -148t90 -46q94 0 95 88zM301 840q0 48 29.5 69.5t94.5 21.5t95 -21.5t30 -69.5q0 -47 -29.5 -68.5
t-95.5 -21.5q-65 0 -94.5 21.5t-29.5 68.5z" />
    <glyph glyph-name="cdotaccent" unicode="&#x10b;" horiz-adv-x="622" 
d="M366 196h236q-9 -108 -75.5 -157t-205.5 -49q-158 0 -229.5 61.5t-71.5 198.5t71.5 198.5t229.5 61.5q139 0 205.5 -49t75.5 -157h-236q-3 29 -14.5 41.5t-34.5 12.5q-32 0 -46.5 -25.5t-14.5 -82.5t14.5 -82.5t46.5 -25.5q22 0 33.5 12.5t15.5 41.5zM196 651
q0 54 29 77.5t95 23.5q65 0 94.5 -24.5t29.5 -77.5t-29.5 -77t-95.5 -24q-64 0 -93.5 24.5t-29.5 77.5z" />
    <glyph glyph-name="Ccaron" unicode="&#x10c;" horiz-adv-x="812" 
d="M519 244h263q-25 -139 -110 -201.5t-247 -62.5q-208 0 -301 88t-93 282t93 282t301 88q170 0 255.5 -62.5t101.5 -201.5h-263q-10 88 -95 88q-62 0 -90 -46t-28 -148t28 -148t90 -46q94 0 95 88zM616 900l-19 -150h-344l-19 150h140l51 -142l51 142h140z" />
    <glyph glyph-name="ccaron" unicode="&#x10d;" horiz-adv-x="622" 
d="M366 196h236q-9 -108 -75.5 -157t-205.5 -49q-158 0 -229.5 61.5t-71.5 198.5t71.5 198.5t229.5 61.5q139 0 205.5 -49t75.5 -157h-236q-3 29 -14.5 41.5t-34.5 12.5q-32 0 -46.5 -25.5t-14.5 -82.5t14.5 -82.5t46.5 -25.5q22 0 33.5 12.5t15.5 41.5zM511 700l-19 -150
h-344l-19 150h140l51 -142l51 142h140z" />
    <glyph glyph-name="Dcaron" unicode="&#x10e;" horiz-adv-x="789" 
d="M759 350q0 -184 -90.5 -267t-290.5 -83h-318v700h318q200 0 290.5 -83t90.5 -267zM364 536h-42v-372h42q62 0 90 44.5t28 141.5t-28 141.5t-90 44.5zM540 900l-19 -150h-344l-19 150h140l51 -142l51 142h140z" />
    <glyph glyph-name="dcaron" unicode="&#x10f;" horiz-adv-x="820" 
d="M217 -10q-103 0 -150 61.5t-47 198.5q0 136 46.5 198t149.5 62q65 0 101 -37.5t49 -118.5v346h236v-700h-182l-53 153q-12 -85 -48.5 -124t-101.5 -39zM309 142q28 0 41 26t13 82q0 57 -12.5 82.5t-41.5 25.5t-41.5 -25.5t-12.5 -82.5q0 -56 13 -82t41 -26zM628 644
q0 64 76 64q51 0 71.5 -24.5t20.5 -70.5q0 -68 -37 -98t-121 -30v68q57 0 57 36q-36 0 -51.5 13t-15.5 42z" />
    <glyph glyph-name="Dcroat" unicode="&#x110;" horiz-adv-x="829" 
d="M799 350q0 -184 -90.5 -267t-290.5 -83h-318v304h-90v140h90v256h318q200 0 290.5 -83t90.5 -267zM404 536h-42v-92h101v-140h-101v-140h42q62 0 90 44.5t28 141.5t-28 141.5t-90 44.5z" />
    <glyph glyph-name="dcroat" unicode="&#x111;" horiz-adv-x="672" 
d="M366 630v70h236v-70h60v-92h-60v-538h-182l-53 153q-12 -85 -48.5 -124t-101.5 -39q-103 0 -150 61.5t-47 198.5q0 136 46.5 198t149.5 62q65 0 101 -37.5t49 -118.5v184h-165v92h165zM309 142q29 1 41.5 26.5t12.5 81.5q0 57 -12.5 82.5t-41.5 25.5t-41.5 -25.5
t-12.5 -82.5q0 -56 12.5 -81.5t41.5 -26.5z" />
    <glyph glyph-name="Emacron" unicode="&#x112;" horiz-adv-x="638" 
d="M608 536h-285v-96h245v-164h-245v-112h285v-164h-548v700h548v-164zM160 764v116h340v-116h-340z" />
    <glyph glyph-name="emacron" unicode="&#x113;" horiz-adv-x="622" 
d="M602 198h-349q0 -42 13.5 -61t43.5 -19q44 0 48 46h223q-14 -91 -78 -132.5t-192 -41.5q-153 0 -222 61.5t-69 198.5t69 198.5t222 61.5t222 -61t69 -195v-56zM310 382q-29 0 -42 -16t-13 -52h110q0 68 -55 68zM139 564v116h340v-116h-340z" />
    <glyph glyph-name="Ebreve" unicode="&#x114;" horiz-adv-x="638" 
d="M608 536h-285v-96h245v-164h-245v-112h285v-164h-548v700h548v-164zM507 870q0 -63 -42 -91.5t-135 -28.5t-135 28.5t-42 91.5h149q0 -28 28 -28q29 0 29 28h148z" />
    <glyph glyph-name="ebreve" unicode="&#x115;" horiz-adv-x="622" 
d="M602 198h-349q0 -42 13.5 -61t43.5 -19q44 0 48 46h223q-14 -91 -78 -132.5t-192 -41.5q-153 0 -222 61.5t-69 198.5t69 198.5t222 61.5t222 -61t69 -195v-56zM310 382q-29 0 -42 -16t-13 -52h110q0 68 -55 68zM486 700q0 -79 -42 -114.5t-135 -35.5t-135 35.5t-42 114.5
h145q0 -46 32 -46t32 46h145z" />
    <glyph glyph-name="Edotaccent" unicode="&#x116;" horiz-adv-x="638" 
d="M608 536h-285v-96h245v-164h-245v-112h285v-164h-548v700h548v-164zM205 840q0 48 29.5 69.5t94.5 21.5t95 -21.5t30 -69.5q0 -47 -29.5 -68.5t-95.5 -21.5q-65 0 -94.5 21.5t-29.5 68.5z" />
    <glyph glyph-name="edotaccent" unicode="&#x117;" horiz-adv-x="622" 
d="M602 198h-349q0 -42 13.5 -61t43.5 -19q44 0 48 46h223q-14 -91 -78 -132.5t-192 -41.5q-153 0 -222 61.5t-69 198.5t69 198.5t222 61.5t222 -61t69 -195v-56zM310 382q-29 0 -42 -16t-13 -52h110q0 68 -55 68zM185 651q0 54 29 77.5t95 23.5q65 0 94.5 -24.5t29.5 -77.5
t-29.5 -77t-95.5 -24q-64 0 -93.5 24.5t-29.5 77.5z" />
    <glyph glyph-name="Eogonek" unicode="&#x118;" horiz-adv-x="638" 
d="M579 0l-1 -1q-21 -28 -25 -49.5t19 -24.5q16 0 32 8v-163q-30 -20 -71 -20q-58 0 -92.5 41.5t-30.5 101.5t49 107h-399v700h548v-164h-285v-96h245v-164h-245v-112h285v-164h-29z" />
    <glyph glyph-name="eogonek" unicode="&#x119;" horiz-adv-x="622" 
d="M472 15l-2 -3q-38 -41 -38 -71q0 -18 20 -18q16 0 32 8v-163q-30 -20 -71 -20q-56 0 -90.5 39.5t-33 97t40.5 104.5h-18q-153 0 -222 61.5t-69 198.5t69 198.5t222 61.5t222 -61t69 -195v-56h-348q0 -42 13.5 -61t43.5 -19q44 0 48 46h223q-18 -110 -111 -148zM309 379
q-29 0 -42 -16t-13 -52h110q0 68 -55 68z" />
    <glyph glyph-name="Ecaron" unicode="&#x11a;" horiz-adv-x="638" 
d="M608 536h-285v-96h245v-164h-245v-112h285v-164h-548v700h548v-164zM521 900l-19 -150h-344l-19 150h140l51 -142l51 142h140z" />
    <glyph glyph-name="ecaron" unicode="&#x11b;" horiz-adv-x="622" 
d="M602 198h-349q0 -42 13.5 -61t43.5 -19q44 0 48 46h223q-14 -91 -78 -132.5t-192 -41.5q-153 0 -222 61.5t-69 198.5t69 198.5t222 61.5t222 -61t69 -195v-56zM310 382q-29 0 -42 -16t-13 -52h110q0 68 -55 68zM500 700l-19 -150h-344l-19 150h140l51 -142l51 142h140z
" />
    <glyph glyph-name="Gbreve" unicode="&#x11e;" horiz-adv-x="822" 
d="M421 266v152h371v-68q0 -194 -88 -282t-283 -88q-205 0 -298 88t-93 282t93 282t298 88q164 0 249.5 -57t111.5 -183h-249q-13 64 -111 64q-60 0 -87.5 -46.5t-27.5 -147.5t27.5 -147.5t86.5 -46.5q63 0 92 26.5t29 83.5h-121zM597 870q0 -63 -42 -91.5t-135 -28.5
t-135 28.5t-42 91.5h149q0 -28 28 -28q29 0 29 28h148z" />
    <glyph glyph-name="gbreve" unicode="&#x11f;" 
d="M365 149q-23 -159 -153 -159q-98 0 -147 63t-49 197q0 135 49 197.5t148 62.5q66 0 102 -38.5t48 -122.5l54 151h182v-450q0 -137 -69 -198.5t-222 -61.5q-130 0 -194 41.5t-76 132.5h223q3 -24 13.5 -35t34.5 -11q56 0 56 95v136zM307 142q55 0 55 108t-55 108t-55 -108
t55 -108zM483 700q0 -79 -42 -114.5t-135 -35.5t-135 35.5t-42 114.5h145q0 -46 32 -46t32 46h145z" />
    <glyph glyph-name="Gdotaccent" unicode="&#x120;" horiz-adv-x="822" 
d="M421 266v152h371v-68q0 -194 -88 -282t-283 -88q-205 0 -298 88t-93 282t93 282t298 88q164 0 249.5 -57t111.5 -183h-249q-13 64 -111 64q-60 0 -87.5 -46.5t-27.5 -147.5t27.5 -147.5t86.5 -46.5q63 0 92 26.5t29 83.5h-121zM296 840q0 48 29.5 69.5t94.5 21.5
t95 -21.5t30 -69.5q0 -47 -29.5 -68.5t-95.5 -21.5q-65 0 -94.5 21.5t-29.5 68.5z" />
    <glyph glyph-name="gdotaccent" unicode="&#x121;" 
d="M365 149q-23 -159 -153 -159q-98 0 -147 63t-49 197q0 135 49 197.5t148 62.5q66 0 102 -38.5t48 -122.5l54 151h182v-450q0 -137 -69 -198.5t-222 -61.5q-130 0 -194 41.5t-76 132.5h223q3 -24 13.5 -35t34.5 -11q56 0 56 95v136zM307 142q55 0 55 108t-55 108t-55 -108
t55 -108zM182 651q0 54 29 77.5t95 23.5q65 0 94.5 -24.5t29.5 -77.5t-29.5 -77t-95.5 -24q-64 0 -93.5 24.5t-29.5 77.5z" />
    <glyph glyph-name="Gcedilla" unicode="&#x122;" horiz-adv-x="822" 
d="M421 266v152h371v-68q0 -194 -88 -282t-283 -88q-205 0 -298 88t-93 282t93 282t298 88q164 0 249.5 -57t111.5 -183h-249q-13 64 -111 64q-60 0 -87.5 -46.5t-27.5 -147.5t27.5 -147.5t86.5 -46.5q63 0 92 26.5t29 83.5h-121zM330 -105q0 64 76 64q51 0 71.5 -24.5
t20.5 -70.5q0 -68 -37 -98t-121 -30v68q57 0 57 36q-36 0 -51.5 13t-15.5 42z" />
    <glyph glyph-name="gcedilla" unicode="&#x123;" 
d="M365 149q-23 -159 -153 -159q-98 0 -147 63t-49 197q0 135 49 197.5t148 62.5q66 0 102 -38.5t48 -122.5l54 151h182v-450q0 -137 -69 -198.5t-222 -61.5q-130 0 -194 41.5t-76 132.5h223q3 -24 13.5 -35t34.5 -11q56 0 56 95v136zM307 142q55 0 55 108t-55 108t-55 -108
t55 -108zM403 606q0 -64 -76 -64q-51 0 -71.5 24.5t-20.5 70.5q0 68 37 98t121 30v-68q-57 0 -57 -36q36 0 51.5 -13t15.5 -42z" />
    <glyph glyph-name="Itilde" unicode="&#x128;" horiz-adv-x="383" 
d="M60 700h263v-700h-263v700zM10 762q0 64 29.5 93t94.5 29q34 0 56.5 -10t35.5 -20t24 -10t17.5 7t8.5 14l1 7h87q0 -64 -29.5 -93t-94.5 -29q-34 0 -57.5 10t-37 20t-24.5 10q-8 0 -14 -7t-7 -14l-2 -7h-88z" />
    <glyph glyph-name="itilde" unicode="&#x129;" horiz-adv-x="336" 
d="M286 0h-236v500h236v-500zM0 574q0 81 29.5 117.5t94.5 36.5q34 0 57 -15.5t35 -31t19 -15.5q11 0 14.5 8.5t3.5 29.5h101q0 -81 -29.5 -117.5t-94.5 -36.5q-33 0 -55 9.5t-29.5 21.5t-14.5 21.5t-14 9.5q-16 0 -16 -38h-101z" />
    <glyph glyph-name="Imacron" unicode="&#x12a;" horiz-adv-x="383" 
d="M60 700h263v-700h-263v700zM21 750v116h340v-116h-340z" />
    <glyph glyph-name="imacron" unicode="&#x12b;" horiz-adv-x="336" 
d="M286 0h-236v500h236v-500zM-12 564v116h340v-116h-340z" />
    <glyph glyph-name="Iogonek" unicode="&#x12e;" horiz-adv-x="384" 
d="M299 0q-21 -28 -25.5 -50t18.5 -25q16 0 32 8v-163q-30 -20 -71 -20q-58 0 -92.5 41.5t-30.5 101.5t49 107h-119v700h263v-700h-24z" />
    <glyph glyph-name="iogonek" unicode="&#x12f;" horiz-adv-x="349" 
d="M259 0q-22 -28 -26.5 -49.5t18.5 -25.5q16 0 32 8v-163q-30 -20 -71 -20q-58 0 -92.5 41.5t-30.5 101.5t49 107h-82v500h236v-500h-33zM49 635q0 53 30 77.5t95 24.5t94.5 -24.5t29.5 -77.5q0 -54 -29.5 -78t-95.5 -24q-65 0 -94.5 24t-29.5 78z" />
    <glyph glyph-name="Idotaccent" unicode="&#x130;" horiz-adv-x="383" 
d="M60 700h263v-700h-263v700zM67 840q0 48 29.5 69.5t94.5 21.5t95 -21.5t30 -69.5q0 -47 -29.5 -68.5t-95.5 -21.5q-65 0 -94.5 21.5t-29.5 68.5z" />
    <glyph glyph-name="dotlessi" unicode="&#x131;" horiz-adv-x="336" 
d="M286 0h-236v500h236v-500z" />
    <glyph glyph-name="IJ" unicode="&#x132;" horiz-adv-x="997" 
d="M60 700h263v-700h-263v700zM663 -18h-1q-143 0 -208 51.5t-65 166.5v56h251v-56q0 -54 22 -54t22 54v500h263v-500q0 -115 -67.5 -166.5t-216.5 -51.5z" />
    <glyph glyph-name="ij" unicode="&#x133;" horiz-adv-x="705" 
d="M286 0h-236v500h236v-500zM382 -28q11 0 20.5 11.5t9.5 28.5v488h236v-512q0 -79 -46 -123.5t-124 -44.5h-205v152h109zM50 632q0 53 30 77.5t95 24.5t94.5 -24.5t29.5 -77.5q0 -54 -29.5 -78t-95.5 -24q-65 0 -94.5 24t-29.5 78zM530 530q-65 0 -94 24t-29 78
q0 53 29.5 77.5t94.5 24.5t94.5 -24.5t29.5 -77.5q0 -54 -29.5 -78t-95.5 -24z" />
    <glyph glyph-name="Kcedilla" unicode="&#x136;" horiz-adv-x="828" 
d="M321 700v-319l161 319h314l-184 -340l205 -360h-313l-181 341v-341h-263v700h261zM328 -105q0 64 76 64q51 0 71.5 -24.5t20.5 -70.5q0 -68 -37 -98t-121 -30v68q57 0 57 36q-36 0 -51.5 13t-15.5 42z" />
    <glyph glyph-name="kcedilla" unicode="&#x137;" horiz-adv-x="687" 
d="M285 700v-419l108 219h273l-131 -240l152 -260h-273l-128 241v-241h-236v700h235zM269 -105q0 64 76 64q51 0 71.5 -24.5t20.5 -70.5q0 -68 -37 -98t-121 -30v68q57 0 57 36q-36 0 -51.5 13t-15.5 42z" />
    <glyph glyph-name="Lacute" unicode="&#x139;" horiz-adv-x="598" 
d="M568 176v-176h-508v700h263v-524h245zM90 750l82 120h220l-122 -120h-180z" />
    <glyph glyph-name="lacute" unicode="&#x13a;" horiz-adv-x="336" 
d="M50 0v700h236v-700h-236zM70 750l78 150h234l-132 -150h-180z" />
    <glyph glyph-name="Lcedilla" unicode="&#x13b;" horiz-adv-x="598" 
d="M568 176v-176h-508v700h263v-524h245zM240 -105q0 64 76 64q51 0 71.5 -24.5t20.5 -70.5q0 -68 -37 -98t-121 -30v68q57 0 57 36q-36 0 -51.5 13t-15.5 42z" />
    <glyph glyph-name="lcedilla" unicode="&#x13c;" horiz-adv-x="301" 
d="M50 0v700h236v-700h-236zM90 -105q0 64 76 64q51 0 71.5 -24.5t20.5 -70.5q0 -68 -37 -98t-121 -30v68q57 0 57 36q-36 0 -51.5 13t-15.5 42z" />
    <glyph glyph-name="Lcaron" unicode="&#x13d;" horiz-adv-x="598" 
d="M568 176v-176h-508v700h263v-524h245zM362 646q0 64 76 64q51 0 71.5 -24.5t20.5 -70.5q0 -68 -37 -98t-121 -30v68q57 0 57 36q-36 0 -51.5 13t-15.5 42z" />
    <glyph glyph-name="lcaron" unicode="&#x13e;" horiz-adv-x="514" 
d="M50 0v700h236v-700h-236zM325 646q0 64 76 64q51 0 71.5 -24.5t20.5 -70.5q0 -68 -37 -98t-121 -30v68q57 0 57 36q-36 0 -51.5 13t-15.5 42z" />
    <glyph glyph-name="Lslash" unicode="&#x141;" horiz-adv-x="655" 
d="M623 176v-176h-508v299l-86 -49v151l87 49v250h263v-100l128 73v-151l-128 -73v-273h244z" />
    <glyph glyph-name="lslash" unicode="&#x142;" horiz-adv-x="449" 
d="M20 229l-1 -1v151l87 47v273h236v-143l87 47v-151l-86 -47v-405h-236v276z" />
    <glyph glyph-name="Nacute" unicode="&#x143;" horiz-adv-x="884" 
d="M574 700h250v-700h-418l-96 644v-644h-250v700h417l97 -644v644zM340 750l82 120h220l-122 -120h-180z" />
    <glyph glyph-name="nacute" unicode="&#x144;" horiz-adv-x="632" 
d="M232 500l54 -129q11 72 43.5 105.5t88.5 33.5q91 0 132.5 -57t41.5 -183v-270h-235v258q0 55 -8 77.5t-31 22.5q-32 0 -32 -88v-270h-236v500h182zM201 550l78 150h234l-132 -150h-180z" />
    <glyph glyph-name="Ncedilla" unicode="&#x145;" horiz-adv-x="884" 
d="M574 700h250v-700h-418l-96 644v-644h-250v700h417l97 -644v644zM380 -105q0 64 76 64q51 0 71.5 -24.5t20.5 -70.5q0 -68 -37 -98t-121 -30v68q57 0 57 36q-36 0 -51.5 13t-15.5 42z" />
    <glyph glyph-name="ncedilla" unicode="&#x146;" horiz-adv-x="632" 
d="M232 500l54 -129q11 72 43.5 105.5t88.5 33.5q91 0 132.5 -57t41.5 -183v-270h-235v258q0 55 -8 77.5t-31 22.5q-32 0 -32 -88v-270h-236v500h182zM240 -105q0 64 76 64q51 0 71.5 -24.5t20.5 -70.5q0 -68 -37 -98t-121 -30v68q57 0 57 36q-36 0 -51.5 13t-15.5 42z" />
    <glyph glyph-name="Ncaron" unicode="&#x147;" horiz-adv-x="884" 
d="M574 700h250v-700h-418l-96 644v-644h-250v700h417l97 -644v644zM631 900l-19 -150h-344l-19 150h140l51 -142l51 142h140z" />
    <glyph glyph-name="ncaron" unicode="&#x148;" horiz-adv-x="632" 
d="M232 500l54 -129q11 72 43.5 105.5t88.5 33.5q91 0 132.5 -57t41.5 -183v-270h-235v258q0 55 -8 77.5t-31 22.5q-32 0 -32 -88v-270h-236v500h182zM491 700l-19 -150h-344l-19 150h140l51 -142l51 142h140z" />
    <glyph glyph-name="Omacron" unicode="&#x14c;" horiz-adv-x="842" 
d="M421 720q205 0 298 -88t93 -282t-93 -282t-298 -88t-298 88t-93 282t93 282t298 88zM421 544q-59 0 -86.5 -46.5t-27.5 -147.5t27.5 -147.5t86.5 -46.5t86.5 46.5t27.5 147.5t-27.5 147.5t-86.5 46.5zM250 764v116h340v-116h-340z" />
    <glyph glyph-name="omacron" unicode="&#x14d;" horiz-adv-x="642" 
d="M321 510q158 0 229.5 -61.5t71.5 -198.5t-71.5 -198.5t-229.5 -61.5t-229.5 61.5t-71.5 198.5t71.5 198.5t229.5 61.5zM256 250q0 -56 15.5 -82t49.5 -26t49.5 26t15.5 82t-15.5 82t-49.5 26q-65 0 -65 -108zM150 564v116h340v-116h-340z" />
    <glyph glyph-name="Obreve" unicode="&#x14e;" horiz-adv-x="842" 
d="M421 720q205 0 298 -88t93 -282t-93 -282t-298 -88t-298 88t-93 282t93 282t298 88zM421 544q-59 0 -86.5 -46.5t-27.5 -147.5t27.5 -147.5t86.5 -46.5t86.5 46.5t27.5 147.5t-27.5 147.5t-86.5 46.5zM598 870q0 -63 -42 -91.5t-135 -28.5t-135 28.5t-42 91.5h149
q0 -28 28 -28q29 0 29 28h148z" />
    <glyph glyph-name="obreve" unicode="&#x14f;" horiz-adv-x="642" 
d="M321 510q158 0 229.5 -61.5t71.5 -198.5t-71.5 -198.5t-229.5 -61.5t-229.5 61.5t-71.5 198.5t71.5 198.5t229.5 61.5zM256 250q0 -56 15.5 -82t49.5 -26t49.5 26t15.5 82t-15.5 82t-49.5 26q-65 0 -65 -108zM497 700q0 -79 -42 -114.5t-135 -35.5t-135 35.5t-42 114.5
h145q0 -46 32 -46t32 46h145z" />
    <glyph glyph-name="Ohungarumlaut" unicode="&#x150;" horiz-adv-x="842" 
d="M421 720q205 0 298 -88t93 -282t-93 -282t-298 -88t-298 88t-93 282t93 282t298 88zM421 544q-59 0 -86.5 -46.5t-27.5 -147.5t27.5 -147.5t86.5 -46.5t86.5 46.5t27.5 147.5t-27.5 147.5t-86.5 46.5zM200 750l68 150h221l-122 -150h-167zM468 750l67 150h221l-121 -150
h-167z" />
    <glyph glyph-name="ohungarumlaut" unicode="&#x151;" horiz-adv-x="642" 
d="M321 510q158 0 229.5 -61.5t71.5 -198.5t-71.5 -198.5t-229.5 -61.5t-229.5 61.5t-71.5 198.5t71.5 198.5t229.5 61.5zM256 250q0 -56 15.5 -82t49.5 -26t49.5 26t15.5 82t-15.5 82t-49.5 26q-65 0 -65 -108zM100 550l68 150h221l-122 -150h-167zM368 550l67 150h221
l-121 -150h-167z" />
    <glyph glyph-name="OE" unicode="&#x152;" horiz-adv-x="1087" 
d="M1056 700v-166h-259v-96h218v-164h-218v-112h258v-164h-494v227q-15 -129 -73 -187.5t-175 -58.5q-145 0 -214.5 89t-69.5 281t69.5 281t214.5 89q117 0 175 -58t74 -188v227h494zM419 542q-59 0 -86.5 -46.5t-27.5 -147.5t27.5 -147.5t86.5 -46.5t86.5 46t27.5 148
q0 101 -27.5 147.5t-86.5 46.5z" />
    <glyph glyph-name="oe" unicode="&#x153;" horiz-adv-x="961" 
d="M941 198h-1h-350q4 -80 59 -80q46 0 49 46h223q-14 -91 -72 -132.5t-171 -41.5q-90 0 -137 46.5t-57 147.5q-11 -102 -64.5 -148t-160.5 -46q-123 0 -180.5 62t-57.5 198t57.5 198t180.5 62q107 0 160.5 -46t64.5 -148q10 101 57 147.5t136 46.5q139 0 201.5 -61
t62.5 -195v-56zM255 250q0 -56 15.5 -82t49.5 -26t49.5 26t15.5 82t-15.5 82t-49.5 26q-65 0 -65 -108zM704 314q0 36 -13 52t-42 16q-27 0 -41 -16t-18 -52h114z" />
    <glyph glyph-name="Racute" unicode="&#x154;" horiz-adv-x="769" 
d="M361 244h-39v-244h-263v700h348q78 0 137.5 -20t94.5 -54t52 -74.5t17 -85.5q0 -80 -47 -136t-145 -76h102l120 -254h-275zM322 396h72q22 0 36.5 22t14.5 48t-15 48t-37 22h-71v-140zM268 750l82 120h220l-122 -120h-180z" />
    <glyph glyph-name="racute" unicode="&#x155;" horiz-adv-x="476" 
d="M286 250v-250h-236v500h182l50 -102q26 112 117 112h67v-176h-94q-51 0 -68.5 -15.5t-17.5 -68.5zM131 550l78 150h234l-132 -150h-180z" />
    <glyph glyph-name="Rcedilla" unicode="&#x156;" horiz-adv-x="769" 
d="M361 244h-39v-244h-263v700h348q78 0 137.5 -20t94.5 -54t52 -74.5t17 -85.5q0 -80 -47 -136t-145 -76h102l120 -254h-275zM322 396h72q22 0 36.5 22t14.5 48t-15 48t-37 22h-71v-140zM300 -105q0 64 76 64q51 0 71.5 -24.5t20.5 -70.5q0 -68 -37 -98t-121 -30v68
q57 0 57 36q-36 0 -51.5 13t-15.5 42z" />
    <glyph glyph-name="rcedilla" unicode="&#x157;" horiz-adv-x="476" 
d="M286 250v-250h-236v500h182l50 -102q26 112 117 112h67v-176h-94q-51 0 -68.5 -15.5t-17.5 -68.5zM80 -105q0 64 76 64q51 0 71.5 -24.5t20.5 -70.5q0 -68 -37 -98t-121 -30v68q57 0 57 36q-36 0 -51.5 13t-15.5 42z" />
    <glyph glyph-name="Rcaron" unicode="&#x158;" horiz-adv-x="769" 
d="M361 244h-39v-244h-263v700h348q78 0 137.5 -20t94.5 -54t52 -74.5t17 -85.5q0 -80 -47 -136t-145 -76h102l120 -254h-275zM322 396h72q22 0 36.5 22t14.5 48t-15 48t-37 22h-71v-140zM541 900l-19 -150h-344l-19 150h140l51 -142l51 142h140z" />
    <glyph glyph-name="rcaron" unicode="&#x159;" horiz-adv-x="481" 
d="M286 250v-250h-236v500h182l50 -102q26 112 117 112h67v-176h-94q-51 0 -68.5 -15.5t-17.5 -68.5zM451 700l-19 -150h-344l-19 150h140l51 -142l51 142h140z" />
    <glyph glyph-name="Sacute" unicode="&#x15a;" horiz-adv-x="702" 
d="M289 520q0 -23 39.5 -38t95.5 -29t112.5 -36.5t96 -73.5t39.5 -127q0 -124 -76 -180t-245 -56t-245 52t-76 168h236q0 -68 85 -68q72 0 72 48q0 28 -28.5 47t-70.5 29.5t-92 27t-92 37t-70.5 62.5t-28.5 101q0 124 74 180t237 56t237 -52t74 -168h-236q0 68 -76 68
q-62 0 -62 -48zM248 749l82 120h220l-122 -120h-180z" />
    <glyph glyph-name="sacute" unicode="&#x15b;" horiz-adv-x="552" 
d="M270 394q-29 0 -29 -19q0 -18 30 -28t72.5 -18.5t85 -23.5t72.5 -53t30 -97q0 -85 -64.5 -125t-204.5 -40q-126 0 -183 38t-57 122h223q0 -44 25 -44t25 26q0 20 -20.5 32.5t-51 17t-66.5 14.5t-66.5 24.5t-51 48t-20.5 82.5q0 82 60 120.5t191 38.5q124 0 180.5 -35.5
t56.5 -114.5h-209q0 34 -28 34zM169 550l78 150h234l-132 -150h-180z" />
    <glyph glyph-name="Scircumflex" unicode="&#x15c;" horiz-adv-x="702" 
d="M289 520q0 -23 39.5 -38t95.5 -29t112.5 -36.5t96 -73.5t39.5 -127q0 -124 -76 -180t-245 -56t-245 52t-76 168h236q0 -68 85 -68q72 0 72 48q0 28 -28.5 47t-70.5 29.5t-92 27t-92 37t-70.5 62.5t-28.5 101q0 124 74 180t237 56t237 -52t74 -168h-236q0 68 -76 68
q-62 0 -62 -48zM522 869h1l16 -120h-153l-35 112l-35 -112h-153l15 120h344z" />
    <glyph glyph-name="scircumflex" unicode="&#x15d;" horiz-adv-x="552" 
d="M270 394q-29 0 -29 -19q0 -18 30 -28t72.5 -18.5t85 -23.5t72.5 -53t30 -97q0 -85 -64.5 -125t-204.5 -40q-126 0 -183 38t-57 122h223q0 -44 25 -44t25 26q0 20 -20.5 32.5t-51 17t-66.5 14.5t-66.5 24.5t-51 48t-20.5 82.5q0 82 60 120.5t191 38.5q124 0 180.5 -35.5
t56.5 -114.5h-209q0 34 -28 34zM440 700l19 -150h-140l-51 142l-51 -142h-140l19 150h344z" />
    <glyph glyph-name="Scedilla" unicode="&#x15e;" horiz-adv-x="702" 
d="M250 -118l27 101q-129 10 -188 62.5t-59 154.5h236q0 -68 85 -68q72 0 72 48q0 28 -28.5 47t-70.5 29.5t-92 27t-92 37t-70.5 62.5t-28.5 101q0 124 74 180t237 56t237 -52t74 -168h-236q0 68 -76 68q-62 0 -62 -48q0 -23 39.5 -38t95.5 -29t112.5 -36.5t96 -73.5
t39.5 -127q0 -116 -66 -172t-211 -63l-7 -31q7 -2 16.5 -6t26.5 -13.5t28 -27.5t11 -41q0 -53 -59 -82.5t-158 -29.5v80q49 0 49 28q0 24 -52 24z" />
    <glyph glyph-name="scedilla" unicode="&#x15f;" horiz-adv-x="552" 
d="M270 394q-29 0 -29 -19q0 -18 30 -28t72.5 -18.5t85 -23.5t72.5 -53t30 -97q0 -74 -49 -114t-155 -48l-8 -42q7 -2 16.5 -6t26.5 -13.5t28 -27.5t11 -41q0 -53 -59 -82.5t-158 -29.5v80q49 0 49 28q0 24 -52 24h-3l28 110q-96 7 -140 45t-44 112h223q0 -44 25 -44t25 26
q0 20 -20.5 32.5t-51 17t-66.5 14.5t-66.5 24.5t-51 48t-20.5 82.5q0 82 60 120.5t191 38.5q124 0 180.5 -35.5t56.5 -114.5h-209q0 34 -28 34z" />
    <glyph glyph-name="Scaron" unicode="&#x160;" horiz-adv-x="702" 
d="M289 520q0 -23 39.5 -38t95.5 -29t112.5 -36.5t96 -73.5t39.5 -127q0 -124 -76 -180t-245 -56t-245 52t-76 168h236q0 -68 85 -68q72 0 72 48q0 28 -28.5 47t-70.5 29.5t-92 27t-92 37t-70.5 62.5t-28.5 101q0 124 74 180t237 56t237 -52t74 -168h-236q0 68 -76 68
q-62 0 -62 -48zM541 899l-19 -150h-344l-19 150h140l51 -142l51 142h140z" />
    <glyph glyph-name="scaron" unicode="&#x161;" horiz-adv-x="552" 
d="M270 394q-29 0 -29 -19q0 -18 30 -28t72.5 -18.5t85 -23.5t72.5 -53t30 -97q0 -85 -64.5 -125t-204.5 -40q-126 0 -183 38t-57 122h223q0 -44 25 -44t25 26q0 20 -20.5 32.5t-51 17t-66.5 14.5t-66.5 24.5t-51 48t-20.5 82.5q0 82 60 120.5t191 38.5q124 0 180.5 -35.5
t56.5 -114.5h-209q0 34 -28 34zM460 700l-19 -150h-344l-19 150h140l51 -142l51 142h140z" />
    <glyph glyph-name="Tcedilla" unicode="&#x162;" horiz-adv-x="656" 
d="M273 0h-57v541h-196v159h616v-159h-196v-541h-65l-11 -50q10 -2 24.5 -7.5t38.5 -28.5t24 -54q0 -51 -57.5 -80.5t-155.5 -29.5v73q68 0 68 37q0 27 -63 27z" />
    <glyph glyph-name="tcedilla" unicode="&#x163;" horiz-adv-x="469" 
d="M215 5v1q-54 13 -84.5 53.5t-30.5 103.5v221h-80v116h80v131h202v-131h137v-116h-137v-200q0 -21 12 -33.5t30 -12.5h95v-138h-123l-11 -50q10 -2 24.5 -7.5t38.5 -28.5t24 -54q0 -51 -57.5 -80.5t-154.5 -29.5v73q68 0 68 37q0 27 -64 27z" />
    <glyph glyph-name="Tcaron" unicode="&#x164;" horiz-adv-x="682" 
d="M661 700v-188h-189v-512h-263v512h-189v188h641zM530 900l-19 -150h-344l-19 150h140l51 -142l51 142h140z" />
    <glyph glyph-name="tcaron" unicode="&#x165;" horiz-adv-x="538" 
d="M336 192q0 -21 9 -30.5t31 -9.5h92v-152h-198q-78 0 -124 44.5t-46 123.5v204h-80v128h80v134h236v-134h133v-128h-133v-180zM349 688q0 64 76 64q51 0 71.5 -24.5t20.5 -70.5q0 -68 -37 -98t-121 -30v68q57 0 57 36q-36 0 -51.5 13t-15.5 42z" />
    <glyph glyph-name="Utilde" unicode="&#x168;" horiz-adv-x="762" 
d="M50 262v438h263v-438q0 -55 16.5 -80.5t51.5 -25.5t51.5 25.5t16.5 80.5v438h263v-438q0 -148 -78.5 -215t-252.5 -67t-252.5 67t-78.5 215zM204 762q0 64 29.5 93t94.5 29q34 0 56.5 -10t35.5 -20t24 -10t17.5 7t8.5 14l1 7h87q0 -64 -29.5 -93t-94.5 -29
q-34 0 -57.5 10t-37 20t-24.5 10q-8 0 -14 -7t-7 -14l-2 -7h-88z" />
    <glyph glyph-name="utilde" unicode="&#x169;" horiz-adv-x="632" 
d="M582 0h-183l-54 129q-11 -72 -43.5 -105.5t-88.5 -33.5q-91 0 -132.5 57t-41.5 183v270h236v-258q0 -55 8 -77.5t31 -22.5q32 0 32 88v270h236v-500zM131 574q0 81 29.5 117.5t94.5 36.5q34 0 57 -15.5t35 -31t19 -15.5q11 0 14.5 8.5t3.5 29.5h101q0 -81 -29.5 -117.5
t-94.5 -36.5q-33 0 -55 9.5t-29.5 21.5t-14.5 21.5t-14 9.5q-16 0 -16 -38h-101z" />
    <glyph glyph-name="Umacron" unicode="&#x16a;" horiz-adv-x="762" 
d="M50 262v438h263v-438q0 -55 16.5 -80.5t51.5 -25.5t51.5 25.5t16.5 80.5v438h263v-438q0 -148 -78.5 -215t-252.5 -67t-252.5 67t-78.5 215zM210 764v116h340v-116h-340z" />
    <glyph glyph-name="umacron" unicode="&#x16b;" horiz-adv-x="632" 
d="M582 0h-183l-54 129q-11 -72 -43.5 -105.5t-88.5 -33.5q-91 0 -132.5 57t-41.5 183v270h236v-258q0 -55 8 -77.5t31 -22.5q32 0 32 88v270h236v-500zM139 564v116h340v-116h-340z" />
    <glyph glyph-name="Ubreve" unicode="&#x16c;" horiz-adv-x="762" 
d="M50 262v438h263v-438q0 -55 16.5 -80.5t51.5 -25.5t51.5 25.5t16.5 80.5v438h263v-438q0 -148 -78.5 -215t-252.5 -67t-252.5 67t-78.5 215zM558 870q0 -63 -42 -91.5t-135 -28.5t-135 28.5t-42 91.5h149q0 -28 28 -28q29 0 29 28h148z" />
    <glyph glyph-name="ubreve" unicode="&#x16d;" horiz-adv-x="632" 
d="M582 0h-183l-54 129q-11 -72 -43.5 -105.5t-88.5 -33.5q-91 0 -132.5 57t-41.5 183v270h236v-258q0 -55 8 -77.5t31 -22.5q32 0 32 88v270h236v-500zM486 700q0 -79 -42 -114.5t-135 -35.5t-135 35.5t-42 114.5h145q0 -46 32 -46t32 46h145z" />
    <glyph glyph-name="Uring" unicode="&#x16e;" horiz-adv-x="762" 
d="M50 262v438h263v-438q0 -55 16.5 -80.5t51.5 -25.5t51.5 25.5t16.5 80.5v438h263v-438q0 -148 -78.5 -215t-252.5 -67t-252.5 67t-78.5 215zM380 978q74 0 107 -27t33 -87t-33 -87t-107 -27t-107 27t-33 87t33 87t107 27zM380 830q26 0 26 34t-26 34t-26 -34t26 -34z" />
    <glyph glyph-name="uring" unicode="&#x16f;" horiz-adv-x="632" 
d="M582 0h-183l-54 129q-11 -72 -43.5 -105.5t-88.5 -33.5q-91 0 -132.5 57t-41.5 183v270h236v-258q0 -55 8 -77.5t31 -22.5q32 0 32 88v270h236v-500zM309 778q74 0 107 -27t33 -87t-33 -87t-107 -27t-107 27t-33 87t33 87t107 27zM309 630q26 0 26 34t-26 34t-26 -34
t26 -34z" />
    <glyph glyph-name="Uhungarumlaut" unicode="&#x170;" horiz-adv-x="762" 
d="M50 262v438h263v-438q0 -55 16.5 -80.5t51.5 -25.5t51.5 25.5t16.5 80.5v438h263v-438q0 -148 -78.5 -215t-252.5 -67t-252.5 67t-78.5 215zM160 750l68 150h221l-122 -150h-167zM428 750l67 150h221l-121 -150h-167z" />
    <glyph glyph-name="uhungarumlaut" unicode="&#x171;" horiz-adv-x="632" 
d="M582 0h-183l-54 129q-11 -72 -43.5 -105.5t-88.5 -33.5q-91 0 -132.5 57t-41.5 183v270h236v-258q0 -55 8 -77.5t31 -22.5q32 0 32 88v270h236v-500zM89 550l68 150h221l-122 -150h-167zM357 550l67 150h221l-121 -150h-167z" />
    <glyph glyph-name="Uogonek" unicode="&#x172;" horiz-adv-x="762" 
d="M562 -74q15 0 31 8v-163q-30 -20 -71 -20q-54 0 -88.5 38.5t-34 89.5t33.5 103q-34 -2 -52 -2q-174 0 -252.5 67t-78.5 215v438h263v-438q0 -55 16.5 -80.5t51.5 -25.5t51.5 25.5t16.5 80.5v438h263v-438q0 -189 -132 -248q-38 -42 -37 -71q0 -17 19 -17z" />
    <glyph glyph-name="uogonek" unicode="&#x173;" horiz-adv-x="632" 
d="M582 0h-66q-21 -28 -25 -50t19 -25q16 0 32 8v-163q-30 -20 -71 -20q-58 0 -92.5 42t-30 102t49.5 107l-53 128q-11 -72 -43.5 -105.5t-88.5 -33.5q-91 0 -132.5 57t-41.5 183v270h236v-258q0 -55 8 -77.5t31 -22.5q32 0 32 88v270h236v-500z" />
    <glyph glyph-name="Wcircumflex" unicode="&#x174;" horiz-adv-x="1131" 
d="M363 700h405l50 -625l40 625h263l-85 -700h-414l-63 631l-50 -631h-413l-86 700h263l40 -620zM732 870h1l16 -120h-153l-35 112l-35 -112h-153l15 120h344z" />
    <glyph glyph-name="wcircumflex" unicode="&#x175;" horiz-adv-x="981" 
d="M890 0h-347l-51 441l-40 -441h-360l-82 500h236l37 -433l39 433h338l39 -432l36 432h236zM662 700l19 -150h-140l-51 142l-51 -142h-140l19 150h344z" />
    <glyph glyph-name="Ycircumflex" unicode="&#x176;" horiz-adv-x="743" 
d="M624 300h-1h-121v-300h-249v300h-121l-132 400h289l89 -384l89 384h275zM550 870h1l16 -120h-153l-35 112l-35 -112h-153l15 120h344z" />
    <glyph glyph-name="ycircumflex" unicode="&#x177;" horiz-adv-x="555" 
d="M211 -52q59 0 63 52h-178l-96 500h235l48 -401l36 401h236l-85 -511q-14 -89 -62.5 -129t-140.5 -40h-176v128h120zM452 700l19 -150h-140l-51 142l-51 -142h-140l19 150h344z" />
    <glyph glyph-name="Ydieresis" unicode="&#x178;" horiz-adv-x="743" 
d="M624 300h-1h-121v-300h-249v300h-121l-132 400h289l89 -384l89 384h275zM224 930q65 0 95 -21.5t30 -69.5q0 -47 -29.5 -68.5t-95.5 -21.5q-65 0 -94.5 21.5t-29.5 68.5q0 48 29.5 69.5t94.5 21.5zM533 930q65 0 95 -21.5t30 -69.5q0 -47 -29.5 -68.5t-95.5 -21.5
q-65 0 -94.5 21.5t-29.5 68.5q0 48 29.5 69.5t94.5 21.5z" />
    <glyph glyph-name="Zacute" unicode="&#x179;" horiz-adv-x="668" 
d="M628 370l-455 -206h465v-164h-608v330l456 206h-446v164h588v-330zM228 750l82 120h220l-122 -120h-180z" />
    <glyph glyph-name="zacute" unicode="&#x17a;" horiz-adv-x="548" 
d="M172 140h346v-140h-488v282l336 78h-326v140h468v-282zM181 550l78 150h234l-132 -150h-180z" />
    <glyph glyph-name="Zdotaccent" unicode="&#x17b;" horiz-adv-x="668" 
d="M628 370l-455 -206h465v-164h-608v330l456 206h-446v164h588v-330zM205 840q0 48 29.5 69.5t94.5 21.5t95 -21.5t30 -69.5q0 -47 -29.5 -68.5t-95.5 -21.5q-65 0 -94.5 21.5t-29.5 68.5z" />
    <glyph glyph-name="zdotaccent" unicode="&#x17c;" horiz-adv-x="548" 
d="M172 140h346v-140h-488v282l336 78h-326v140h468v-282zM156 651q0 54 29 77.5t95 23.5q65 0 94.5 -24.5t29.5 -77.5t-29.5 -77t-95.5 -24q-64 0 -93.5 24.5t-29.5 77.5z" />
    <glyph glyph-name="Zcaron" unicode="&#x17d;" horiz-adv-x="668" 
d="M628 370l-455 -206h465v-164h-608v330l456 206h-446v164h588v-330zM521 900l-19 -150h-344l-19 150h140l51 -142l51 142h140z" />
    <glyph glyph-name="zcaron" unicode="&#x17e;" horiz-adv-x="548" 
d="M172 140h346v-140h-488v282l336 78h-326v140h468v-282zM471 700l-19 -150h-344l-19 150h140l51 -142l51 142h140z" />
    <glyph glyph-name="Aacutering" unicode="&#x1fa;" horiz-adv-x="789" 
d="M769 0h-277l-18 116h-171l-21 -116h-263l137 700h503zM393 621l-63 -353h119zM392 960v-1h138l-56 -55q61 -21 61 -80q0 -48 -33.5 -70t-106.5 -22q-74 0 -107.5 22t-33.5 70q0 43 26.5 64.5t85.5 26.5zM393 800q39 0 39 24t-39 24t-39 -24t39 -24z" />
    <glyph glyph-name="aacutering" unicode="&#x1fb;" horiz-adv-x="602" 
d="M380 0l-54 119q-11 -69 -44.5 -99t-102.5 -30q-160 0 -160 153q0 96 62.5 137.5t201.5 41.5h42v18q0 54 -32 54q-31 0 -31 -44h-222q0 84 60.5 122t191.5 38q143 0 206.5 -46t63.5 -148v-316h-182zM297 207q-42 0 -42 -42q0 -35 31 -35q39 0 39 53v24h-28zM527 781
l-107 -82q28 -26 28 -64q0 -53 -33.5 -77.5t-107.5 -24.5t-107 24.5t-33 77.5t33.5 77.5t107.5 24.5h12l42 44h165zM308 613q26 0 26 22t-26 22t-26 -22t26 -22z" />
    <glyph glyph-name="AEacute" unicode="&#x1fc;" horiz-adv-x="1029" 
d="M999 536h-262v-96h222v-164h-222v-112h262v-164h-498v116h-178l-41 -116h-262l241 700h738v-164zM501 620l-124 -352h124v352zM410 750l78 150h234l-132 -150h-180z" />
    <glyph glyph-name="aeacute" unicode="&#x1fd;" horiz-adv-x="928" 
d="M908 254v-58h-352q0 -80 55 -80q44 0 50 46h223q-14 -91 -67 -131.5t-152 -40.5q-100 0 -151 42t-65 136q-9 -93 -67.5 -135.5t-169.5 -42.5q-102 0 -148.5 36t-46.5 114q0 57 22.5 95t64.5 55t81.5 23t92.5 6h46v16q0 46 -43 46q-40 0 -40 -48h-202q0 91 52 134t160 43
q104 0 150.5 -40t51.5 -130q15 89 67 129.5t151 40.5q122 0 179.5 -61.5t57.5 -194.5zM322 204h-15q-55 0 -55 -40q0 -20 5.5 -28t21.5 -8q43 0 43 76zM667 312q0 68 -55 68q-28 0 -40.5 -16t-12.5 -52h108zM335 550l78 150h234l-132 -150h-180z" />
    <glyph glyph-name="Oslashacute" unicode="&#x1fe;" horiz-adv-x="842" 
d="M812 350h-1q0 -194 -93 -282t-298 -88q-22 0 -60 2l-22 -62h-155l32 91q-95 37 -140 119.5t-45 219.5q0 194 93 282t298 88q28 0 41 -1l21 61h155l-30 -85q105 -34 154.5 -118.5t49.5 -226.5zM423 156q59 0 87 46.5t28 147.5q0 102 -27 148t-87 46q-30 0 -52.5 -13
t-34 -31.5t-18.5 -47t-8.5 -51t-1.5 -51.5q0 -102 27 -148t87 -46zM243 750l78 150h234l-132 -150h-180z" />
    <glyph glyph-name="oslashacute" unicode="&#x1ff;" horiz-adv-x="642" 
d="M284 -9l-21 -60h-100l26 74q-86 22 -126 82t-40 163q0 137 71.5 198.5t229.5 61.5q26 0 38 -1l21 61h101l-26 -75q86 -22 126 -82t40 -163q0 -137 -71.5 -198.5t-229.5 -61.5q-26 0 -39 1zM324 359q-66 0 -66 -111q0 -106 65 -106t65 108q0 109 -64 109zM162 550l78 150
h234l-132 -150h-180z" />
    <glyph glyph-name="Scommaaccent" unicode="&#x218;" horiz-adv-x="702" 
d="M289 520q0 -23 39.5 -38t95.5 -29t112.5 -36.5t96 -73.5t39.5 -127q0 -124 -76 -180t-245 -56t-245 52t-76 168h236q0 -68 85 -68q72 0 72 48q0 28 -28.5 47t-70.5 29.5t-92 27t-92 37t-70.5 62.5t-28.5 101q0 124 74 180t237 56t237 -52t74 -168h-236q0 68 -76 68
q-62 0 -62 -48zM259 -106q0 64 76 64q51 0 71.5 -24.5t20.5 -70.5q0 -68 -37 -98t-121 -30v68q57 0 57 36q-36 0 -51.5 13t-15.5 42z" />
    <glyph glyph-name="scommaaccent" unicode="&#x219;" horiz-adv-x="552" 
d="M270 394q-29 0 -29 -19q0 -18 30 -28t72.5 -18.5t85 -23.5t72.5 -53t30 -97q0 -85 -64.5 -125t-204.5 -40q-126 0 -183 38t-57 122h223q0 -44 25 -44t25 26q0 20 -20.5 32.5t-51 17t-66.5 14.5t-66.5 24.5t-51 48t-20.5 82.5q0 82 60 120.5t191 38.5q124 0 180.5 -35.5
t56.5 -114.5h-209q0 34 -28 34zM188 -104q0 64 76 64q51 0 71.5 -24.5t20.5 -70.5q0 -68 -37 -98t-121 -30v68q57 0 57 36q-36 0 -51.5 13t-15.5 42z" />
    <glyph glyph-name="uni021A" unicode="&#x21a;" horiz-adv-x="682" 
d="M661 700v-188h-189v-512h-263v512h-189v188h641zM259 -105q0 64 76 64q51 0 71.5 -24.5t20.5 -70.5q0 -68 -37 -98t-121 -30v68q57 0 57 36q-36 0 -51.5 13t-15.5 42z" />
    <glyph glyph-name="uni021B" unicode="&#x21b;" horiz-adv-x="499" 
d="M336 192q0 -21 9 -30.5t31 -9.5h92v-152h-198q-78 0 -124 44.5t-46 123.5v204h-80v128h80v134h236v-134h133v-128h-133v-180zM199 -105q0 64 76 64q51 0 71.5 -24.5t20.5 -70.5q0 -68 -37 -98t-121 -30v68q57 0 57 36q-36 0 -51.5 13t-15.5 42z" />
    <glyph glyph-name="circumflex" unicode="&#x2c6;" horiz-adv-x="422" 
d="M382 700l19 -150h-140l-51 142l-51 -142h-140l19 150h344z" />
    <glyph glyph-name="caron" unicode="&#x2c7;" horiz-adv-x="422" 
d="M402 700l-19 -150h-344l-19 150h140l51 -142l51 142h140z" />
    <glyph glyph-name="breve" unicode="&#x2d8;" horiz-adv-x="394" 
d="M374 700q0 -79 -42 -114.5t-135 -35.5t-135 35.5t-42 114.5h145q0 -46 32 -46t32 46h145z" />
    <glyph glyph-name="dotaccent" unicode="&#x2d9;" horiz-adv-x="289" 
d="M145 736q65 0 94.5 -25t29.5 -79q0 -53 -29.5 -77t-95.5 -24q-64 0 -93.5 24.5t-29.5 77.5q0 54 29.5 78.5t94.5 24.5z" />
    <glyph glyph-name="ring" unicode="&#x2da;" horiz-adv-x="321" 
d="M160 734q74 0 107 -27t33 -87t-33 -87t-107 -27t-107 27t-33 87t33 87t107 27zM160 586q26 0 26 34t-26 34t-26 -34t26 -34z" />
    <glyph glyph-name="ogonek" unicode="&#x2db;" horiz-adv-x="234" 
d="M211 24q-36 -33 -47 -69q-9 -30 17 -30q16 0 32 8v-163q-30 -20 -71 -20q-63 0 -97.5 48.5t-22 114.5t73.5 111h115z" />
    <glyph glyph-name="tilde" unicode="&#x2dc;" horiz-adv-x="394" 
d="M20 574q0 81 29.5 117.5t94.5 36.5q34 0 57 -15.5t35 -31t19 -15.5q11 0 14.5 8.5t3.5 29.5h101q0 -81 -29.5 -117.5t-94.5 -36.5q-33 0 -55 9.5t-29.5 21.5t-14.5 21.5t-14 9.5q-16 0 -16 -38h-101z" />
    <glyph glyph-name="hungarumlaut" unicode="&#x2dd;" horiz-adv-x="597" 
d="M20 550l68 150h221l-122 -150h-167zM288 550l67 150h221l-121 -150h-167z" />
    <glyph glyph-name="Wgrave" unicode="&#x1e80;" horiz-adv-x="1131" 
d="M363 700h405l50 -625l40 625h263l-85 -700h-414l-63 631l-50 -631h-413l-86 700h263l40 -620zM580 870l95 -120h-166l-136 120h207z" />
    <glyph glyph-name="wgrave" unicode="&#x1e81;" horiz-adv-x="981" 
d="M890 0h-347l-51 441l-40 -441h-360l-82 500h236l37 -433l39 433h338l39 -432l36 432h236zM508 700l78 -150h-180l-132 150h234z" />
    <glyph glyph-name="Wacute" unicode="&#x1e82;" horiz-adv-x="1131" 
d="M363 700h405l50 -625l40 625h263l-85 -700h-414l-63 631l-50 -631h-413l-86 700h263l40 -620zM458 750l82 120h220l-122 -120h-180z" />
    <glyph glyph-name="wacute" unicode="&#x1e83;" horiz-adv-x="981" 
d="M890 0h-347l-51 441l-40 -441h-360l-82 500h236l37 -433l39 433h338l39 -432l36 432h236zM391 550l78 150h234l-132 -150h-180z" />
    <glyph glyph-name="Wdieresis" unicode="&#x1e84;" horiz-adv-x="1131" 
d="M363 700h405l50 -625l40 625h263l-85 -700h-414l-63 631l-50 -631h-413l-86 700h263l40 -620zM411 930q65 0 95 -21.5t30 -69.5q0 -47 -29.5 -68.5t-95.5 -21.5q-65 0 -94.5 21.5t-29.5 68.5q0 48 29.5 69.5t94.5 21.5zM720 930q65 0 95 -21.5t30 -69.5
q0 -47 -29.5 -68.5t-95.5 -21.5q-65 0 -94.5 21.5t-29.5 68.5q0 48 29.5 69.5t94.5 21.5z" />
    <glyph glyph-name="wdieresis" unicode="&#x1e85;" horiz-adv-x="981" 
d="M890 0h-347l-51 441l-40 -441h-360l-82 500h236l37 -433l39 433h338l39 -432l36 432h236zM225 651q0 57 29.5 82t95.5 25q65 0 94.5 -25.5t29.5 -82.5q0 -56 -29.5 -81.5t-95.5 -25.5q-65 0 -94.5 25.5t-29.5 82.5zM508 649q0 57 29.5 82t95.5 25q65 0 94.5 -25.5
t29.5 -82.5q0 -56 -29.5 -81.5t-95.5 -25.5q-65 0 -94.5 25.5t-29.5 82.5z" />
    <glyph glyph-name="uni1E9E" unicode="&#x1e9e;" horiz-adv-x="733" 
d="M358 720q164 0 239 -45t75 -142q0 -77 -48 -114t-156 -44q122 -7 177.5 -46t55.5 -117q0 -111 -56.5 -161.5t-180.5 -50.5q-63 0 -113 20v140q16 -8 50 -8t50 15t16 49q0 41 -22.5 60t-71.5 19v162q78 0 78 56q0 29 -18 42.5t-58 13.5q-47 0 -68 -19t-21 -61v-488h-236
v466q0 133 73 193t235 60z" />
    <glyph glyph-name="Ygrave" unicode="&#x1ef2;" horiz-adv-x="743" 
d="M624 300h-1h-121v-300h-249v300h-121l-132 400h289l89 -384l89 384h275zM381 900l78 -150h-180l-132 150h234z" />
    <glyph glyph-name="ygrave" unicode="&#x1ef3;" horiz-adv-x="555" 
d="M211 -52q59 0 63 52h-178l-96 500h235l48 -401l36 401h236l-85 -511q-14 -89 -62.5 -129t-140.5 -40h-176v128h120zM294 700l78 -150h-180l-132 150h234z" />
    <glyph glyph-name="endash" unicode="&#x2013;" horiz-adv-x="560" 
d="M540 340v-152h-520v152h520z" />
    <glyph glyph-name="emdash" unicode="&#x2014;" horiz-adv-x="780" 
d="M760 340v-152h-740v152h740z" />
    <glyph glyph-name="quoteleft" unicode="&#x2018;" horiz-adv-x="288" 
d="M268 394q0 -57 -27 -82.5t-84 -25.5q-73 0 -105.5 41t-32.5 135q0 124 56.5 181t182.5 57v-92q-52 0 -75 -25t-23 -81q57 0 82.5 -25.5t25.5 -82.5z" />
    <glyph glyph-name="quoteright" unicode="&#x2019;" horiz-adv-x="288" 
d="M20 602q0 57 27 82.5t84 25.5q73 0 105.5 -41t32.5 -135q0 -124 -56.5 -181t-182.5 -57v92q52 0 75 25t23 81q-57 0 -82.5 25.5t-25.5 82.5z" />
    <glyph glyph-name="quotesinglbase" unicode="&#x201a;" horiz-adv-x="288" 
d="M20 98q0 57 27 82.5t84 25.5q73 0 105.5 -41t32.5 -135q0 -124 -56.5 -181t-182.5 -57v92q52 0 75 25t23 81q-57 0 -82.5 25.5t-25.5 82.5z" />
    <glyph glyph-name="quotedblleft" unicode="&#x201c;" horiz-adv-x="598" 
d="M268 394q0 -57 -27 -82.5t-84 -25.5q-73 0 -105.5 41t-32.5 135q0 124 56.5 181t182.5 57v-92q-52 0 -75 -25t-23 -81q57 0 82.5 -25.5t25.5 -82.5zM577 394q0 -57 -27 -82.5t-84 -25.5q-73 0 -105.5 41t-32.5 135q0 124 56.5 181t182.5 57v-92q-52 0 -75 -25t-23 -81
q57 0 82.5 -25.5t25.5 -82.5z" />
    <glyph glyph-name="quotedblright" unicode="&#x201d;" horiz-adv-x="598" 
d="M20 602q0 57 27 82.5t84 25.5q73 0 105.5 -41t32.5 -135q0 -124 -56.5 -181t-182.5 -57v92q52 0 75 25t23 81q-57 0 -82.5 25.5t-25.5 82.5zM331 602q0 57 27 82.5t84 25.5q73 0 105.5 -41t32.5 -135q0 -124 -56.5 -181t-182.5 -57v92q52 0 75 25t23 81q-57 0 -82.5 25.5
t-25.5 82.5z" />
    <glyph glyph-name="quotedblbase" unicode="&#x201e;" horiz-adv-x="598" 
d="M20 98q0 57 27 82.5t84 25.5q73 0 105.5 -41t32.5 -135q0 -124 -56.5 -181t-182.5 -57v92q52 0 75 25t23 81q-57 0 -82.5 25.5t-25.5 82.5zM331 98q0 57 27 82.5t84 25.5q73 0 105.5 -41t32.5 -135q0 -124 -56.5 -181t-182.5 -57v92q52 0 75 25t23 81q-57 0 -82.5 25.5
t-25.5 82.5z" />
    <glyph glyph-name="ellipsis" unicode="&#x2026;" horiz-adv-x="1049" 
d="M21 95q0 57 29.5 82t95.5 25q65 0 94.5 -25.5t29.5 -82.5q0 -56 -29.5 -81.5t-95.5 -25.5q-65 0 -94.5 25.5t-29.5 82.5zM526 202q65 0 95 -26.5t30 -83.5q0 -56 -29.5 -81.5t-95.5 -25.5q-65 0 -94.5 25.5t-29.5 82.5t29.5 83t94.5 26zM783 91q0 57 29.5 82t95.5 25
q65 0 94.5 -25.5t29.5 -82.5q0 -56 -29.5 -81.5t-95.5 -25.5q-65 0 -94.5 25.5t-29.5 82.5z" />
    <glyph glyph-name="perthousand" unicode="&#x2030;" horiz-adv-x="1380" 
d="M745 390q100 0 145 -48t45 -154t-45 -154t-145 -48t-145 48t-45 154t45 154t145 48zM745 102q22 0 22 86t-22 86t-22 -86t22 -86zM1169 390q100 0 145 -48t45 -154t-45 -154t-145 -48t-145 48t-45 154t45 154t145 48zM1169 102q22 0 22 86t-22 86t-22 -86t22 -86z
M210 710q100 0 145 -48t45 -154t-45 -154t-145 -48t-145 48t-45 154t45 154t145 48zM210 422q22 0 22 86t-22 86t-22 -86t22 -86zM362 -30h-208l440 760h208z" />
    <glyph glyph-name="guilsinglleft" unicode="&#x2039;" horiz-adv-x="396" 
d="M155 450h221l-121 -190l121 -200h-221l-135 200z" />
    <glyph glyph-name="guilsinglright" unicode="&#x203a;" horiz-adv-x="396" 
d="M20 450h221l135 -190l-135 -200h-221l121 200z" />
    <glyph glyph-name="lira" unicode="&#x20a4;" horiz-adv-x="686" 
d="M91 164h1h565v-164h-626v251q53 0 62 40h-62v74h65v34h-64v74h65v29q0 116 67.5 167.5t217.5 51.5q129 0 187.5 -53t58.5 -167h-223q0 81 -39 79q-35 -1 -35 -81v-27h186v-74h-186v-33h186v-74h-187q-5 -57 -62 -87t-177 -40z" />
    <glyph glyph-name="Euro" unicode="&#x20ac;" horiz-adv-x="847" 
d="M554 240h268q-30 -136 -112 -198t-231 -62q-168 0 -257.5 60.5t-114.5 191.5h-83v104h73v15v12h-73v104h82q24 132 112.5 193t252.5 61q163 0 246 -61.5t103 -198.5h-263q-19 84 -84 84q-67 0 -89 -78h148v-104h-160v-12v-15h120v-104h-108q22 -76 90 -76t80 84z" />
    <glyph glyph-name="trademark" unicode="&#x2122;" horiz-adv-x="1374" 
d="M471 700v-164h-115v-336h-222v336h-115v164h452zM1311 200h-224v405l-42 -405h-273l-42 404v-404h-222v500h364l39 -444l40 444h360v-500z" />
    <glyph glyph-name="minus" unicode="&#x2212;" horiz-adv-x="369" 
d="M349 188h-330v152h330v-152z" />
    <glyph glyph-name="approxequal" unicode="&#x2248;" horiz-adv-x="640" 
d="M620 96q-40 -41 -85.5 -54t-89 -3.5t-88.5 28.5t-89 39t-86 31.5t-84 2.5t-78 -44v139q40 41 85.5 54.5t89 4t88.5 -28.5t89 -39t85.5 -32t84 -3t78.5 44v-139zM20 300v139q40 41 85.5 54.5t89 4t88.5 -28.5t89 -39t85.5 -32t84 -3t78.5 44v-139q-40 -41 -85.5 -54
t-89 -3.5t-88.5 28.5t-89 39t-86 31.5t-84 2.5t-78 -44z" />
    <glyph glyph-name="notequal" unicode="&#x2260;" horiz-adv-x="668" 
d="M184 0l31 86h-195v152h249l19 54h-269v152h324l20 56h128l-20 -56h177v-152h-232l-19 -54h251v-152h-306l-31 -86h-127z" />
    <glyph glyph-name="lessequal" unicode="&#x2264;" horiz-adv-x="460" 
d="M430 0h-400v164h400v-164zM30 273v354l400 73v-187l-332 -63l332 -63v-187z" />
    <glyph glyph-name="greaterequal" unicode="&#x2265;" horiz-adv-x="460" 
d="M30 0v164h400v-164h-400zM430 274l-400 -73v187l332 63l-332 63v187l400 -73v-354z" />
    <glyph glyph-name="uniE132" unicode="&#xe132;" horiz-adv-x="681" 
d="M286 0h-236v500h236v-500zM361 -28q11 0 20.5 11.5t9.5 28.5v488h236v-512q0 -79 -46 -123.5t-124 -44.5h-205v152h109zM56 550l78 150h234l-132 -150h-180zM397 550l78 150h234l-132 -150h-180z" />
    <glyph glyph-name="uniE133" unicode="&#xe133;" horiz-adv-x="1011" 
d="M60 700h263v-700h-263v700zM668 -18q-144 0 -211 56t-67 172v46h250v-46q0 -64 22 -64t22 64v490h263v-490q0 -116 -67.5 -172t-211.5 -56zM92 750l82 120h220l-122 -120h-180zM716 750l82 120h220l-122 -120h-180z" />
    <glyph glyph-name="a.alt1" 
d="M216 -10q-103 0 -149.5 62t-46.5 198t46.5 198t149.5 62q44 0 74.5 -16t49.5 -50.5t27 -88.5l53 145h182v-500h-182l-54 150q-12 -83 -48 -121.5t-102 -38.5zM312 142q28 0 41 26t13 82q0 57 -13 82.5t-41.5 25.5t-41 -25.5t-12.5 -82.5q0 -56 13 -82t41 -26z" />
    <glyph glyph-name="aacute.alt1" 
d="M216 -10q-103 0 -149.5 62t-46.5 198t46.5 198t149.5 62q44 0 74.5 -16t49.5 -50.5t27 -88.5l53 145h182v-500h-182l-54 150q-12 -83 -48 -121.5t-102 -38.5zM312 142q28 0 41 26t13 82q0 57 -13 82.5t-41.5 25.5t-41 -25.5t-12.5 -82.5q0 -56 13 -82t41 -26zM219 550
l78 150h234l-132 -150h-180z" />
    <glyph glyph-name="aacutering.alt1" 
d="M216 -10q-103 0 -149.5 62t-46.5 198t46.5 198t149.5 62q44 0 74.5 -16t49.5 -50.5t27 -88.5l53 145h182v-500h-182l-54 150q-12 -83 -48 -121.5t-102 -38.5zM312 142q28 0 41 26t13 82q0 57 -13 82.5t-41.5 25.5t-41 -25.5t-12.5 -82.5q0 -56 13 -82t41 -26zM559 780
l-107 -82q28 -26 28 -64q0 -53 -33.5 -77.5t-106.5 -24.5q-37 0 -63.5 6t-43.5 18.5t-25 31.5t-8 46q0 53 33.5 77.5t106.5 24.5h12l42 44h165zM340 612q26 0 26 22t-26 22t-26 -22t26 -22z" />
    <glyph glyph-name="abreve.alt1" 
d="M216 -10q-103 0 -149.5 62t-46.5 198t46.5 198t149.5 62q44 0 74.5 -16t49.5 -50.5t27 -88.5l53 145h182v-500h-182l-54 150q-12 -83 -48 -121.5t-102 -38.5zM312 142q28 0 41 26t13 82q0 57 -13 82.5t-41.5 25.5t-41 -25.5t-12.5 -82.5q0 -56 13 -82t41 -26zM503 700
q0 -79 -42 -114.5t-135 -35.5t-135 35.5t-42 114.5h145q0 -46 32 -46t32 46h145z" />
    <glyph glyph-name="acircumflex.alt1" 
d="M216 -10q-103 0 -149.5 62t-46.5 198t46.5 198t149.5 62q44 0 74.5 -16t49.5 -50.5t27 -88.5l53 145h182v-500h-182l-54 150q-12 -83 -48 -121.5t-102 -38.5zM312 142q28 0 41 26t13 82q0 57 -13 82.5t-41.5 25.5t-41 -25.5t-12.5 -82.5q0 -56 13 -82t41 -26zM501 700
l19 -150h-140l-51 142l-51 -142h-140l19 150h344z" />
    <glyph glyph-name="acute.case" horiz-adv-x="342" 
d="M20 550l82 120h220l-122 -120h-180z" />
    <glyph glyph-name="adieresis.alt1" 
d="M216 -10q-103 0 -149.5 62t-46.5 198t46.5 198t149.5 62q44 0 74.5 -16t49.5 -50.5t27 -88.5l53 145h182v-500h-182l-54 150q-12 -83 -48 -121.5t-102 -38.5zM312 142q28 0 41 26t13 82q0 57 -13 82.5t-41.5 25.5t-41 -25.5t-12.5 -82.5q0 -56 13 -82t41 -26zM73 660
q0 57 29.5 82t95.5 25q65 0 94.5 -25.5t29.5 -82.5q0 -56 -29.5 -81.5t-95.5 -25.5q-65 0 -94.5 25.5t-29.5 82.5zM356 658q0 38 13 61.5t40.5 34.5t71.5 11t71 -11t40 -35t13 -62q0 -56 -29.5 -81.5t-95.5 -25.5q-65 0 -94.5 25.5t-29.5 82.5z" />
    <glyph glyph-name="agrave.alt1" 
d="M216 -10q-103 0 -149.5 62t-46.5 198t46.5 198t149.5 62q44 0 74.5 -16t49.5 -50.5t27 -88.5l53 145h182v-500h-182l-54 150q-12 -83 -48 -121.5t-102 -38.5zM312 142q28 0 41 26t13 82q0 57 -13 82.5t-41.5 25.5t-41 -25.5t-12.5 -82.5q0 -56 13 -82t41 -26zM353 700
l78 -150h-180l-132 150h234z" />
    <glyph glyph-name="amacron.alt1" 
d="M216 -10q-103 0 -149.5 62t-46.5 198t46.5 198t149.5 62q44 0 74.5 -16t49.5 -50.5t27 -88.5l53 145h182v-500h-182l-54 150q-12 -83 -48 -121.5t-102 -38.5zM312 142q28 0 41 26t13 82q0 57 -13 82.5t-41.5 25.5t-41 -25.5t-12.5 -82.5q0 -56 13 -82t41 -26zM149 564
v116h340v-116h-340z" />
    <glyph glyph-name="aogonek.alt1" 
d="M523 -74l-1 -1q16 0 32 8v-163q-30 -20 -71 -20q-59 0 -94 44t-28 105.5t57 108.5l-51 142q-12 -83 -48.5 -121.5t-101.5 -38.5q-103 0 -150 61.5t-47 198.5q0 136 46.5 198t149.5 62q66 0 102.5 -37.5t48.5 -117.5l53 145h182v-500h-73q-21 -28 -25 -49.5t19 -24.5z
M308 141q28 0 41 26t13 82q0 57 -13 82.5t-41 25.5t-41 -25.5t-13 -82.5q0 -56 13 -82t41 -26z" />
    <glyph glyph-name="aring.alt1" 
d="M216 -10q-103 0 -149.5 62t-46.5 198t46.5 198t149.5 62q44 0 74.5 -16t49.5 -50.5t27 -88.5l53 145h182v-500h-182l-54 150q-12 -83 -48 -121.5t-102 -38.5zM312 142q28 0 41 26t13 82q0 57 -13 82.5t-41.5 25.5t-41 -25.5t-12.5 -82.5q0 -56 13 -82t41 -26zM349 734
q74 0 107 -27t33 -87t-33 -87t-107 -27t-107 27t-33 87t33 87t107 27zM349 586q26 0 26 34t-26 34t-26 -34t26 -34z" />
    <glyph glyph-name="atilde.alt1" 
d="M216 -10q-103 0 -149.5 62t-46.5 198t46.5 198t149.5 62q44 0 74.5 -16t49.5 -50.5t27 -88.5l53 145h182v-500h-182l-54 150q-12 -83 -48 -121.5t-102 -38.5zM312 142q28 0 41 26t13 82q0 57 -13 82.5t-41.5 25.5t-41 -25.5t-12.5 -82.5q0 -56 13 -82t41 -26zM149 574
q0 81 29.5 117.5t94.5 36.5q27 0 47.5 -9.5t30 -21.5t18.5 -21.5t15 -9.5q11 0 14.5 8.5t3.5 29.5h101q0 -81 -29.5 -117.5t-94.5 -36.5q-33 0 -55 9.5t-29.5 21.5t-14.5 21.5t-14 9.5q-16 0 -16 -38h-101z" />
    <glyph glyph-name="breve.case" horiz-adv-x="394" 
d="M374 670q0 -63 -42 -91.5t-135 -28.5t-135 28.5t-42 91.5h149q0 -28 28 -28q29 0 29 28h148z" />
    <glyph glyph-name="caron.case" horiz-adv-x="415" 
d="M394 670l-16 -120h-344l-15 120h153l35 -112l35 112h152z" />
    <glyph glyph-name="circumflex.case" horiz-adv-x="415" 
d="M379 670h1l16 -120h-153l-35 112l-35 -112h-153l15 120h344z" />
    <glyph glyph-name="commaaccent" horiz-adv-x="208" 
d="M20 -105q0 64 76 64q51 0 71.5 -24.5t20.5 -70.5q0 -68 -37 -98t-121 -30v68q57 0 57 36q-36 0 -51.5 13t-15.5 42z" />
    <glyph glyph-name="dieresis.case" horiz-adv-x="598" 
d="M145 724q65 0 95 -21.5t30 -69.5q0 -47 -29.5 -68.5t-95.5 -21.5q-65 0 -94.5 21.5t-29.5 68.5q0 48 29.5 69.5t94.5 21.5zM454 724q65 0 95 -21.5t30 -69.5q0 -47 -29.5 -68.5t-95.5 -21.5q-65 0 -94.5 21.5t-29.5 68.5q0 48 29.5 69.5t94.5 21.5z" />
    <glyph glyph-name="dotaccent.case" horiz-adv-x="289" 
d="M20 638q0 48 29.5 69.5t94.5 21.5t95 -21.5t30 -69.5q0 -47 -29.5 -68.5t-95.5 -21.5q-65 0 -94.5 21.5t-29.5 68.5z" />
    <glyph glyph-name="grave.case" horiz-adv-x="342" 
d="M227 670l95 -120h-166l-136 120h207z" />
    <glyph glyph-name="hungarumlaut.case" horiz-adv-x="570" 
d="M20 550l68 120h207l-109 -120h-166zM275 550l68 120h207l-109 -120h-166z" />
    <glyph glyph-name="tilde.case" horiz-adv-x="394" 
d="M20 570q0 64 29.5 93t94.5 29q34 0 56.5 -10t35.5 -20t24 -10t17.5 7t8.5 14l1 7h87q0 -64 -29.5 -93t-94.5 -29q-34 0 -57.5 10t-37 20t-24.5 10q-8 0 -14 -7t-7 -14l-2 -7h-88z" />
    </font>
</defs>
</svg>
